<?xml version="1.0" encoding="utf-8"?>
<!-- Generator: Adobe Illustrator 19.0.0, SVG Export Plug-In . SVG Version: 6.00 Build 0)  -->
<svg version="1.1" id="svg2" xmlns="http://www.w3.org/2000/svg" xmlns:xlink="http://www.w3.org/1999/xlink" x="0px" y="0px"
	 viewBox="-3.5 -140 1100 70" style="enable-background:new -3.5 -140 1100 70;" xml:space="preserve">
<style type="text/css">
	.st0{fill:#34394D;}
</style>
<g>
	<g>
		<path id="path2248_1_" class="st0" d="M193.6-102.9c0,0-2.4,0-2.6,0c0,0-0.6,0-0.9,0.5c-0.3,0.3-0.3,0.9-0.3,0.9V-89
			c0,0,0,0.6-0.5,1.3c-0.5,0.5-1.3,0.5-1.3,0.5h-3.7c-0.5,0-0.9-0.2-1.3-0.6c-0.5-0.5-0.5-1.1-0.5-1.1v-8.8v-4c0,0,0-0.6-0.3-0.9
			s-0.9-0.3-0.9-0.3h-2.6c0,0-0.6,0-1.1,0.5c-0.3,0.3-0.3,0.9-0.3,0.9v12.6c0,3.9,3,6.9,6.9,6.9h4.3c3.9,0,6.9-3,6.9-6.9v-12.7
			c0,0,0-0.5-0.5-0.9C194.2-102.9,193.6-102.9,193.6-102.9"/>
		<path id="path2250_1_" class="st0" d="M208.8-89.3c0,0.9,0.6,1.9,1.8,1.9h14.1c1.3,0,1.9-0.8,1.9-1.9c0-0.9-0.8-1.6-1.9-1.6h-14
			C209.5-90.9,208.8-90.2,208.8-89.3z M209.2-101.4c0,1.5,0.6,2.7,1.6,3.7c0.9,0.9,2.2,1.5,3.7,1.5h10.6c5.1,0,7.7,3.3,7.7,7.1
			c0,3.6-2.1,7.4-7.7,7.4h-14.3c-4.2,0-7.4-2.2-7.4-7.4c0-3,1.8-4.8,3.3-5.3c-2.6-1.3-3.3-3.7-3.3-6.7v-6c0-4.5,5.7-4.3,5.7,0
			C209.2-105,209.2-101.4,209.2-101.4z M208.8-114.9c-6.4,0-10.1,3.9-10.1,10.1v16c0,6.4,5.1,11.6,11.6,11.6h15
			c6.4,0,11.6-5.1,11.6-11.6v-14.7c0-6.4-5.1-11.6-11.6-11.6L208.8-114.9"/>
		<path id="path2252_1_" class="st0" d="M167.6-94.8h-6c-0.8,0-1.3-0.6-1.3-1.5s0.5-1.1,1.3-1.3h0.2h9.1c0,0,0.6,0,1.1-0.5
			s0.5-1.3,0.5-1.3v-2.1c0,0,0-0.8-0.5-1.3s-1.1-0.5-1.1-0.5h-9c-1.9,0-3.7,0.6-5,1.8c-1.3,1.1-2.1,2.9-2.1,4.7
			c0,1.8,0.6,3.6,2.1,4.8c1.3,1.3,3,1.9,5,1.9h4.3h1.3c0,0,0,0,0.2,0c0.8,0,1.5,0.5,1.5,1.3c0,0.6-0.5,1.3-1.3,1.3
			c-0.2,0-0.2,0-0.2,0H162c-0.6,0-4.7,0-4.7,0s-0.6,0-1.3,0.5c-0.5,0.5-0.5,1.1-0.5,1.1v2.2c0,0,0,0.8,0.5,1.3s1.1,0.3,1.1,0.3l0,0
			l0,0h0.5h9.9c4,0,6.9-2.7,6.9-6.4C174.5-92,171.6-94.8,167.6-94.8"/>
		<path id="path2260_1_" class="st0" d="M169-88.9L169-88.9L169-88.9L169-88.9"/>
	</g>
	<path class="st0" d="M145.3-123.8c-2.9,0.6-4.7,4.2-3.5,7.1c0.5,1.3,2.3,2.7,3.8,2.9c2.2,0.3,4.4-0.9,5.5-2.9
		c0.5-0.9,0.5-3,0.1-4.2C150.5-123.1,147.8-124.4,145.3-123.8z M17.1-112.8c-3.2,0.9-4.9,4.4-3.6,7.4c0.5,1.3,1.6,2.5,2.7,2.9
		l0.9,0.3v8.5c0,9.3,0.2,10.3,1.8,11.2c1.2,0.6,3.8,0.8,5.7,0.3l1.6-0.4l0.2-8.8c0.1-7.8,0.2-8.9,0.7-9.8c0.8-1.4,2-2.1,4-2.1
		s3.3,0.8,4.3,2.6c0.6,1.2,0.6,1.6,0.7,8.4c0,8,0.2,8.8,1.7,9.7c1.2,0.7,4.7,0.8,6.4,0.2l1.1-0.4l0.1-8.5c0.1-7.9,0.1-8.5,0.7-9.5
		c0.9-1.9,1.9-2.3,4.3-2.3c1.9,0,2.2,0.1,2.9,0.7c1.5,1.4,1.6,1.9,1.6,10c0,8.3,0.1,9,1.8,9.9c1.2,0.6,4.7,0.7,6.4,0.2l1.1-0.4v-9.8
		c0-10.4-0.2-11.8-1.6-14c-1.6-2.4-4.5-4.3-7.8-5c-0.9-0.2-2.9-0.2-4.7-0.2c-3.6,0.2-5.4,0.8-7.8,2.6l-1.6,1.2l-1-0.7
		c-1.4-1.2-3.9-2.4-5.8-2.9c-2.2-0.5-7.4-0.2-9.2,0.4c-1.2,0.5-1.3,0.5-2-0.2C21.1-112.7,18.9-113.3,17.1-112.8z M115.8-111.2
		c-7.7,2-12.2,9-11.1,16.8c1.1,7.5,6,11.7,13.6,11.8c3.1,0,4.8-0.5,7.1-1.9c0.8-0.5,1.4-0.9,1.5-0.9c0.3,0-0.2,3-0.7,4.2
		c-0.7,1.6-2.3,2.9-4.3,3.5c-2.9,0.9-8.8,0.2-12.3-1.4c-1.4-0.6-1.4-0.6-2-0.1c-0.9,0.8-2,3.1-2,4.2c0,0.5,0.2,1.2,0.5,1.6
		c1.6,2.3,12.5,4.1,18,2.9c6-1.3,10.2-5.4,11.6-11.5c0.5-2.8,0.5-16.5,0-19.1c-1.2-5.1-5-8.9-10.5-10.3
		C123-111.8,119.6-112.4,115.8-111.2z M123.2-102.7c4.9,2.2,5,9.4,0.2,11.7c-1.4,0.7-1.9,0.8-3.6,0.7c-1.6-0.1-2.2-0.3-3.3-1
		c-2.2-1.6-3.1-4.7-2.2-7.8c0.5-1.5,2.3-3.4,3.7-3.9C119.6-103.4,121.9-103.4,123.2-102.7z M73.3-110.8c-1.3,0.3-2.4,1.1-2.7,1.9
		c-0.5,1.2-0.3,17.1,0.1,18.8c1.5,5.6,6.6,8.8,14,8.8s12.6-3.3,14-8.8c0.3-1.2,0.4-3.8,0.4-10.9v-9.3l-1.1-0.4c-1.6-0.5-5-0.5-6,0.1
		c-1.7,0.9-1.8,1.1-1.9,9.5c-0.1,7.5-0.1,7.7-0.8,8.9c-0.9,1.7-2.2,2.3-4.7,2.3c-2.4,0-3.6-0.6-4.7-2.3c-0.7-1.2-0.7-1.3-0.8-9.4
		c0-4.4-0.1-8.2-0.1-8.5C79.3-110.6,75.1-111.3,73.3-110.8z M145.1-110.8c-1.4,0.3-2.2,0.9-2.6,1.8c-0.4,0.7-0.5,2.6-0.4,13.6
		l0.1,12.8l1.5,0.4c1.6,0.5,4.3,0.3,5.5-0.2c0.5-0.2,1.1-0.8,1.4-1.2c0.5-0.8,0.6-1.2,0.7-13.6l0.1-12.7l-0.9-0.4
		C149.1-110.9,146.2-111.1,145.1-110.8z"/>
</g>
</svg>
