<?xml version="1.0" encoding="utf-8"?>
<!-- Generator: Adobe Illustrator 19.0.0, SVG Export Plug-In . SVG Version: 6.00 Build 0)  -->
<svg version="1.1" id="svg2" xmlns="http://www.w3.org/2000/svg" xmlns:xlink="http://www.w3.org/1999/xlink" x="0px" y="0px"
	 viewBox="-3.5 0 1400 70" style="enable-background:new -3.5 0 1400 70;" xml:space="preserve">
<style type="text/css">
	.st0{fill:#34394D;}
</style>
<g>
	<g>
		<path id="path2248_5_" class="st0" d="M193.6,37.1c0,0-2.4,0-2.6,0c0,0-0.6,0-0.9,0.5c-0.3,0.3-0.3,0.9-0.3,0.9V51
			c0,0,0,0.6-0.5,1.3c-0.5,0.5-1.3,0.5-1.3,0.5h-3.7c-0.5,0-0.9-0.2-1.3-0.6c-0.5-0.5-0.5-1.1-0.5-1.1v-8.8v-4c0,0,0-0.6-0.3-0.9
			c-0.3-0.3-0.9-0.3-0.9-0.3h-2.6c0,0-0.6,0-1.1,0.5c-0.3,0.3-0.3,0.9-0.3,0.9v12.6c0,3.9,3,6.9,6.9,6.9h4.3c3.9,0,6.9-3,6.9-6.9
			V38.4c0,0,0-0.5-0.5-0.9C194.2,37.1,193.6,37.1,193.6,37.1"/>
		<path id="path2250_12_" class="st0" d="M208.8,50.7c0,0.9,0.6,1.9,1.8,1.9h14.1c1.3,0,1.9-0.8,1.9-1.9c0-0.9-0.8-1.6-1.9-1.6h-14
			C209.5,49.1,208.8,49.8,208.8,50.7z M209.2,38.6c0,1.5,0.6,2.7,1.6,3.7c0.9,0.9,2.2,1.5,3.7,1.5h10.6c5.1,0,7.7,3.3,7.7,7.1
			c0,3.6-2.1,7.4-7.7,7.4h-14.3c-4.2,0-7.4-2.2-7.4-7.4c0-3,1.8-4.8,3.3-5.3c-2.6-1.3-3.3-3.7-3.3-6.7v-6c0-4.5,5.7-4.3,5.7,0
			C209.2,35,209.2,38.6,209.2,38.6z M208.8,25.1c-6.4,0-10.1,3.9-10.1,10.1v16c0,6.4,5.1,11.6,11.6,11.6h15
			c6.4,0,11.6-5.1,11.6-11.6V36.5c0-6.4-5.1-11.6-11.6-11.6L208.8,25.1"/>
		<path id="path2252_5_" class="st0" d="M167.6,45.2h-6c-0.8,0-1.3-0.6-1.3-1.5s0.5-1.1,1.3-1.3h0.2h9.1c0,0,0.6,0,1.1-0.5
			s0.5-1.3,0.5-1.3v-2.1c0,0,0-0.8-0.5-1.3s-1.1-0.5-1.1-0.5h-9c-1.9,0-3.7,0.6-5,1.8c-1.3,1.1-2.1,2.9-2.1,4.7s0.6,3.6,2.1,4.8
			c1.3,1.3,3,1.9,5,1.9h4.3h1.3c0,0,0,0,0.2,0c0.8,0,1.5,0.5,1.5,1.3c0,0.6-0.5,1.3-1.3,1.3c-0.2,0-0.2,0-0.2,0H162
			c-0.6,0-4.7,0-4.7,0s-0.6,0-1.3,0.5c-0.5,0.5-0.5,1.1-0.5,1.1v2.2c0,0,0,0.8,0.5,1.3s1.1,0.3,1.1,0.3l0,0l0,0h0.5h9.9
			c4,0,6.9-2.7,6.9-6.4C174.5,48,171.6,45.2,167.6,45.2"/>
		<path id="path2260_7_" class="st0" d="M169,51.1L169,51.1L169,51.1L169,51.1"/>
	</g>
	<path class="st0" d="M145.3,16.2c-2.9,0.6-4.7,4.2-3.5,7.1c0.5,1.3,2.3,2.7,3.8,2.9c2.2,0.3,4.4-0.9,5.5-2.9c0.5-0.9,0.5-3,0.1-4.2
		C150.5,16.9,147.8,15.6,145.3,16.2z M17.1,27.2c-3.2,0.9-4.9,4.4-3.6,7.4c0.5,1.3,1.6,2.5,2.7,2.9l0.9,0.3v8.5
		c0,9.3,0.2,10.3,1.8,11.2c1.2,0.6,3.8,0.8,5.7,0.3l1.6-0.4l0.2-8.8c0.1-7.8,0.2-8.9,0.7-9.8c0.8-1.4,2-2.1,4-2.1s3.3,0.8,4.3,2.6
		c0.6,1.2,0.6,1.6,0.7,8.4c0,8,0.2,8.8,1.7,9.7c1.2,0.7,4.7,0.8,6.4,0.2l1.1-0.4l0.1-8.5c0.1-7.9,0.1-8.5,0.7-9.5
		c0.9-1.9,1.9-2.3,4.3-2.3c1.9,0,2.2,0.1,2.9,0.7c1.5,1.4,1.6,1.9,1.6,10c0,8.3,0.1,9,1.8,9.9c1.2,0.6,4.7,0.7,6.4,0.2l1.1-0.4v-9.8
		c0-10.4-0.2-11.8-1.6-14c-1.6-2.4-4.5-4.3-7.8-5c-0.9-0.2-2.9-0.2-4.7-0.2c-3.6,0.2-5.4,0.8-7.8,2.6l-1.6,1.2l-1-0.7
		c-1.4-1.2-3.9-2.4-5.8-2.9c-2.2-0.5-7.4-0.2-9.2,0.4c-1.2,0.5-1.3,0.5-2-0.2C21.1,27.3,18.9,26.7,17.1,27.2z M115.8,28.8
		c-7.7,2-12.2,9-11.1,16.8c1.1,7.5,6,11.7,13.6,11.8c3.1,0,4.8-0.5,7.1-1.9c0.8-0.5,1.4-0.9,1.5-0.9c0.3,0-0.2,3-0.7,4.2
		c-0.7,1.6-2.3,2.9-4.3,3.5c-2.9,0.9-8.8,0.2-12.3-1.4c-1.4-0.6-1.4-0.6-2-0.1c-0.9,0.8-2,3.1-2,4.2c0,0.5,0.2,1.2,0.5,1.6
		c1.6,2.3,12.5,4.1,18,2.9c6-1.3,10.2-5.4,11.6-11.5c0.5-2.8,0.5-16.5,0-19.1c-1.2-5.1-5-8.9-10.5-10.3
		C123,28.2,119.6,27.6,115.8,28.8z M123.2,37.3c4.9,2.2,5,9.4,0.2,11.7c-1.4,0.7-1.9,0.8-3.6,0.7c-1.6-0.1-2.2-0.3-3.3-1
		c-2.2-1.6-3.1-4.7-2.2-7.8c0.5-1.5,2.3-3.4,3.7-3.9C119.6,36.6,121.9,36.6,123.2,37.3z M73.3,29.2c-1.3,0.3-2.4,1.1-2.7,1.9
		c-0.5,1.2-0.3,17.1,0.1,18.8c1.5,5.6,6.6,8.8,14,8.8s12.6-3.3,14-8.8c0.3-1.2,0.4-3.8,0.4-10.9v-9.3L98,29.3c-1.6-0.5-5-0.5-6,0.1
		c-1.7,0.9-1.8,1.1-1.9,9.5c-0.1,7.5-0.1,7.7-0.8,8.9c-0.9,1.7-2.2,2.3-4.7,2.3c-2.4,0-3.6-0.6-4.7-2.3c-0.7-1.2-0.7-1.3-0.8-9.4
		c0-4.4-0.1-8.2-0.1-8.5C79.3,29.4,75.1,28.7,73.3,29.2z M145.1,29.2c-1.4,0.3-2.2,0.9-2.6,1.8c-0.4,0.7-0.5,2.6-0.4,13.6l0.1,12.8
		l1.5,0.4c1.6,0.5,4.3,0.3,5.5-0.2c0.5-0.2,1.1-0.8,1.4-1.2c0.5-0.8,0.6-1.2,0.7-13.6l0.1-12.7l-0.9-0.4
		C149.1,29.1,146.2,28.9,145.1,29.2z"/>
</g>
<g>
	<g>
		<path id="path2248_1_" class="st0" d="M193.6-102.9c0,0-2.4,0-2.6,0c0,0-0.6,0-0.9,0.5c-0.3,0.3-0.3,0.9-0.3,0.9V-89
			c0,0,0,0.6-0.5,1.3c-0.5,0.5-1.3,0.5-1.3,0.5h-3.7c-0.5,0-0.9-0.2-1.3-0.6c-0.5-0.5-0.5-1.1-0.5-1.1v-8.8v-4c0,0,0-0.6-0.3-0.9
			s-0.9-0.3-0.9-0.3h-2.6c0,0-0.6,0-1.1,0.5c-0.3,0.3-0.3,0.9-0.3,0.9v12.6c0,3.9,3,6.9,6.9,6.9h4.3c3.9,0,6.9-3,6.9-6.9v-12.7
			c0,0,0-0.5-0.5-0.9C194.2-102.9,193.6-102.9,193.6-102.9"/>
		<path id="path2250_1_" class="st0" d="M208.8-89.3c0,0.9,0.6,1.9,1.8,1.9h14.1c1.3,0,1.9-0.8,1.9-1.9c0-0.9-0.8-1.6-1.9-1.6h-14
			C209.5-90.9,208.8-90.2,208.8-89.3z M209.2-101.4c0,1.5,0.6,2.7,1.6,3.7c0.9,0.9,2.2,1.5,3.7,1.5h10.6c5.1,0,7.7,3.3,7.7,7.1
			c0,3.6-2.1,7.4-7.7,7.4h-14.3c-4.2,0-7.4-2.2-7.4-7.4c0-3,1.8-4.8,3.3-5.3c-2.6-1.3-3.3-3.7-3.3-6.7v-6c0-4.5,5.7-4.3,5.7,0
			C209.2-105,209.2-101.4,209.2-101.4z M208.8-114.9c-6.4,0-10.1,3.9-10.1,10.1v16c0,6.4,5.1,11.6,11.6,11.6h15
			c6.4,0,11.6-5.1,11.6-11.6v-14.7c0-6.4-5.1-11.6-11.6-11.6L208.8-114.9"/>
		<path id="path2252_1_" class="st0" d="M167.6-94.8h-6c-0.8,0-1.3-0.6-1.3-1.5s0.5-1.1,1.3-1.3h0.2h9.1c0,0,0.6,0,1.1-0.5
			s0.5-1.3,0.5-1.3v-2.1c0,0,0-0.8-0.5-1.3s-1.1-0.5-1.1-0.5h-9c-1.9,0-3.7,0.6-5,1.8c-1.3,1.1-2.1,2.9-2.1,4.7
			c0,1.8,0.6,3.6,2.1,4.8c1.3,1.3,3,1.9,5,1.9h4.3h1.3c0,0,0,0,0.2,0c0.8,0,1.5,0.5,1.5,1.3c0,0.6-0.5,1.3-1.3,1.3
			c-0.2,0-0.2,0-0.2,0H162c-0.6,0-4.7,0-4.7,0s-0.6,0-1.3,0.5c-0.5,0.5-0.5,1.1-0.5,1.1v2.2c0,0,0,0.8,0.5,1.3s1.1,0.3,1.1,0.3l0,0
			l0,0h0.5h9.9c4,0,6.9-2.7,6.9-6.4C174.5-92,171.6-94.8,167.6-94.8"/>
		<path id="path2260_1_" class="st0" d="M169-88.9L169-88.9L169-88.9L169-88.9"/>
	</g>
	<path class="st0" d="M145.3-123.8c-2.9,0.6-4.7,4.2-3.5,7.1c0.5,1.3,2.3,2.7,3.8,2.9c2.2,0.3,4.4-0.9,5.5-2.9
		c0.5-0.9,0.5-3,0.1-4.2C150.5-123.1,147.8-124.4,145.3-123.8z M17.1-112.8c-3.2,0.9-4.9,4.4-3.6,7.4c0.5,1.3,1.6,2.5,2.7,2.9
		l0.9,0.3v8.5c0,9.3,0.2,10.3,1.8,11.2c1.2,0.6,3.8,0.8,5.7,0.3l1.6-0.4l0.2-8.8c0.1-7.8,0.2-8.9,0.7-9.8c0.8-1.4,2-2.1,4-2.1
		s3.3,0.8,4.3,2.6c0.6,1.2,0.6,1.6,0.7,8.4c0,8,0.2,8.8,1.7,9.7c1.2,0.7,4.7,0.8,6.4,0.2l1.1-0.4l0.1-8.5c0.1-7.9,0.1-8.5,0.7-9.5
		c0.9-1.9,1.9-2.3,4.3-2.3c1.9,0,2.2,0.1,2.9,0.7c1.5,1.4,1.6,1.9,1.6,10c0,8.3,0.1,9,1.8,9.9c1.2,0.6,4.7,0.7,6.4,0.2l1.1-0.4v-9.8
		c0-10.4-0.2-11.8-1.6-14c-1.6-2.4-4.5-4.3-7.8-5c-0.9-0.2-2.9-0.2-4.7-0.2c-3.6,0.2-5.4,0.8-7.8,2.6l-1.6,1.2l-1-0.7
		c-1.4-1.2-3.9-2.4-5.8-2.9c-2.2-0.5-7.4-0.2-9.2,0.4c-1.2,0.5-1.3,0.5-2-0.2C21.1-112.7,18.9-113.3,17.1-112.8z M115.8-111.2
		c-7.7,2-12.2,9-11.1,16.8c1.1,7.5,6,11.7,13.6,11.8c3.1,0,4.8-0.5,7.1-1.9c0.8-0.5,1.4-0.9,1.5-0.9c0.3,0-0.2,3-0.7,4.2
		c-0.7,1.6-2.3,2.9-4.3,3.5c-2.9,0.9-8.8,0.2-12.3-1.4c-1.4-0.6-1.4-0.6-2-0.1c-0.9,0.8-2,3.1-2,4.2c0,0.5,0.2,1.2,0.5,1.6
		c1.6,2.3,12.5,4.1,18,2.9c6-1.3,10.2-5.4,11.6-11.5c0.5-2.8,0.5-16.5,0-19.1c-1.2-5.1-5-8.9-10.5-10.3
		C123-111.8,119.6-112.4,115.8-111.2z M123.2-102.7c4.9,2.2,5,9.4,0.2,11.7c-1.4,0.7-1.9,0.8-3.6,0.7c-1.6-0.1-2.2-0.3-3.3-1
		c-2.2-1.6-3.1-4.7-2.2-7.8c0.5-1.5,2.3-3.4,3.7-3.9C119.6-103.4,121.9-103.4,123.2-102.7z M73.3-110.8c-1.3,0.3-2.4,1.1-2.7,1.9
		c-0.5,1.2-0.3,17.1,0.1,18.8c1.5,5.6,6.6,8.8,14,8.8s12.6-3.3,14-8.8c0.3-1.2,0.4-3.8,0.4-10.9v-9.3l-1.1-0.4c-1.6-0.5-5-0.5-6,0.1
		c-1.7,0.9-1.8,1.1-1.9,9.5c-0.1,7.5-0.1,7.7-0.8,8.9c-0.9,1.7-2.2,2.3-4.7,2.3c-2.4,0-3.6-0.6-4.7-2.3c-0.7-1.2-0.7-1.3-0.8-9.4
		c0-4.4-0.1-8.2-0.1-8.5C79.3-110.6,75.1-111.3,73.3-110.8z M145.1-110.8c-1.4,0.3-2.2,0.9-2.6,1.8c-0.4,0.7-0.5,2.6-0.4,13.6
		l0.1,12.8l1.5,0.4c1.6,0.5,4.3,0.3,5.5-0.2c0.5-0.2,1.1-0.8,1.4-1.2c0.5-0.8,0.6-1.2,0.7-13.6l0.1-12.7l-0.9-0.4
		C149.1-110.9,146.2-111.1,145.1-110.8z"/>
</g>
<g>
	<g>
		<path id="path2248_2_" class="st0" d="M193.6-221c0,0-2.4,0-2.6,0c0,0-0.6,0-0.9,0.5c-0.3,0.3-0.3,0.9-0.3,0.9v12.5
			c0,0,0,0.6-0.5,1.3c-0.5,0.5-1.3,0.5-1.3,0.5h-3.7c-0.5,0-0.9-0.2-1.3-0.6c-0.5-0.5-0.5-1.1-0.5-1.1v-8.8v-4c0,0,0-0.6-0.3-0.9
			s-0.9-0.3-0.9-0.3h-2.6c0,0-0.6,0-1.1,0.5c-0.3,0.3-0.3,0.9-0.3,0.9v12.6c0,3.9,3,6.9,6.9,6.9h4.3c3.9,0,6.9-3,6.9-6.9v-12.7
			c0,0,0-0.5-0.5-0.9C194.2-221,193.6-221,193.6-221"/>
		<path id="path2250_2_" class="st0" d="M208.8-207.4c0,0.9,0.6,1.9,1.8,1.9h14.1c1.3,0,1.9-0.8,1.9-1.9c0-0.9-0.8-1.6-1.9-1.6h-14
			C209.5-209,208.8-208.3,208.8-207.4z M209.2-219.5c0,1.5,0.6,2.7,1.6,3.7c0.9,0.9,2.2,1.5,3.7,1.5h10.6c5.1,0,7.7,3.3,7.7,7.1
			c0,3.6-2.1,7.4-7.7,7.4h-14.3c-4.2,0-7.4-2.2-7.4-7.4c0-3,1.8-4.8,3.3-5.3c-2.6-1.3-3.3-3.7-3.3-6.7v-6c0-4.5,5.7-4.3,5.7,0
			C209.2-223.1,209.2-219.5,209.2-219.5z M208.8-233c-6.4,0-10.1,3.9-10.1,10.1v16c0,6.4,5.1,11.6,11.6,11.6h15
			c6.4,0,11.6-5.1,11.6-11.6v-14.7c0-6.4-5.1-11.6-11.6-11.6L208.8-233"/>
		<path id="path2252_2_" class="st0" d="M167.6-212.9h-6c-0.8,0-1.3-0.6-1.3-1.5c0-0.9,0.5-1.1,1.3-1.3h0.2h9.1c0,0,0.6,0,1.1-0.5
			s0.5-1.3,0.5-1.3v-2.1c0,0,0-0.8-0.5-1.3s-1.1-0.5-1.1-0.5h-9c-1.9,0-3.7,0.6-5,1.8c-1.3,1.1-2.1,2.9-2.1,4.7s0.6,3.6,2.1,4.8
			c1.3,1.3,3,1.9,5,1.9h4.3h1.3c0,0,0,0,0.2,0c0.8,0,1.5,0.5,1.5,1.3c0,0.6-0.5,1.3-1.3,1.3c-0.2,0-0.2,0-0.2,0H162
			c-0.6,0-4.7,0-4.7,0s-0.6,0-1.3,0.5c-0.5,0.5-0.5,1.1-0.5,1.1v2.2c0,0,0,0.8,0.5,1.3s1.1,0.3,1.1,0.3l0,0l0,0h0.5h9.9
			c4,0,6.9-2.7,6.9-6.4C174.5-210.1,171.6-212.9,167.6-212.9"/>
		<path id="path2260_2_" class="st0" d="M169-207L169-207L169-207L169-207"/>
	</g>
	<path class="st0" d="M145.3-241.9c-2.9,0.6-4.7,4.2-3.5,7.1c0.5,1.3,2.3,2.7,3.8,2.9c2.2,0.3,4.4-0.9,5.5-2.9
		c0.5-0.9,0.5-3,0.1-4.2C150.5-241.2,147.8-242.5,145.3-241.9z M17.1-230.9c-3.2,0.9-4.9,4.4-3.6,7.4c0.5,1.3,1.6,2.5,2.7,2.9
		l0.9,0.3v8.5c0,9.3,0.2,10.3,1.8,11.2c1.2,0.6,3.8,0.8,5.7,0.3l1.6-0.4l0.2-8.8c0.1-7.8,0.2-8.9,0.7-9.8c0.8-1.4,2-2.1,4-2.1
		s3.3,0.8,4.3,2.6c0.6,1.2,0.6,1.6,0.7,8.4c0,8,0.2,8.8,1.7,9.7c1.2,0.7,4.7,0.8,6.4,0.2l1.1-0.4l0.1-8.5c0.1-7.9,0.1-8.5,0.7-9.5
		c0.9-1.9,1.9-2.3,4.3-2.3c1.9,0,2.2,0.1,2.9,0.7c1.5,1.4,1.6,1.9,1.6,10c0,8.3,0.1,9,1.8,9.9c1.2,0.6,4.7,0.7,6.4,0.2l1.1-0.4v-9.8
		c0-10.4-0.2-11.8-1.6-14c-1.6-2.4-4.5-4.3-7.8-5c-0.9-0.2-2.9-0.2-4.7-0.2c-3.6,0.2-5.4,0.8-7.8,2.6l-1.6,1.2l-1-0.7
		c-1.4-1.2-3.9-2.4-5.8-2.9c-2.2-0.5-7.4-0.2-9.2,0.4c-1.2,0.5-1.3,0.5-2-0.2C21.1-230.8,18.9-231.4,17.1-230.9z M115.8-229.3
		c-7.7,2-12.2,9-11.1,16.8c1.1,7.5,6,11.7,13.6,11.8c3.1,0,4.8-0.5,7.1-1.9c0.8-0.5,1.4-0.9,1.5-0.9c0.3,0-0.2,3-0.7,4.2
		c-0.7,1.6-2.3,2.9-4.3,3.5c-2.9,0.9-8.8,0.2-12.3-1.4c-1.4-0.6-1.4-0.6-2-0.1c-0.9,0.8-2,3.1-2,4.2c0,0.5,0.2,1.2,0.5,1.6
		c1.6,2.3,12.5,4.1,18,2.9c6-1.3,10.2-5.4,11.6-11.5c0.5-2.8,0.5-16.5,0-19.1c-1.2-5.1-5-8.9-10.5-10.3
		C123-229.9,119.6-230.5,115.8-229.3z M123.2-220.8c4.9,2.2,5,9.4,0.2,11.7c-1.4,0.7-1.9,0.8-3.6,0.7c-1.6-0.1-2.2-0.3-3.3-1
		c-2.2-1.6-3.1-4.7-2.2-7.8c0.5-1.5,2.3-3.4,3.7-3.9C119.6-221.5,121.9-221.5,123.2-220.8z M73.3-228.9c-1.3,0.3-2.4,1.1-2.7,1.9
		c-0.5,1.2-0.3,17.1,0.1,18.8c1.5,5.6,6.6,8.8,14,8.8s12.6-3.3,14-8.8c0.3-1.2,0.4-3.8,0.4-10.9v-9.3l-1.1-0.4c-1.6-0.5-5-0.5-6,0.1
		c-1.7,0.9-1.8,1.1-1.9,9.5c-0.1,7.5-0.1,7.7-0.8,8.9c-0.9,1.7-2.2,2.3-4.7,2.3c-2.4,0-3.6-0.6-4.7-2.3c-0.7-1.2-0.7-1.3-0.8-9.4
		c0-4.4-0.1-8.2-0.1-8.5C79.3-228.7,75.1-229.4,73.3-228.9z M145.1-228.9c-1.4,0.3-2.2,0.9-2.6,1.8c-0.4,0.7-0.5,2.6-0.4,13.6
		l0.1,12.8l1.5,0.4c1.6,0.5,4.3,0.3,5.5-0.2c0.5-0.2,1.1-0.8,1.4-1.2c0.5-0.8,0.6-1.2,0.7-13.6l0.1-12.7l-0.9-0.4
		C149.1-229,146.2-229.2,145.1-228.9z"/>
</g>
<g>
	<g>
		<path id="path2248_4_" class="st0" d="M193.6-362.4c0,0-2.4,0-2.6,0c0,0-0.6,0-0.9,0.5c-0.3,0.3-0.3,0.9-0.3,0.9v12.5
			c0,0,0,0.6-0.5,1.3c-0.5,0.5-1.3,0.5-1.3,0.5h-3.7c-0.5,0-0.9-0.2-1.3-0.6c-0.5-0.5-0.5-1.1-0.5-1.1v-8.8v-4c0,0,0-0.6-0.3-0.9
			c-0.3-0.3-0.9-0.3-0.9-0.3h-2.6c0,0-0.6,0-1.1,0.5c-0.3,0.3-0.3,0.9-0.3,0.9v12.6c0,3.9,3,6.9,6.9,6.9h4.3c3.9,0,6.9-3,6.9-6.9
			v-12.7c0,0,0-0.5-0.5-0.9C194.2-362.4,193.6-362.4,193.6-362.4"/>
		<path id="path2250_4_" class="st0" d="M208.8-348.8c0,0.9,0.6,1.9,1.8,1.9h14.1c1.3,0,1.9-0.8,1.9-1.9c0-0.9-0.8-1.6-1.9-1.6h-14
			C209.5-350.4,208.8-349.7,208.8-348.8z M209.2-360.9c0,1.5,0.6,2.7,1.6,3.7c0.9,0.9,2.2,1.5,3.7,1.5h10.6c5.1,0,7.7,3.3,7.7,7.1
			c0,3.6-2.1,7.4-7.7,7.4h-14.3c-4.2,0-7.4-2.2-7.4-7.4c0-3,1.8-4.8,3.3-5.3c-2.6-1.3-3.3-3.7-3.3-6.7v-6c0-4.5,5.7-4.3,5.7,0
			C209.2-364.5,209.2-360.9,209.2-360.9z M208.8-374.4c-6.4,0-10.1,3.9-10.1,10.1v16c0,6.4,5.1,11.6,11.6,11.6h15
			c6.4,0,11.6-5.1,11.6-11.6V-363c0-6.4-5.1-11.6-11.6-11.6L208.8-374.4"/>
		<path id="path2252_4_" class="st0" d="M167.6-354.3h-6c-0.8,0-1.3-0.6-1.3-1.5c0-0.9,0.5-1.1,1.3-1.3h0.2h9.1c0,0,0.6,0,1.1-0.5
			s0.5-1.3,0.5-1.3v-2.1c0,0,0-0.8-0.5-1.3s-1.1-0.5-1.1-0.5h-9c-1.9,0-3.7,0.6-5,1.8c-1.3,1.1-2.1,2.9-2.1,4.7
			c0,1.8,0.6,3.6,2.1,4.8c1.3,1.3,3,1.9,5,1.9h4.3h1.3c0,0,0,0,0.2,0c0.8,0,1.5,0.5,1.5,1.3c0,0.6-0.5,1.3-1.3,1.3
			c-0.2,0-0.2,0-0.2,0H162c-0.6,0-4.7,0-4.7,0s-0.6,0-1.3,0.5c-0.5,0.5-0.5,1.1-0.5,1.1v2.2c0,0,0,0.8,0.5,1.3s1.1,0.3,1.1,0.3l0,0
			l0,0h0.5h9.9c4,0,6.9-2.7,6.9-6.4C174.5-351.5,171.6-354.3,167.6-354.3"/>
		<path id="path2260_4_" class="st0" d="M169-348.4L169-348.4L169-348.4L169-348.4"/>
	</g>
	<path class="st0" d="M145.3-383.3c-2.9,0.6-4.7,4.2-3.5,7.1c0.5,1.3,2.3,2.7,3.8,2.9c2.2,0.3,4.4-0.9,5.5-2.9
		c0.5-0.9,0.5-3,0.1-4.2C150.5-382.6,147.8-383.9,145.3-383.3z M17.1-372.3c-3.2,0.9-4.9,4.4-3.6,7.4c0.5,1.3,1.6,2.5,2.7,2.9
		l0.9,0.3v8.5c0,9.3,0.2,10.3,1.8,11.2c1.2,0.6,3.8,0.8,5.7,0.3l1.6-0.4l0.2-8.8c0.1-7.8,0.2-8.9,0.7-9.8c0.8-1.4,2-2.1,4-2.1
		s3.3,0.8,4.3,2.6c0.6,1.2,0.6,1.6,0.7,8.4c0,8,0.2,8.8,1.7,9.7c1.2,0.7,4.7,0.8,6.4,0.2l1.1-0.4l0.1-8.5c0.1-7.9,0.1-8.5,0.7-9.5
		c0.9-1.9,1.9-2.3,4.3-2.3c1.9,0,2.2,0.1,2.9,0.7c1.5,1.4,1.6,1.9,1.6,10c0,8.3,0.1,9,1.8,9.9c1.2,0.6,4.7,0.7,6.4,0.2l1.1-0.4v-9.8
		c0-10.4-0.2-11.8-1.6-14c-1.6-2.4-4.5-4.3-7.8-5c-0.9-0.2-2.9-0.2-4.7-0.2c-3.6,0.2-5.4,0.8-7.8,2.6l-1.6,1.2l-1-0.7
		c-1.4-1.2-3.9-2.4-5.8-2.9c-2.2-0.5-7.4-0.2-9.2,0.4c-1.2,0.5-1.3,0.5-2-0.2C21.1-372.2,18.9-372.8,17.1-372.3z M115.8-370.7
		c-7.7,2-12.2,9-11.1,16.8c1.1,7.5,6,11.7,13.6,11.8c3.1,0,4.8-0.5,7.1-1.9c0.8-0.5,1.4-0.9,1.5-0.9c0.3,0-0.2,3-0.7,4.2
		c-0.7,1.6-2.3,2.9-4.3,3.5c-2.9,0.9-8.8,0.2-12.3-1.4c-1.4-0.6-1.4-0.6-2-0.1c-0.9,0.8-2,3.1-2,4.2c0,0.5,0.2,1.2,0.5,1.6
		c1.6,2.3,12.5,4.1,18,2.9c6-1.3,10.2-5.4,11.6-11.5c0.5-2.8,0.5-16.5,0-19.1c-1.2-5.1-5-8.9-10.5-10.3
		C123-371.3,119.6-371.9,115.8-370.7z M123.2-362.2c4.9,2.2,5,9.4,0.2,11.7c-1.4,0.7-1.9,0.8-3.6,0.7c-1.6-0.1-2.2-0.3-3.3-1
		c-2.2-1.6-3.1-4.7-2.2-7.8c0.5-1.5,2.3-3.4,3.7-3.9C119.6-362.9,121.9-362.9,123.2-362.2z M73.3-370.3c-1.3,0.3-2.4,1.1-2.7,1.9
		c-0.5,1.2-0.3,17.1,0.1,18.8c1.5,5.6,6.6,8.8,14,8.8s12.6-3.3,14-8.8c0.3-1.2,0.4-3.8,0.4-10.9v-9.3l-1.1-0.4c-1.6-0.5-5-0.5-6,0.1
		c-1.7,0.9-1.8,1.1-1.9,9.5c-0.1,7.5-0.1,7.7-0.8,8.9c-0.9,1.7-2.2,2.3-4.7,2.3c-2.4,0-3.6-0.6-4.7-2.3c-0.7-1.2-0.7-1.3-0.8-9.4
		c0-4.4-0.1-8.2-0.1-8.5C79.3-370.1,75.1-370.8,73.3-370.3z M145.1-370.3c-1.4,0.3-2.2,0.9-2.6,1.8c-0.4,0.7-0.5,2.6-0.4,13.6
		l0.1,12.8l1.5,0.4c1.6,0.5,4.3,0.3,5.5-0.2c0.5-0.2,1.1-0.8,1.4-1.2c0.5-0.8,0.6-1.2,0.7-13.6l0.1-12.7l-0.9-0.4
		C149.1-370.4,146.2-370.6,145.1-370.3z"/>
</g>
<g>
	<g>
		<path id="path2248_3_" class="st0" d="M222.6-487c0,0-2.4,0-2.6,0c0,0-0.6,0-0.9,0.5c-0.3,0.3-0.3,0.9-0.3,0.9v12.5
			c0,0,0,0.6-0.5,1.3c-0.5,0.5-1.3,0.5-1.3,0.5h-3.7c-0.5,0-0.9-0.2-1.3-0.6c-0.5-0.5-0.5-1.1-0.5-1.1v-8.8v-4c0,0,0-0.6-0.3-0.9
			c-0.3-0.3-0.9-0.3-0.9-0.3h-2.6c0,0-0.6,0-1.1,0.5c-0.3,0.3-0.3,0.9-0.3,0.9v12.6c0,3.9,3,6.9,6.9,6.9h4.3c3.9,0,6.9-3,6.9-6.9
			v-12.7c0,0,0-0.5-0.5-0.9C223.2-487,222.6-487,222.6-487"/>
		<path id="path2250_3_" class="st0" d="M237.8-473.4c0,0.9,0.6,1.9,1.8,1.9h14.1c1.3,0,1.9-0.8,1.9-1.9c0-0.9-0.8-1.6-1.9-1.6h-14
			C238.5-475,237.8-474.3,237.8-473.4z M238.2-485.5c0,1.5,0.6,2.7,1.6,3.7c0.9,0.9,2.2,1.5,3.7,1.5h10.6c5.1,0,7.7,3.3,7.7,7.1
			c0,3.6-2.1,7.4-7.7,7.4h-14.3c-4.2,0-7.4-2.2-7.4-7.4c0-3,1.8-4.8,3.3-5.3c-2.6-1.3-3.3-3.7-3.3-6.7v-6c0-4.5,5.7-4.3,5.7,0
			C238.2-489.1,238.2-485.5,238.2-485.5z M237.8-499c-6.4,0-10.1,3.9-10.1,10.1v16c0,6.4,5.1,11.6,11.6,11.6h15
			c6.4,0,11.6-5.1,11.6-11.6v-14.7c0-6.4-5.1-11.6-11.6-11.6L237.8-499"/>
		<path id="path2252_3_" class="st0" d="M196.6-478.9h-6c-0.8,0-1.3-0.6-1.3-1.5s0.5-1.1,1.3-1.3h0.2h9.1c0,0,0.6,0,1.1-0.5
			s0.5-1.3,0.5-1.3v-2.1c0,0,0-0.8-0.5-1.3s-1.1-0.5-1.1-0.5h-9c-1.9,0-3.7,0.6-5,1.8c-1.3,1.1-2.1,2.9-2.1,4.7s0.6,3.6,2.1,4.8
			c1.3,1.3,3,1.9,5,1.9h4.3h1.3c0,0,0,0,0.2,0c0.8,0,1.5,0.5,1.5,1.3c0,0.6-0.5,1.3-1.3,1.3c-0.2,0-0.2,0-0.2,0H191
			c-0.6,0-4.7,0-4.7,0s-0.6,0-1.3,0.5c-0.5,0.5-0.5,1.1-0.5,1.1v2.2c0,0,0,0.8,0.5,1.3s1.1,0.3,1.1,0.3l0,0l0,0h0.5h9.9
			c4,0,6.9-2.7,6.9-6.4C203.5-476.1,200.6-478.9,196.6-478.9"/>
		<path id="path2260_3_" class="st0" d="M198-473L198-473L198-473L198-473"/>
	</g>
	<path class="st0" d="M174.3-507.9c-2.9,0.6-4.7,4.2-3.5,7.1c0.5,1.3,2.3,2.7,3.8,2.9c2.2,0.3,4.4-0.9,5.5-2.9
		c0.5-0.9,0.5-3,0.1-4.2C179.5-507.2,176.8-508.5,174.3-507.9z M46.1-496.9c-3.2,0.9-4.9,4.4-3.6,7.4c0.5,1.3,1.6,2.5,2.7,2.9
		l0.9,0.3v8.5c0,9.3,0.2,10.3,1.8,11.2c1.2,0.6,3.8,0.8,5.7,0.3l1.6-0.4l0.2-8.8c0.1-7.8,0.2-8.9,0.7-9.8c0.8-1.4,2-2.1,4-2.1
		s3.3,0.8,4.3,2.6c0.6,1.2,0.6,1.6,0.7,8.4c0,8,0.2,8.8,1.7,9.7c1.2,0.7,4.7,0.8,6.4,0.2l1.1-0.4l0.1-8.5c0.1-7.9,0.1-8.5,0.7-9.5
		c0.9-1.9,1.9-2.3,4.3-2.3c1.9,0,2.2,0.1,2.9,0.7c1.5,1.4,1.6,1.9,1.6,10c0,8.3,0.1,9,1.8,9.9c1.2,0.6,4.7,0.7,6.4,0.2l1.1-0.4v-9.8
		c0-10.4-0.2-11.8-1.6-14c-1.6-2.4-4.5-4.3-7.8-5c-0.9-0.2-2.9-0.2-4.7-0.2c-3.6,0.2-5.4,0.8-7.8,2.6l-1.6,1.2l-1-0.7
		c-1.4-1.2-3.9-2.4-5.8-2.9c-2.2-0.5-7.4-0.2-9.2,0.4c-1.2,0.5-1.3,0.5-2-0.2C50.1-496.8,47.9-497.4,46.1-496.9z M144.8-495.3
		c-7.7,2-12.2,9-11.1,16.8c1.1,7.5,6,11.7,13.6,11.8c3.1,0,4.8-0.5,7.1-1.9c0.8-0.5,1.4-0.9,1.5-0.9c0.3,0-0.2,3-0.7,4.2
		c-0.7,1.6-2.3,2.9-4.3,3.5c-2.9,0.9-8.8,0.2-12.3-1.4c-1.4-0.6-1.4-0.6-2-0.1c-0.9,0.8-2,3.1-2,4.2c0,0.5,0.2,1.2,0.5,1.6
		c1.6,2.3,12.5,4.1,18,2.9c6-1.3,10.2-5.4,11.6-11.5c0.5-2.8,0.5-16.5,0-19.1c-1.2-5.1-5-8.9-10.5-10.3
		C152-495.9,148.6-496.5,144.8-495.3z M152.2-486.8c4.9,2.2,5,9.4,0.2,11.7c-1.4,0.7-1.9,0.8-3.6,0.7c-1.6-0.1-2.2-0.3-3.3-1
		c-2.2-1.6-3.1-4.7-2.2-7.8c0.5-1.5,2.3-3.4,3.7-3.9C148.6-487.5,150.9-487.5,152.2-486.8z M102.3-494.9c-1.3,0.3-2.4,1.1-2.7,1.9
		c-0.5,1.2-0.3,17.1,0.1,18.8c1.5,5.6,6.6,8.8,14,8.8s12.6-3.3,14-8.8c0.3-1.2,0.4-3.8,0.4-10.9v-9.3l-1.1-0.4c-1.6-0.5-5-0.5-6,0.1
		c-1.7,0.9-1.8,1.1-1.9,9.5c-0.1,7.5-0.1,7.7-0.8,8.9c-0.9,1.7-2.2,2.3-4.7,2.3c-2.4,0-3.6-0.6-4.7-2.3c-0.7-1.2-0.7-1.3-0.8-9.4
		c0-4.4-0.1-8.2-0.1-8.5C108.3-494.7,104.1-495.4,102.3-494.9z M174.1-494.9c-1.4,0.3-2.2,0.9-2.6,1.8c-0.4,0.7-0.5,2.6-0.4,13.6
		l0.1,12.8l1.5,0.4c1.6,0.5,4.3,0.3,5.5-0.2c0.5-0.2,1.1-0.8,1.4-1.2c0.5-0.8,0.6-1.2,0.7-13.6l0.1-12.7l-0.9-0.4
		C178.1-495,175.2-495.2,174.1-494.9z"/>
</g>
</svg>
