<?xml version="1.0" encoding="utf-8"?>
<!-- Generator: Adobe Illustrator 19.0.0, SVG Export Plug-In . SVG Version: 6.00 Build 0)  -->
<svg version="1.1" id="svg2" xmlns="http://www.w3.org/2000/svg" xmlns:xlink="http://www.w3.org/1999/xlink" x="0px" y="0px"
	 viewBox="-3.5 -524.1 315 70" style="enable-background:new -3.5 -524.1 315 70;" xml:space="preserve">
<style type="text/css">
	.st0{fill:#34394D;}
	.st1{fill:#B9BBBF;stroke:#B9BBBF;stroke-width:2;stroke-miterlimit:10;}
	.st2{fill:none;}
	.st3{fill:#B9BBBF;}
</style>
<g>
	<g>
		<path id="path2248_5_" class="st0" d="M193.6,37.1c0,0-2.4,0-2.6,0c0,0-0.6,0-0.9,0.5c-0.3,0.3-0.3,0.9-0.3,0.9V51
			c0,0,0,0.6-0.5,1.3c-0.5,0.5-1.3,0.5-1.3,0.5h-3.7c-0.5,0-0.9-0.2-1.3-0.6c-0.5-0.5-0.5-1.1-0.5-1.1v-8.8v-4c0,0,0-0.6-0.3-0.9
			c-0.3-0.3-0.9-0.3-0.9-0.3h-2.6c0,0-0.6,0-1.1,0.5c-0.3,0.3-0.3,0.9-0.3,0.9v12.6c0,3.9,3,6.9,6.9,6.9h4.3c3.9,0,6.9-3,6.9-6.9
			V38.4c0,0,0-0.5-0.5-0.9C194.2,37.1,193.6,37.1,193.6,37.1"/>
		<path id="path2250_12_" class="st0" d="M208.8,50.7c0,0.9,0.6,1.9,1.8,1.9h14.1c1.3,0,1.9-0.8,1.9-1.9c0-0.9-0.8-1.6-1.9-1.6h-14
			C209.5,49.1,208.8,49.8,208.8,50.7z M209.2,38.6c0,1.5,0.6,2.7,1.6,3.7c0.9,0.9,2.2,1.5,3.7,1.5h10.6c5.1,0,7.7,3.3,7.7,7.1
			c0,3.6-2.1,7.4-7.7,7.4h-14.3c-4.2,0-7.4-2.2-7.4-7.4c0-3,1.8-4.8,3.3-5.3c-2.6-1.3-3.3-3.7-3.3-6.7v-6c0-4.5,5.7-4.3,5.7,0
			C209.2,35,209.2,38.6,209.2,38.6z M208.8,25.1c-6.4,0-10.1,3.9-10.1,10.1v16c0,6.4,5.1,11.6,11.6,11.6h15
			c6.4,0,11.6-5.1,11.6-11.6V36.5c0-6.4-5.1-11.6-11.6-11.6L208.8,25.1"/>
		<path id="path2252_5_" class="st0" d="M167.6,45.2h-6c-0.8,0-1.3-0.6-1.3-1.5s0.5-1.1,1.3-1.3h0.2h9.1c0,0,0.6,0,1.1-0.5
			s0.5-1.3,0.5-1.3v-2.1c0,0,0-0.8-0.5-1.3s-1.1-0.5-1.1-0.5h-9c-1.9,0-3.7,0.6-5,1.8c-1.3,1.1-2.1,2.9-2.1,4.7s0.6,3.6,2.1,4.8
			c1.3,1.3,3,1.9,5,1.9h4.3h1.3c0,0,0,0,0.2,0c0.8,0,1.5,0.5,1.5,1.3c0,0.6-0.5,1.3-1.3,1.3c-0.2,0-0.2,0-0.2,0H162
			c-0.6,0-4.7,0-4.7,0s-0.6,0-1.3,0.5c-0.5,0.5-0.5,1.1-0.5,1.1v2.2c0,0,0,0.8,0.5,1.3s1.1,0.3,1.1,0.3l0,0l0,0h0.5h9.9
			c4,0,6.9-2.7,6.9-6.4C174.5,48,171.6,45.2,167.6,45.2"/>
		<path id="path2260_7_" class="st0" d="M169,51.1L169,51.1L169,51.1L169,51.1"/>
	</g>
	<path class="st0" d="M145.3,16.2c-2.9,0.6-4.7,4.2-3.5,7.1c0.5,1.3,2.3,2.7,3.8,2.9c2.2,0.3,4.4-0.9,5.5-2.9c0.5-0.9,0.5-3,0.1-4.2
		C150.5,16.9,147.8,15.6,145.3,16.2z M17.1,27.2c-3.2,0.9-4.9,4.4-3.6,7.4c0.5,1.3,1.6,2.5,2.7,2.9l0.9,0.3v8.5
		c0,9.3,0.2,10.3,1.8,11.2c1.2,0.6,3.8,0.8,5.7,0.3l1.6-0.4l0.2-8.8c0.1-7.8,0.2-8.9,0.7-9.8c0.8-1.4,2-2.1,4-2.1s3.3,0.8,4.3,2.6
		c0.6,1.2,0.6,1.6,0.7,8.4c0,8,0.2,8.8,1.7,9.7c1.2,0.7,4.7,0.8,6.4,0.2l1.1-0.4l0.1-8.5c0.1-7.9,0.1-8.5,0.7-9.5
		c0.9-1.9,1.9-2.3,4.3-2.3c1.9,0,2.2,0.1,2.9,0.7c1.5,1.4,1.6,1.9,1.6,10c0,8.3,0.1,9,1.8,9.9c1.2,0.6,4.7,0.7,6.4,0.2l1.1-0.4v-9.8
		c0-10.4-0.2-11.8-1.6-14c-1.6-2.4-4.5-4.3-7.8-5c-0.9-0.2-2.9-0.2-4.7-0.2c-3.6,0.2-5.4,0.8-7.8,2.6l-1.6,1.2l-1-0.7
		c-1.4-1.2-3.9-2.4-5.8-2.9c-2.2-0.5-7.4-0.2-9.2,0.4c-1.2,0.5-1.3,0.5-2-0.2C21.1,27.3,18.9,26.7,17.1,27.2z M115.8,28.8
		c-7.7,2-12.2,9-11.1,16.8c1.1,7.5,6,11.7,13.6,11.8c3.1,0,4.8-0.5,7.1-1.9c0.8-0.5,1.4-0.9,1.5-0.9c0.3,0-0.2,3-0.7,4.2
		c-0.7,1.6-2.3,2.9-4.3,3.5c-2.9,0.9-8.8,0.2-12.3-1.4c-1.4-0.6-1.4-0.6-2-0.1c-0.9,0.8-2,3.1-2,4.2c0,0.5,0.2,1.2,0.5,1.6
		c1.6,2.3,12.5,4.1,18,2.9c6-1.3,10.2-5.4,11.6-11.5c0.5-2.8,0.5-16.5,0-19.1c-1.2-5.1-5-8.9-10.5-10.3
		C123,28.2,119.6,27.6,115.8,28.8z M123.2,37.3c4.9,2.2,5,9.4,0.2,11.7c-1.4,0.7-1.9,0.8-3.6,0.7c-1.6-0.1-2.2-0.3-3.3-1
		c-2.2-1.6-3.1-4.7-2.2-7.8c0.5-1.5,2.3-3.4,3.7-3.9C119.6,36.6,121.9,36.6,123.2,37.3z M73.3,29.2c-1.3,0.3-2.4,1.1-2.7,1.9
		c-0.5,1.2-0.3,17.1,0.1,18.8c1.5,5.6,6.6,8.8,14,8.8s12.6-3.3,14-8.8c0.3-1.2,0.4-3.8,0.4-10.9v-9.3L98,29.3c-1.6-0.5-5-0.5-6,0.1
		c-1.7,0.9-1.8,1.1-1.9,9.5c-0.1,7.5-0.1,7.7-0.8,8.9c-0.9,1.7-2.2,2.3-4.7,2.3c-2.4,0-3.6-0.6-4.7-2.3c-0.7-1.2-0.7-1.3-0.8-9.4
		c0-4.4-0.1-8.2-0.1-8.5C79.3,29.4,75.1,28.7,73.3,29.2z M145.1,29.2c-1.4,0.3-2.2,0.9-2.6,1.8c-0.4,0.7-0.5,2.6-0.4,13.6l0.1,12.8
		l1.5,0.4c1.6,0.5,4.3,0.3,5.5-0.2c0.5-0.2,1.1-0.8,1.4-1.2c0.5-0.8,0.6-1.2,0.7-13.6l0.1-12.7l-0.9-0.4
		C149.1,29.1,146.2,28.9,145.1,29.2z"/>
</g>
<g>
	<g>
		<path id="path2248_1_" class="st0" d="M193.6-102.9c0,0-2.4,0-2.6,0c0,0-0.6,0-0.9,0.5c-0.3,0.3-0.3,0.9-0.3,0.9V-89
			c0,0,0,0.6-0.5,1.3c-0.5,0.5-1.3,0.5-1.3,0.5h-3.7c-0.5,0-0.9-0.2-1.3-0.6c-0.5-0.5-0.5-1.1-0.5-1.1v-8.8v-4c0,0,0-0.6-0.3-0.9
			s-0.9-0.3-0.9-0.3h-2.6c0,0-0.6,0-1.1,0.5c-0.3,0.3-0.3,0.9-0.3,0.9v12.6c0,3.9,3,6.9,6.9,6.9h4.3c3.9,0,6.9-3,6.9-6.9v-12.7
			c0,0,0-0.5-0.5-0.9C194.2-102.9,193.6-102.9,193.6-102.9"/>
		<path id="path2250_1_" class="st0" d="M208.8-89.3c0,0.9,0.6,1.9,1.8,1.9h14.1c1.3,0,1.9-0.8,1.9-1.9c0-0.9-0.8-1.6-1.9-1.6h-14
			C209.5-90.9,208.8-90.2,208.8-89.3z M209.2-101.4c0,1.5,0.6,2.7,1.6,3.7c0.9,0.9,2.2,1.5,3.7,1.5h10.6c5.1,0,7.7,3.3,7.7,7.1
			c0,3.6-2.1,7.4-7.7,7.4h-14.3c-4.2,0-7.4-2.2-7.4-7.4c0-3,1.8-4.8,3.3-5.3c-2.6-1.3-3.3-3.7-3.3-6.7v-6c0-4.5,5.7-4.3,5.7,0
			C209.2-105,209.2-101.4,209.2-101.4z M208.8-114.9c-6.4,0-10.1,3.9-10.1,10.1v16c0,6.4,5.1,11.6,11.6,11.6h15
			c6.4,0,11.6-5.1,11.6-11.6v-14.7c0-6.4-5.1-11.6-11.6-11.6L208.8-114.9"/>
		<path id="path2252_1_" class="st0" d="M167.6-94.8h-6c-0.8,0-1.3-0.6-1.3-1.5s0.5-1.1,1.3-1.3h0.2h9.1c0,0,0.6,0,1.1-0.5
			s0.5-1.3,0.5-1.3v-2.1c0,0,0-0.8-0.5-1.3s-1.1-0.5-1.1-0.5h-9c-1.9,0-3.7,0.6-5,1.8c-1.3,1.1-2.1,2.9-2.1,4.7
			c0,1.8,0.6,3.6,2.1,4.8c1.3,1.3,3,1.9,5,1.9h4.3h1.3c0,0,0,0,0.2,0c0.8,0,1.5,0.5,1.5,1.3c0,0.6-0.5,1.3-1.3,1.3
			c-0.2,0-0.2,0-0.2,0H162c-0.6,0-4.7,0-4.7,0s-0.6,0-1.3,0.5c-0.5,0.5-0.5,1.1-0.5,1.1v2.2c0,0,0,0.8,0.5,1.3s1.1,0.3,1.1,0.3l0,0
			l0,0h0.5h9.9c4,0,6.9-2.7,6.9-6.4C174.5-92,171.6-94.8,167.6-94.8"/>
		<path id="path2260_1_" class="st0" d="M169-88.9L169-88.9L169-88.9L169-88.9"/>
	</g>
	<path class="st0" d="M145.3-123.8c-2.9,0.6-4.7,4.2-3.5,7.1c0.5,1.3,2.3,2.7,3.8,2.9c2.2,0.3,4.4-0.9,5.5-2.9
		c0.5-0.9,0.5-3,0.1-4.2C150.5-123.1,147.8-124.4,145.3-123.8z M17.1-112.8c-3.2,0.9-4.9,4.4-3.6,7.4c0.5,1.3,1.6,2.5,2.7,2.9
		l0.9,0.3v8.5c0,9.3,0.2,10.3,1.8,11.2c1.2,0.6,3.8,0.8,5.7,0.3l1.6-0.4l0.2-8.8c0.1-7.8,0.2-8.9,0.7-9.8c0.8-1.4,2-2.1,4-2.1
		s3.3,0.8,4.3,2.6c0.6,1.2,0.6,1.6,0.7,8.4c0,8,0.2,8.8,1.7,9.7c1.2,0.7,4.7,0.8,6.4,0.2l1.1-0.4l0.1-8.5c0.1-7.9,0.1-8.5,0.7-9.5
		c0.9-1.9,1.9-2.3,4.3-2.3c1.9,0,2.2,0.1,2.9,0.7c1.5,1.4,1.6,1.9,1.6,10c0,8.3,0.1,9,1.8,9.9c1.2,0.6,4.7,0.7,6.4,0.2l1.1-0.4v-9.8
		c0-10.4-0.2-11.8-1.6-14c-1.6-2.4-4.5-4.3-7.8-5c-0.9-0.2-2.9-0.2-4.7-0.2c-3.6,0.2-5.4,0.8-7.8,2.6l-1.6,1.2l-1-0.7
		c-1.4-1.2-3.9-2.4-5.8-2.9c-2.2-0.5-7.4-0.2-9.2,0.4c-1.2,0.5-1.3,0.5-2-0.2C21.1-112.7,18.9-113.3,17.1-112.8z M115.8-111.2
		c-7.7,2-12.2,9-11.1,16.8c1.1,7.5,6,11.7,13.6,11.8c3.1,0,4.8-0.5,7.1-1.9c0.8-0.5,1.4-0.9,1.5-0.9c0.3,0-0.2,3-0.7,4.2
		c-0.7,1.6-2.3,2.9-4.3,3.5c-2.9,0.9-8.8,0.2-12.3-1.4c-1.4-0.6-1.4-0.6-2-0.1c-0.9,0.8-2,3.1-2,4.2c0,0.5,0.2,1.2,0.5,1.6
		c1.6,2.3,12.5,4.1,18,2.9c6-1.3,10.2-5.4,11.6-11.5c0.5-2.8,0.5-16.5,0-19.1c-1.2-5.1-5-8.9-10.5-10.3
		C123-111.8,119.6-112.4,115.8-111.2z M123.2-102.7c4.9,2.2,5,9.4,0.2,11.7c-1.4,0.7-1.9,0.8-3.6,0.7c-1.6-0.1-2.2-0.3-3.3-1
		c-2.2-1.6-3.1-4.7-2.2-7.8c0.5-1.5,2.3-3.4,3.7-3.9C119.6-103.4,121.9-103.4,123.2-102.7z M73.3-110.8c-1.3,0.3-2.4,1.1-2.7,1.9
		c-0.5,1.2-0.3,17.1,0.1,18.8c1.5,5.6,6.6,8.8,14,8.8s12.6-3.3,14-8.8c0.3-1.2,0.4-3.8,0.4-10.9v-9.3l-1.1-0.4c-1.6-0.5-5-0.5-6,0.1
		c-1.7,0.9-1.8,1.1-1.9,9.5c-0.1,7.5-0.1,7.7-0.8,8.9c-0.9,1.7-2.2,2.3-4.7,2.3c-2.4,0-3.6-0.6-4.7-2.3c-0.7-1.2-0.7-1.3-0.8-9.4
		c0-4.4-0.1-8.2-0.1-8.5C79.3-110.6,75.1-111.3,73.3-110.8z M145.1-110.8c-1.4,0.3-2.2,0.9-2.6,1.8c-0.4,0.7-0.5,2.6-0.4,13.6
		l0.1,12.8l1.5,0.4c1.6,0.5,4.3,0.3,5.5-0.2c0.5-0.2,1.1-0.8,1.4-1.2c0.5-0.8,0.6-1.2,0.7-13.6l0.1-12.7l-0.9-0.4
		C149.1-110.9,146.2-111.1,145.1-110.8z"/>
</g>
<g>
	<g>
		<path id="path2248_2_" class="st0" d="M193.6-221c0,0-2.4,0-2.6,0c0,0-0.6,0-0.9,0.5c-0.3,0.3-0.3,0.9-0.3,0.9v12.5
			c0,0,0,0.6-0.5,1.3c-0.5,0.5-1.3,0.5-1.3,0.5h-3.7c-0.5,0-0.9-0.2-1.3-0.6c-0.5-0.5-0.5-1.1-0.5-1.1v-8.8v-4c0,0,0-0.6-0.3-0.9
			c-0.3-0.3-0.9-0.3-0.9-0.3h-2.6c0,0-0.6,0-1.1,0.5c-0.3,0.3-0.3,0.9-0.3,0.9v12.6c0,3.9,3,6.9,6.9,6.9h4.3c3.9,0,6.9-3,6.9-6.9
			v-12.7c0,0,0-0.5-0.5-0.9C194.2-221,193.6-221,193.6-221"/>
		<path id="path2250_2_" class="st0" d="M208.8-207.4c0,0.9,0.6,1.9,1.8,1.9h14.1c1.3,0,1.9-0.8,1.9-1.9c0-0.9-0.8-1.6-1.9-1.6h-14
			C209.5-209,208.8-208.3,208.8-207.4z M209.2-219.5c0,1.5,0.6,2.7,1.6,3.7c0.9,0.9,2.2,1.5,3.7,1.5h10.6c5.1,0,7.7,3.3,7.7,7.1
			c0,3.6-2.1,7.4-7.7,7.4h-14.3c-4.2,0-7.4-2.2-7.4-7.4c0-3,1.8-4.8,3.3-5.3c-2.6-1.3-3.3-3.7-3.3-6.7v-6c0-4.5,5.7-4.3,5.7,0
			C209.2-223.1,209.2-219.5,209.2-219.5z M208.8-233c-6.4,0-10.1,3.9-10.1,10.1v16c0,6.4,5.1,11.6,11.6,11.6h15
			c6.4,0,11.6-5.1,11.6-11.6v-14.7c0-6.4-5.1-11.6-11.6-11.6L208.8-233"/>
		<path id="path2252_2_" class="st0" d="M167.6-212.9h-6c-0.8,0-1.3-0.6-1.3-1.5c0-0.9,0.5-1.1,1.3-1.3h0.2h9.1c0,0,0.6,0,1.1-0.5
			s0.5-1.3,0.5-1.3v-2.1c0,0,0-0.8-0.5-1.3s-1.1-0.5-1.1-0.5h-9c-1.9,0-3.7,0.6-5,1.8c-1.3,1.1-2.1,2.9-2.1,4.7
			c0,1.8,0.6,3.6,2.1,4.8c1.3,1.3,3,1.9,5,1.9h4.3h1.3c0,0,0,0,0.2,0c0.8,0,1.5,0.5,1.5,1.3c0,0.6-0.5,1.3-1.3,1.3
			c-0.2,0-0.2,0-0.2,0H162c-0.6,0-4.7,0-4.7,0s-0.6,0-1.3,0.5c-0.5,0.5-0.5,1.1-0.5,1.1v2.2c0,0,0,0.8,0.5,1.3s1.1,0.3,1.1,0.3l0,0
			l0,0h0.5h9.9c4,0,6.9-2.7,6.9-6.4C174.5-210.1,171.6-212.9,167.6-212.9"/>
		<path id="path2260_2_" class="st0" d="M169-207L169-207L169-207L169-207"/>
	</g>
	<path class="st0" d="M145.3-241.9c-2.9,0.6-4.7,4.2-3.5,7.1c0.5,1.3,2.3,2.7,3.8,2.9c2.2,0.3,4.4-0.9,5.5-2.9
		c0.5-0.9,0.5-3,0.1-4.2C150.5-241.2,147.8-242.5,145.3-241.9z M17.1-230.9c-3.2,0.9-4.9,4.4-3.6,7.4c0.5,1.3,1.6,2.5,2.7,2.9
		l0.9,0.3v8.5c0,9.3,0.2,10.3,1.8,11.2c1.2,0.6,3.8,0.8,5.7,0.3l1.6-0.4l0.2-8.8c0.1-7.8,0.2-8.9,0.7-9.8c0.8-1.4,2-2.1,4-2.1
		s3.3,0.8,4.3,2.6c0.6,1.2,0.6,1.6,0.7,8.4c0,8,0.2,8.8,1.7,9.7c1.2,0.7,4.7,0.8,6.4,0.2l1.1-0.4l0.1-8.5c0.1-7.9,0.1-8.5,0.7-9.5
		c0.9-1.9,1.9-2.3,4.3-2.3c1.9,0,2.2,0.1,2.9,0.7c1.5,1.4,1.6,1.9,1.6,10c0,8.3,0.1,9,1.8,9.9c1.2,0.6,4.7,0.7,6.4,0.2l1.1-0.4v-9.8
		c0-10.4-0.2-11.8-1.6-14c-1.6-2.4-4.5-4.3-7.8-5c-0.9-0.2-2.9-0.2-4.7-0.2c-3.6,0.2-5.4,0.8-7.8,2.6l-1.6,1.2l-1-0.7
		c-1.4-1.2-3.9-2.4-5.8-2.9c-2.2-0.5-7.4-0.2-9.2,0.4c-1.2,0.5-1.3,0.5-2-0.2C21.1-230.8,18.9-231.4,17.1-230.9z M115.8-229.3
		c-7.7,2-12.2,9-11.1,16.8c1.1,7.5,6,11.7,13.6,11.8c3.1,0,4.8-0.5,7.1-1.9c0.8-0.5,1.4-0.9,1.5-0.9c0.3,0-0.2,3-0.7,4.2
		c-0.7,1.6-2.3,2.9-4.3,3.5c-2.9,0.9-8.8,0.2-12.3-1.4c-1.4-0.6-1.4-0.6-2-0.1c-0.9,0.8-2,3.1-2,4.2c0,0.5,0.2,1.2,0.5,1.6
		c1.6,2.3,12.5,4.1,18,2.9c6-1.3,10.2-5.4,11.6-11.5c0.5-2.8,0.5-16.5,0-19.1c-1.2-5.1-5-8.9-10.5-10.3
		C123-229.9,119.6-230.5,115.8-229.3z M123.2-220.8c4.9,2.2,5,9.4,0.2,11.7c-1.4,0.7-1.9,0.8-3.6,0.7c-1.6-0.1-2.2-0.3-3.3-1
		c-2.2-1.6-3.1-4.7-2.2-7.8c0.5-1.5,2.3-3.4,3.7-3.9C119.6-221.5,121.9-221.5,123.2-220.8z M73.3-228.9c-1.3,0.3-2.4,1.1-2.7,1.9
		c-0.5,1.2-0.3,17.1,0.1,18.8c1.5,5.6,6.6,8.8,14,8.8s12.6-3.3,14-8.8c0.3-1.2,0.4-3.8,0.4-10.9v-9.3l-1.1-0.4c-1.6-0.5-5-0.5-6,0.1
		c-1.7,0.9-1.8,1.1-1.9,9.5c-0.1,7.5-0.1,7.7-0.8,8.9c-0.9,1.7-2.2,2.3-4.7,2.3c-2.4,0-3.6-0.6-4.7-2.3c-0.7-1.2-0.7-1.3-0.8-9.4
		c0-4.4-0.1-8.2-0.1-8.5C79.3-228.7,75.1-229.4,73.3-228.9z M145.1-228.9c-1.4,0.3-2.2,0.9-2.6,1.8c-0.4,0.7-0.5,2.6-0.4,13.6
		l0.1,12.8l1.5,0.4c1.6,0.5,4.3,0.3,5.5-0.2c0.5-0.2,1.1-0.8,1.4-1.2c0.5-0.8,0.6-1.2,0.7-13.6l0.1-12.7l-0.9-0.4
		C149.1-229,146.2-229.2,145.1-228.9z"/>
</g>
<g>
	<g>
		<path id="path2248_4_" class="st0" d="M193.6-362.4c0,0-2.4,0-2.6,0c0,0-0.6,0-0.9,0.5c-0.3,0.3-0.3,0.9-0.3,0.9v12.5
			c0,0,0,0.6-0.5,1.3c-0.5,0.5-1.3,0.5-1.3,0.5h-3.7c-0.5,0-0.9-0.2-1.3-0.6c-0.5-0.5-0.5-1.1-0.5-1.1v-8.8v-4c0,0,0-0.6-0.3-0.9
			s-0.9-0.3-0.9-0.3h-2.6c0,0-0.6,0-1.1,0.5c-0.3,0.3-0.3,0.9-0.3,0.9v12.6c0,3.9,3,6.9,6.9,6.9h4.3c3.9,0,6.9-3,6.9-6.9v-12.7
			c0,0,0-0.5-0.5-0.9C194.2-362.4,193.6-362.4,193.6-362.4"/>
		<path id="path2250_4_" class="st0" d="M208.8-348.8c0,0.9,0.6,1.9,1.8,1.9h14.1c1.3,0,1.9-0.8,1.9-1.9c0-0.9-0.8-1.6-1.9-1.6h-14
			C209.5-350.4,208.8-349.7,208.8-348.8z M209.2-360.9c0,1.5,0.6,2.7,1.6,3.7c0.9,0.9,2.2,1.5,3.7,1.5h10.6c5.1,0,7.7,3.3,7.7,7.1
			c0,3.6-2.1,7.4-7.7,7.4h-14.3c-4.2,0-7.4-2.2-7.4-7.4c0-3,1.8-4.8,3.3-5.3c-2.6-1.3-3.3-3.7-3.3-6.7v-6c0-4.5,5.7-4.3,5.7,0
			C209.2-364.5,209.2-360.9,209.2-360.9z M208.8-374.4c-6.4,0-10.1,3.9-10.1,10.1v16c0,6.4,5.1,11.6,11.6,11.6h15
			c6.4,0,11.6-5.1,11.6-11.6V-363c0-6.4-5.1-11.6-11.6-11.6L208.8-374.4"/>
		<path id="path2252_4_" class="st0" d="M167.6-354.3h-6c-0.8,0-1.3-0.6-1.3-1.5c0-0.9,0.5-1.1,1.3-1.3h0.2h9.1c0,0,0.6,0,1.1-0.5
			s0.5-1.3,0.5-1.3v-2.1c0,0,0-0.8-0.5-1.3s-1.1-0.5-1.1-0.5h-9c-1.9,0-3.7,0.6-5,1.8c-1.3,1.1-2.1,2.9-2.1,4.7
			c0,1.8,0.6,3.6,2.1,4.8c1.3,1.3,3,1.9,5,1.9h4.3h1.3c0,0,0,0,0.2,0c0.8,0,1.5,0.5,1.5,1.3c0,0.6-0.5,1.3-1.3,1.3
			c-0.2,0-0.2,0-0.2,0H162c-0.6,0-4.7,0-4.7,0s-0.6,0-1.3,0.5c-0.5,0.5-0.5,1.1-0.5,1.1v2.2c0,0,0,0.8,0.5,1.3s1.1,0.3,1.1,0.3l0,0
			l0,0h0.5h9.9c4,0,6.9-2.7,6.9-6.4C174.5-351.5,171.6-354.3,167.6-354.3"/>
		<path id="path2260_4_" class="st0" d="M169-348.4L169-348.4L169-348.4L169-348.4"/>
	</g>
	<path class="st0" d="M145.3-383.3c-2.9,0.6-4.7,4.2-3.5,7.1c0.5,1.3,2.3,2.7,3.8,2.9c2.2,0.3,4.4-0.9,5.5-2.9
		c0.5-0.9,0.5-3,0.1-4.2C150.5-382.6,147.8-383.9,145.3-383.3z M17.1-372.3c-3.2,0.9-4.9,4.4-3.6,7.4c0.5,1.3,1.6,2.5,2.7,2.9
		l0.9,0.3v8.5c0,9.3,0.2,10.3,1.8,11.2c1.2,0.6,3.8,0.8,5.7,0.3l1.6-0.4l0.2-8.8c0.1-7.8,0.2-8.9,0.7-9.8c0.8-1.4,2-2.1,4-2.1
		s3.3,0.8,4.3,2.6c0.6,1.2,0.6,1.6,0.7,8.4c0,8,0.2,8.8,1.7,9.7c1.2,0.7,4.7,0.8,6.4,0.2l1.1-0.4l0.1-8.5c0.1-7.9,0.1-8.5,0.7-9.5
		c0.9-1.9,1.9-2.3,4.3-2.3c1.9,0,2.2,0.1,2.9,0.7c1.5,1.4,1.6,1.9,1.6,10c0,8.3,0.1,9,1.8,9.9c1.2,0.6,4.7,0.7,6.4,0.2l1.1-0.4v-9.8
		c0-10.4-0.2-11.8-1.6-14c-1.6-2.4-4.5-4.3-7.8-5c-0.9-0.2-2.9-0.2-4.7-0.2c-3.6,0.2-5.4,0.8-7.8,2.6l-1.6,1.2l-1-0.7
		c-1.4-1.2-3.9-2.4-5.8-2.9c-2.2-0.5-7.4-0.2-9.2,0.4c-1.2,0.5-1.3,0.5-2-0.2C21.1-372.2,18.9-372.8,17.1-372.3z M115.8-370.7
		c-7.7,2-12.2,9-11.1,16.8c1.1,7.5,6,11.7,13.6,11.8c3.1,0,4.8-0.5,7.1-1.9c0.8-0.5,1.4-0.9,1.5-0.9c0.3,0-0.2,3-0.7,4.2
		c-0.7,1.6-2.3,2.9-4.3,3.5c-2.9,0.9-8.8,0.2-12.3-1.4c-1.4-0.6-1.4-0.6-2-0.1c-0.9,0.8-2,3.1-2,4.2c0,0.5,0.2,1.2,0.5,1.6
		c1.6,2.3,12.5,4.1,18,2.9c6-1.3,10.2-5.4,11.6-11.5c0.5-2.8,0.5-16.5,0-19.1c-1.2-5.1-5-8.9-10.5-10.3
		C123-371.3,119.6-371.9,115.8-370.7z M123.2-362.2c4.9,2.2,5,9.4,0.2,11.7c-1.4,0.7-1.9,0.8-3.6,0.7c-1.6-0.1-2.2-0.3-3.3-1
		c-2.2-1.6-3.1-4.7-2.2-7.8c0.5-1.5,2.3-3.4,3.7-3.9C119.6-362.9,121.9-362.9,123.2-362.2z M73.3-370.3c-1.3,0.3-2.4,1.1-2.7,1.9
		c-0.5,1.2-0.3,17.1,0.1,18.8c1.5,5.6,6.6,8.8,14,8.8s12.6-3.3,14-8.8c0.3-1.2,0.4-3.8,0.4-10.9v-9.3l-1.1-0.4c-1.6-0.5-5-0.5-6,0.1
		c-1.7,0.9-1.8,1.1-1.9,9.5c-0.1,7.5-0.1,7.7-0.8,8.9c-0.9,1.7-2.2,2.3-4.7,2.3c-2.4,0-3.6-0.6-4.7-2.3c-0.7-1.2-0.7-1.3-0.8-9.4
		c0-4.4-0.1-8.2-0.1-8.5C79.3-370.1,75.1-370.8,73.3-370.3z M145.1-370.3c-1.4,0.3-2.2,0.9-2.6,1.8c-0.4,0.7-0.5,2.6-0.4,13.6
		l0.1,12.8l1.5,0.4c1.6,0.5,4.3,0.3,5.5-0.2c0.5-0.2,1.1-0.8,1.4-1.2c0.5-0.8,0.6-1.2,0.7-13.6l0.1-12.7l-0.9-0.4
		C149.1-370.4,146.2-370.6,145.1-370.3z"/>
</g>
<g>
	<g>
		<path id="path2248_3_" class="st0" d="M222.6-487c0,0-2.4,0-2.6,0c0,0-0.6,0-0.9,0.5c-0.3,0.3-0.3,0.9-0.3,0.9v12.5
			c0,0,0,0.6-0.5,1.3c-0.5,0.5-1.3,0.5-1.3,0.5h-3.7c-0.5,0-0.9-0.2-1.3-0.6c-0.5-0.5-0.5-1.1-0.5-1.1v-8.8v-4c0,0,0-0.6-0.3-0.9
			c-0.3-0.3-0.9-0.3-0.9-0.3h-2.6c0,0-0.6,0-1.1,0.5c-0.3,0.3-0.3,0.9-0.3,0.9v12.6c0,3.9,3,6.9,6.9,6.9h4.3c3.9,0,6.9-3,6.9-6.9
			v-12.7c0,0,0-0.5-0.5-0.9C223.2-487,222.6-487,222.6-487"/>
		<path id="path2250_3_" class="st0" d="M237.8-473.4c0,0.9,0.6,1.9,1.8,1.9h14.1c1.3,0,1.9-0.8,1.9-1.9c0-0.9-0.8-1.6-1.9-1.6h-14
			C238.5-475,237.8-474.3,237.8-473.4z M238.2-485.5c0,1.5,0.6,2.7,1.6,3.7c0.9,0.9,2.2,1.5,3.7,1.5h10.6c5.1,0,7.7,3.3,7.7,7.1
			c0,3.6-2.1,7.4-7.7,7.4h-14.3c-4.2,0-7.4-2.2-7.4-7.4c0-3,1.8-4.8,3.3-5.3c-2.6-1.3-3.3-3.7-3.3-6.7v-6c0-4.5,5.7-4.3,5.7,0
			C238.2-489.1,238.2-485.5,238.2-485.5z M237.8-499c-6.4,0-10.1,3.9-10.1,10.1v16c0,6.4,5.1,11.6,11.6,11.6h15
			c6.4,0,11.6-5.1,11.6-11.6v-14.7c0-6.4-5.1-11.6-11.6-11.6L237.8-499"/>
		<path id="path2252_3_" class="st0" d="M196.6-478.9h-6c-0.8,0-1.3-0.6-1.3-1.5c0-0.9,0.5-1.1,1.3-1.3h0.2h9.1c0,0,0.6,0,1.1-0.5
			s0.5-1.3,0.5-1.3v-2.1c0,0,0-0.8-0.5-1.3s-1.1-0.5-1.1-0.5h-9c-1.9,0-3.7,0.6-5,1.8c-1.3,1.1-2.1,2.9-2.1,4.7
			c0,1.8,0.6,3.6,2.1,4.8c1.3,1.3,3,1.9,5,1.9h4.3h1.3c0,0,0,0,0.2,0c0.8,0,1.5,0.5,1.5,1.3c0,0.6-0.5,1.3-1.3,1.3
			c-0.2,0-0.2,0-0.2,0H191c-0.6,0-4.7,0-4.7,0s-0.6,0-1.3,0.5c-0.5,0.5-0.5,1.1-0.5,1.1v2.2c0,0,0,0.8,0.5,1.3s1.1,0.3,1.1,0.3l0,0
			l0,0h0.5h9.9c4,0,6.9-2.7,6.9-6.4C203.5-476.1,200.6-478.9,196.6-478.9"/>
		<path id="path2260_3_" class="st0" d="M198-473L198-473L198-473L198-473"/>
	</g>
	<path class="st0" d="M174.3-507.9c-2.9,0.6-4.7,4.2-3.5,7.1c0.5,1.3,2.3,2.7,3.8,2.9c2.2,0.3,4.4-0.9,5.5-2.9
		c0.5-0.9,0.5-3,0.1-4.2C179.5-507.2,176.8-508.5,174.3-507.9z M46.1-496.9c-3.2,0.9-4.9,4.4-3.6,7.4c0.5,1.3,1.6,2.5,2.7,2.9
		l0.9,0.3v8.5c0,9.3,0.2,10.3,1.8,11.2c1.2,0.6,3.8,0.8,5.7,0.3l1.6-0.4l0.2-8.8c0.1-7.8,0.2-8.9,0.7-9.8c0.8-1.4,2-2.1,4-2.1
		s3.3,0.8,4.3,2.6c0.6,1.2,0.6,1.6,0.7,8.4c0,8,0.2,8.8,1.7,9.7c1.2,0.7,4.7,0.8,6.4,0.2l1.1-0.4l0.1-8.5c0.1-7.9,0.1-8.5,0.7-9.5
		c0.9-1.9,1.9-2.3,4.3-2.3c1.9,0,2.2,0.1,2.9,0.7c1.5,1.4,1.6,1.9,1.6,10c0,8.3,0.1,9,1.8,9.9c1.2,0.6,4.7,0.7,6.4,0.2l1.1-0.4v-9.8
		c0-10.4-0.2-11.8-1.6-14c-1.6-2.4-4.5-4.3-7.8-5c-0.9-0.2-2.9-0.2-4.7-0.2c-3.6,0.2-5.4,0.8-7.8,2.6l-1.6,1.2l-1-0.7
		c-1.4-1.2-3.9-2.4-5.8-2.9c-2.2-0.5-7.4-0.2-9.2,0.4c-1.2,0.5-1.3,0.5-2-0.2C50.1-496.8,47.9-497.4,46.1-496.9z M144.8-495.3
		c-7.7,2-12.2,9-11.1,16.8c1.1,7.5,6,11.7,13.6,11.8c3.1,0,4.8-0.5,7.1-1.9c0.8-0.5,1.4-0.9,1.5-0.9c0.3,0-0.2,3-0.7,4.2
		c-0.7,1.6-2.3,2.9-4.3,3.5c-2.9,0.9-8.8,0.2-12.3-1.4c-1.4-0.6-1.4-0.6-2-0.1c-0.9,0.8-2,3.1-2,4.2c0,0.5,0.2,1.2,0.5,1.6
		c1.6,2.3,12.5,4.1,18,2.9c6-1.3,10.2-5.4,11.6-11.5c0.5-2.8,0.5-16.5,0-19.1c-1.2-5.1-5-8.9-10.5-10.3
		C152-495.9,148.6-496.5,144.8-495.3z M152.2-486.8c4.9,2.2,5,9.4,0.2,11.7c-1.4,0.7-1.9,0.8-3.6,0.7c-1.6-0.1-2.2-0.3-3.3-1
		c-2.2-1.6-3.1-4.7-2.2-7.8c0.5-1.5,2.3-3.4,3.7-3.9C148.6-487.5,150.9-487.5,152.2-486.8z M102.3-494.9c-1.3,0.3-2.4,1.1-2.7,1.9
		c-0.5,1.2-0.3,17.1,0.1,18.8c1.5,5.6,6.6,8.8,14,8.8s12.6-3.3,14-8.8c0.3-1.2,0.4-3.8,0.4-10.9v-9.3l-1.1-0.4c-1.6-0.5-5-0.5-6,0.1
		c-1.7,0.9-1.8,1.1-1.9,9.5c-0.1,7.5-0.1,7.7-0.8,8.9c-0.9,1.7-2.2,2.3-4.7,2.3c-2.4,0-3.6-0.6-4.7-2.3c-0.7-1.2-0.7-1.3-0.8-9.4
		c0-4.4-0.1-8.2-0.1-8.5C108.3-494.7,104.1-495.4,102.3-494.9z M174.1-494.9c-1.4,0.3-2.2,0.9-2.6,1.8c-0.4,0.7-0.5,2.6-0.4,13.6
		l0.1,12.8l1.5,0.4c1.6,0.5,4.3,0.3,5.5-0.2c0.5-0.2,1.1-0.8,1.4-1.2c0.5-0.8,0.6-1.2,0.7-13.6l0.1-12.7l-0.9-0.4
		C178.1-495,175.2-495.2,174.1-494.9z"/>
</g>
<text transform="matrix(1 0 0 1 -162.519 49.7646)" style="fill:#FFFFFF; font-family:'MyriadPro-Regular'; font-size:27.8152px;">1400x70</text>
<text transform="matrix(1 0 0 1 -162.519 -96.15)" style="fill:#FFFFFF; font-family:'MyriadPro-Regular'; font-size:27.8152px;">1100x70</text>
<text transform="matrix(1 0 0 1 -155.3845 -208.3673)" style="fill:#FFFFFF; font-family:'MyriadPro-Regular'; font-size:27.8152px;">750x70</text>
<text transform="matrix(1 0 0 1 -155.3845 -350.4788)" style="fill:#FFFFFF; font-family:'MyriadPro-Regular'; font-size:27.8152px;">500x70</text>
<text transform="matrix(1 0 0 1 -155.3845 -471.4998)" style="fill:#FFFFFF; font-family:'MyriadPro-Regular'; font-size:27.8152px;">315x70</text>
<text transform="matrix(1 0 0 1 -162.519 -907.897)" style="fill:#FFFFFF; font-family:'MyriadPro-Regular'; font-size:27.8152px;">512x512</text>
<text transform="matrix(1 0 0 1 -162.519 -1430.3721)" style="fill:#FFFFFF; font-family:'MyriadPro-Regular'; font-size:27.8152px;">384x384</text>
<text transform="matrix(1 0 0 1 -162.519 -1965.2717)" style="fill:#FFFFFF; font-family:'MyriadPro-Regular'; font-size:27.8152px;">256x256</text>
<text transform="matrix(1 0 0 1 -162.519 -2417.1531)" style="fill:#FFFFFF; font-family:'MyriadPro-Regular'; font-size:27.8152px;">192x192</text>
<text transform="matrix(1 0 0 1 -162.519 -2726.0334)" style="fill:#FFFFFF; font-family:'MyriadPro-Regular'; font-size:27.8152px;">144x144</text>
<text transform="matrix(1 0 0 1 -162.519 -3025.416)" style="fill:#FFFFFF; font-family:'MyriadPro-Regular'; font-size:27.8152px;">96x96</text>
<text transform="matrix(1 0 0 1 -155.3845 -3475.7739)" style="fill:#FFFFFF; font-family:'MyriadPro-Regular'; font-size:27.8152px;">64x64</text>
<text transform="matrix(1 0 0 1 -162.519 -3245.6125)" style="fill:#FFFFFF; font-family:'MyriadPro-Regular'; font-size:27.8152px;">72x72</text>
<text transform="matrix(1 0 0 1 -162.519 -3684.397)" style="fill:#FFFFFF; font-family:'MyriadPro-Regular'; font-size:27.8152px;">48x48</text>
<text transform="matrix(1 0 0 1 -162.519 -3911.708)" style="fill:#FFFFFF; font-family:'MyriadPro-Regular'; font-size:27.8152px;">36x36</text>
<text transform="matrix(1 0 0 1 -155.3845 -4119.7637)" style="fill:#FFFFFF; font-family:'MyriadPro-Regular'; font-size:27.8152px;">16x16</text>
<g>
	<g>
		<path class="st1" d="M347.4-1366.9h-313c-3.5,0-6.3-2.8-6.3-6.3v-209.5c0-3.5,2.8-6.3,6.3-6.3h313c3.5,0,6.3,2.8,6.3,6.3v209.5
			C353.6-1369.7,350.8-1366.9,347.4-1366.9z"/>
		<g>
			<path id="path2248_7_" class="st0" d="M139.7-1442.8c0,0-4.3,0-4.7,0c0,0-1.1,0-1.6,0.9c-0.5,0.5-0.5,1.6-0.5,1.6v22.6
				c0,0,0,1.1-0.9,2.4c-0.9,0.9-2.4,0.9-2.4,0.9h-6.7c-0.9,0-1.6-0.4-2.4-1.1c-0.9-0.9-0.9-2-0.9-2v-15.9v-7.2c0,0,0-1.1-0.5-1.6
				c-0.5-0.5-1.6-0.5-1.6-0.5h-4.7c0,0-1.1,0-2,0.9c-0.5,0.5-0.5,1.6-0.5,1.6v22.8c0,7.1,5.4,12.5,12.5,12.5h7.8
				c7.1,0,12.5-5.4,12.5-12.5v-23c0,0,0-0.9-0.9-1.6C140.8-1442.8,139.7-1442.8,139.7-1442.8"/>
			<path id="path2250_6_" class="st0" d="M167.2-1418.2c0,1.6,1.1,3.4,3.3,3.4h25.5c2.4,0,3.4-1.4,3.4-3.4c0-1.6-1.4-2.9-3.4-2.9
				h-25.3C168.4-1421.1,167.2-1419.8,167.2-1418.2z M167.9-1440.1c0,2.7,1.1,4.9,2.9,6.7c1.6,1.6,4,2.7,6.7,2.7h19.2
				c9.2,0,13.9,6,13.9,12.8c0,6.5-3.8,13.4-13.9,13.4h-25.9c-7.6,0-13.4-4-13.4-13.4c0-5.4,3.3-8.7,6-9.6c-4.7-2.4-6-6.7-6-12.1
				v-10.9c0-8.1,10.3-7.8,10.3,0C167.9-1446.6,167.9-1440.1,167.9-1440.1z M167.2-1464.5c-11.6,0-18.3,7.1-18.3,18.3v28.9
				c0,11.6,9.2,21,21,21H197c11.6,0,21-9.2,21-21v-26.6c0-11.6-9.2-21-21-21L167.2-1464.5"/>
			<path id="path2252_7_" class="st0" d="M92.6-1428.1H81.8c-1.4,0-2.4-1.1-2.4-2.7s0.9-2,2.4-2.4h0.4h16.5c0,0,1.1,0,2-0.9
				c0.9-0.9,0.9-2.4,0.9-2.4v-3.8c0,0,0-1.4-0.9-2.4c-0.9-0.9-2-0.9-2-0.9H82.3c-3.4,0-6.7,1.1-9,3.3c-2.4,2-3.8,5.2-3.8,8.5
				s1.1,6.5,3.8,8.7c2.4,2.4,5.4,3.4,9,3.4h7.8h2.4c0,0,0,0,0.4,0c1.4,0,2.7,0.9,2.7,2.4c0,1.1-0.9,2.4-2.4,2.4c-0.4,0-0.4,0-0.4,0
				H82.5c-1.1,0-8.5,0-8.5,0s-1.1,0-2.4,0.9c-0.9,0.9-0.9,2-0.9,2v4c0,0,0,1.4,0.9,2.4c0.9,0.9,2,0.5,2,0.5l0,0l0,0h0.9h17.9
				c7.2,0,12.5-4.9,12.5-11.6C105.1-1423,99.9-1428.1,92.6-1428.1"/>
			<path id="path2260_6_" class="st0" d="M95.2-1417.4L95.2-1417.4L95.2-1417.4L95.2-1417.4"/>
		</g>
		<path class="st0" d="M313.9-1556.9c-5.7,1.2-9.2,8.2-6.8,13.9c1,2.5,4.5,5.3,7.4,5.7c4.3,0.6,8.6-1.8,10.7-5.7
			c1-1.8,1-5.9,0.2-8.2C324.1-1555.6,318.8-1558.1,313.9-1556.9z M63.6-1535.5c-6.2,1.8-9.6,8.6-7,14.4c1,2.5,3.1,4.9,5.3,5.7
			l1.8,0.6v16.6c0,18.2,0.4,20.1,3.5,21.9c2.3,1.2,7.4,1.6,11.1,0.6l3.1-0.8l0.4-17.2c0.2-15.2,0.4-17.4,1.4-19.1
			c1.6-2.7,3.9-4.1,7.8-4.1c3.9,0,6.4,1.6,8.4,5.1c1.2,2.3,1.2,3.1,1.4,16.4c0,15.6,0.4,17.2,3.3,18.9c2.3,1.4,9.2,1.6,12.5,0.4
			l2.1-0.8l0.2-16.6c0.2-15.4,0.2-16.6,1.4-18.5c1.8-3.7,3.7-4.5,8.4-4.5c3.7,0,4.3,0.2,5.7,1.4c2.9,2.7,3.1,3.7,3.1,19.5
			c0,16.2,0.2,17.6,3.5,19.3c2.3,1.2,9.2,1.4,12.5,0.4l2.1-0.8v-19.1c0-20.3-0.4-23-3.1-27.3c-3.1-4.7-8.8-8.4-15.2-9.8
			c-1.8-0.4-5.7-0.4-9.2-0.4c-7,0.4-10.5,1.6-15.2,5.1l-3.1,2.3l-2-1.4c-2.7-2.3-7.6-4.7-11.3-5.7c-4.3-1-14.4-0.4-18,0.8
			c-2.3,1-2.5,1-3.9-0.4C71.4-1535.3,67.1-1536.4,63.6-1535.5z M256.3-1532.3c-15,3.9-23.8,17.6-21.7,32.8
			c2.1,14.6,11.7,22.8,26.6,23c6.1,0,9.4-1,13.9-3.7c1.6-1,2.7-1.8,2.9-1.8c0.6,0-0.4,5.9-1.4,8.2c-1.4,3.1-4.5,5.7-8.4,6.8
			c-5.7,1.8-17.2,0.4-24-2.7c-2.7-1.2-2.7-1.2-3.9-0.2c-1.8,1.6-3.9,6.1-3.9,8.2c0,1,0.4,2.3,1,3.1c3.1,4.5,24.4,8,35.1,5.7
			c11.7-2.5,19.9-10.5,22.6-22.5c1-5.5,1-32.2,0-37.3c-2.3-10-9.8-17.4-20.5-20.1C270.4-1533.5,263.7-1534.7,256.3-1532.3z
			 M270.8-1515.7c9.6,4.3,9.8,18.4,0.4,22.8c-2.7,1.4-3.7,1.6-7,1.4c-3.1-0.2-4.3-0.6-6.4-2c-4.3-3.1-6.1-9.2-4.3-15.2
			c1-2.9,4.5-6.6,7.2-7.6C263.7-1517.1,268.2-1517.1,270.8-1515.7z M173.3-1531.6c-2.5,0.6-4.7,2.1-5.3,3.7
			c-1,2.3-0.6,33.4,0.2,36.7c2.9,10.9,12.9,17.2,27.3,17.2s24.6-6.4,27.3-17.2c0.6-2.3,0.8-7.4,0.8-21.3v-18.2l-2.1-0.8
			c-3.1-1-9.8-1-11.7,0.2c-3.3,1.8-3.5,2.1-3.7,18.5c-0.2,14.6-0.2,15-1.6,17.4c-1.8,3.3-4.3,4.5-9.2,4.5c-4.7,0-7-1.2-9.2-4.5
			c-1.4-2.3-1.4-2.5-1.6-18.4c0-8.6-0.2-16-0.2-16.6C185.1-1531.2,176.9-1532.5,173.3-1531.6z M313.5-1531.6
			c-2.7,0.6-4.3,1.8-5.1,3.5c-0.8,1.4-1,5.1-0.8,26.6l0.2,25l2.9,0.8c3.1,1,8.4,0.6,10.7-0.4c1-0.4,2.1-1.6,2.7-2.3
			c1-1.6,1.2-2.3,1.4-26.6l0.2-24.8l-1.8-0.8C321.3-1531.8,315.7-1532.1,313.5-1531.6z"/>
	</g>
	<rect x="-3.5" y="-1665.5" class="st2" width="384" height="384"/>
</g>
<g>
	<g>
		<path class="st1" d="M292.3-1933.4H87.8c-3.5,0-6.3-2.8-6.3-6.3v-135.5c0-3.5,2.8-6.3,6.3-6.3h204.5c3.5,0,6.3,2.8,6.3,6.3v135.5
			C298.6-1936.2,295.8-1933.4,292.3-1933.4z"/>
		<g>
			<path id="path2248_8_" class="st0" d="M155.9-1984c0,0-2.9,0-3.1,0c0,0-0.7,0-1.1,0.6c-0.4,0.4-0.4,1.1-0.4,1.1v15.1
				c0,0,0,0.7-0.6,1.6c-0.6,0.6-1.6,0.6-1.6,0.6h-4.5c-0.6,0-1.1-0.2-1.6-0.7c-0.6-0.6-0.6-1.3-0.6-1.3v-10.6v-4.8
				c0,0,0-0.7-0.4-1.1c-0.4-0.4-1.1-0.4-1.1-0.4H138c0,0-0.7,0-1.3,0.6c-0.4,0.4-0.4,1.1-0.4,1.1v15.2c0,4.7,3.6,8.3,8.3,8.3h5.2
				c4.7,0,8.3-3.6,8.3-8.3v-15.3c0,0,0-0.6-0.6-1.1C156.7-1984,155.9-1984,155.9-1984"/>
			<path id="path2250_7_" class="st0" d="M174.3-1967.6c0,1.1,0.7,2.3,2.2,2.3h17c1.6,0,2.3-1,2.3-2.3c0-1.1-1-1.9-2.3-1.9h-16.9
				C175.1-1969.5,174.3-1968.6,174.3-1967.6z M174.8-1982.2c0,1.8,0.7,3.3,1.9,4.5c1.1,1.1,2.7,1.8,4.5,1.8h12.8
				c6.2,0,9.3,4,9.3,8.6c0,4.3-2.5,8.9-9.3,8.9h-17.2c-5.1,0-8.9-2.7-8.9-8.9c0-3.6,2.2-5.8,4-6.4c-3.1-1.6-4-4.5-4-8.1v-7.2
				c0-5.4,6.9-5.2,6.9,0C174.8-1986.5,174.8-1982.2,174.8-1982.2z M174.3-1998.4c-7.7,0-12.2,4.7-12.2,12.2v19.3c0,7.7,6.2,14,14,14
				h18.1c7.7,0,14-6.2,14-14v-17.7c0-7.7-6.2-14-14-14L174.3-1998.4"/>
			<path id="path2252_8_" class="st0" d="M124.6-1974.2h-7.2c-1,0-1.6-0.7-1.6-1.8s0.6-1.3,1.6-1.6h0.2h11c0,0,0.7,0,1.3-0.6
				c0.6-0.6,0.6-1.6,0.6-1.6v-2.5c0,0,0-1-0.6-1.6c-0.6-0.6-1.3-0.6-1.3-0.6h-10.9c-2.3,0-4.5,0.7-6,2.2c-1.6,1.3-2.5,3.5-2.5,5.7
				c0,2.2,0.7,4.3,2.5,5.8c1.6,1.6,3.6,2.3,6,2.3h5.2h1.6c0,0,0,0,0.2,0c1,0,1.8,0.6,1.8,1.6c0,0.7-0.6,1.6-1.6,1.6
				c-0.2,0-0.2,0-0.2,0h-6.9c-0.7,0-5.7,0-5.7,0s-0.7,0-1.6,0.6c-0.6,0.6-0.6,1.3-0.6,1.3v2.7c0,0,0,1,0.6,1.6
				c0.6,0.6,1.3,0.4,1.3,0.4l0,0l0,0h0.6h11.9c4.8,0,8.3-3.3,8.3-7.7C132.9-1970.8,129.4-1974.2,124.6-1974.2"/>
			<path id="path2260_8_" class="st0" d="M126.3-1967.1L126.3-1967.1L126.3-1967.1L126.3-1967.1"/>
		</g>
		<path class="st0" d="M272.1-2060.1c-3.8,0.8-6.1,5.5-4.6,9.2c0.7,1.7,3,3.5,4.9,3.8c2.9,0.4,5.7-1.2,7.2-3.8
			c0.7-1.2,0.7-3.9,0.1-5.5C278.9-2059.2,275.4-2060.9,272.1-2060.1z M105.2-2045.8c-4.2,1.2-6.4,5.7-4.7,9.6
			c0.7,1.7,2.1,3.3,3.5,3.8l1.2,0.4v11.1c0,12.1,0.3,13.4,2.3,14.6c1.6,0.8,4.9,1,7.4,0.4l2.1-0.5l0.3-11.5
			c0.1-10.2,0.3-11.6,0.9-12.8c1-1.8,2.6-2.7,5.2-2.7s4.3,1,5.6,3.4c0.8,1.6,0.8,2.1,0.9,10.9c0,10.4,0.3,11.5,2.2,12.6
			c1.6,0.9,6.1,1,8.3,0.3l1.4-0.5l0.1-11.1c0.1-10.3,0.1-11.1,0.9-12.4c1.2-2.5,2.5-3,5.6-3c2.5,0,2.9,0.1,3.8,0.9
			c2,1.8,2.1,2.5,2.1,13c0,10.8,0.1,11.7,2.3,12.9c1.6,0.8,6.1,0.9,8.3,0.3l1.4-0.5v-12.8c0-13.5-0.3-15.4-2.1-18.2
			c-2.1-3.1-5.9-5.6-10.2-6.5c-1.2-0.3-3.8-0.3-6.1-0.3c-4.7,0.3-7,1-10.2,3.4l-2.1,1.6l-1.3-0.9c-1.8-1.6-5.1-3.1-7.5-3.8
			c-2.9-0.7-9.6-0.3-12,0.5c-1.6,0.7-1.7,0.7-2.6-0.3C110.4-2045.6,107.6-2046.4,105.2-2045.8z M233.7-2043.7
			c-10,2.6-15.9,11.7-14.4,21.9c1.4,9.8,7.8,15.2,17.7,15.4c4,0,6.2-0.7,9.2-2.5c1-0.7,1.8-1.2,2-1.2c0.4,0-0.3,3.9-0.9,5.5
			c-0.9,2.1-3,3.8-5.6,4.6c-3.8,1.2-11.5,0.3-16-1.8c-1.8-0.8-1.8-0.8-2.6-0.1c-1.2,1-2.6,4-2.6,5.5c0,0.7,0.3,1.6,0.7,2.1
			c2.1,3,16.3,5.3,23.4,3.8c7.8-1.7,13.3-7,15.1-15c0.7-3.6,0.7-21.5,0-24.9c-1.6-6.6-6.5-11.6-13.7-13.4
			C243.1-2044.5,238.6-2045.2,233.7-2043.7z M243.4-2032.6c6.4,2.9,6.5,12.2,0.3,15.2c-1.8,0.9-2.5,1-4.7,0.9
			c-2.1-0.1-2.9-0.4-4.3-1.3c-2.9-2.1-4-6.1-2.9-10.2c0.7-2,3-4.4,4.8-5.1C238.7-2033.5,241.7-2033.5,243.4-2032.6z M178.4-2043.2
			c-1.7,0.4-3.1,1.4-3.5,2.5c-0.7,1.6-0.4,22.3,0.1,24.5c2,7.3,8.6,11.5,18.2,11.5c9.6,0,16.4-4.3,18.2-11.5
			c0.4-1.6,0.5-4.9,0.5-14.2v-12.1l-1.4-0.5c-2.1-0.7-6.5-0.7-7.8,0.1c-2.2,1.2-2.3,1.4-2.5,12.4c-0.1,9.8-0.1,10-1,11.6
			c-1.2,2.2-2.9,3-6.1,3c-3.1,0-4.7-0.8-6.1-3c-0.9-1.6-0.9-1.7-1-12.2c0-5.7-0.1-10.7-0.1-11.1
			C186.2-2042.9,180.7-2043.8,178.4-2043.2z M271.9-2043.2c-1.8,0.4-2.9,1.2-3.4,2.3c-0.5,0.9-0.7,3.4-0.5,17.7l0.1,16.7l2,0.5
			c2.1,0.7,5.6,0.4,7.2-0.3c0.7-0.3,1.4-1,1.8-1.6c0.7-1,0.8-1.6,0.9-17.7l0.1-16.5l-1.2-0.5
			C277.1-2043.3,273.3-2043.6,271.9-2043.2z"/>
	</g>
	<rect x="60.5" y="-2132.4" class="st2" width="256" height="256"/>
</g>
<g>
	<g>
		<path class="st1" d="M264.8-2363.9H114.6c-3.5,0-6.3-2.8-6.3-6.3v-98.5c0-3.5,2.8-6.3,6.3-6.3h150.2c3.5,0,6.3,2.8,6.3,6.3v98.5
			C271.1-2366.7,268.3-2363.9,264.8-2363.9z"/>
		<g>
			<path id="path2248_9_" class="st0" d="M164.1-2401.8c0,0-2.2,0-2.4,0c0,0-0.5,0-0.8,0.5c-0.3,0.3-0.3,0.8-0.3,0.8v11.3
				c0,0,0,0.5-0.5,1.2c-0.5,0.5-1.2,0.5-1.2,0.5h-3.3c-0.5,0-0.8-0.2-1.2-0.5c-0.5-0.5-0.5-1-0.5-1v-8v-3.6c0,0,0-0.5-0.3-0.8
				c-0.3-0.3-0.8-0.3-0.8-0.3h-2.4c0,0-0.5,0-1,0.5c-0.3,0.3-0.3,0.8-0.3,0.8v11.4c0,3.5,2.7,6.2,6.2,6.2h3.9c3.5,0,6.2-2.7,6.2-6.2
				v-11.5c0,0,0-0.5-0.5-0.8C164.6-2401.8,164.1-2401.8,164.1-2401.8"/>
			<path id="path2250_8_" class="st0" d="M177.8-2389.5c0,0.8,0.5,1.7,1.6,1.7h12.8c1.2,0,1.7-0.7,1.7-1.7c0-0.8-0.7-1.4-1.7-1.4
				h-12.7C178.5-2391,177.8-2390.3,177.8-2389.5z M178.2-2400.5c0,1.4,0.5,2.4,1.4,3.3c0.8,0.8,2,1.4,3.3,1.4h9.6c4.6,0,7,3,7,6.4
				c0,3.3-1.9,6.7-7,6.7h-12.9c-3.8,0-6.7-2-6.7-6.7c0-2.7,1.6-4.3,3-4.8c-2.4-1.2-3-3.3-3-6.1v-5.4c0-4.1,5.2-3.9,5.2,0
				C178.2-2403.7,178.2-2400.5,178.2-2400.5z M177.8-2412.7c-5.8,0-9.1,3.5-9.1,9.1v14.5c0,5.8,4.6,10.5,10.5,10.5h13.6
				c5.8,0,10.5-4.6,10.5-10.5v-13.3c0-5.8-4.6-10.5-10.5-10.5L177.8-2412.7"/>
			<path id="path2252_9_" class="st0" d="M140.6-2394.5h-5.4c-0.7,0-1.2-0.5-1.2-1.4s0.5-1,1.2-1.2h0.2h8.2c0,0,0.5,0,1-0.5
				c0.5-0.5,0.5-1.2,0.5-1.2v-1.9c0,0,0-0.7-0.5-1.2c-0.5-0.5-1-0.5-1-0.5h-8.1c-1.7,0-3.3,0.5-4.5,1.6c-1.2,1-1.9,2.6-1.9,4.3
				c0,1.6,0.5,3.3,1.9,4.3c1.2,1.2,2.7,1.7,4.5,1.7h3.9h1.2c0,0,0,0,0.2,0c0.7,0,1.4,0.5,1.4,1.2c0,0.5-0.5,1.2-1.2,1.2
				c-0.2,0-0.2,0-0.2,0h-5.2c-0.5,0-4.3,0-4.3,0s-0.5,0-1.2,0.5c-0.5,0.5-0.5,1-0.5,1v2c0,0,0,0.7,0.5,1.2c0.5,0.5,1,0.3,1,0.3l0,0
				l0,0h0.5h9c3.6,0,6.2-2.4,6.2-5.8C146.8-2391.9,144.2-2394.5,140.6-2394.5"/>
			<path id="path2260_9_" class="st0" d="M141.8-2389.1L141.8-2389.1L141.8-2389.1L141.8-2389.1"/>
		</g>
		<path class="st0" d="M251.2-2458.9c-2.8,0.6-4.6,4.1-3.4,6.9c0.5,1.3,2.2,2.6,3.7,2.8c2.1,0.3,4.3-0.9,5.4-2.8
			c0.5-0.9,0.5-2.9,0.1-4.1C256.3-2458.2,253.7-2459.5,251.2-2458.9z M126.1-2448.2c-3.1,0.9-4.8,4.3-3.5,7.2
			c0.5,1.3,1.6,2.4,2.6,2.8l0.9,0.3v8.3c0,9.1,0.2,10.1,1.8,10.9c1.2,0.6,3.7,0.8,5.6,0.3l1.6-0.4l0.2-8.6c0.1-7.6,0.2-8.7,0.7-9.6
			c0.8-1.4,2-2.1,3.9-2.1s3.2,0.8,4.2,2.5c0.6,1.2,0.6,1.6,0.7,8.2c0,7.8,0.2,8.6,1.7,9.5c1.2,0.7,4.6,0.8,6.2,0.2l1.1-0.4l0.1-8.3
			c0.1-7.7,0.1-8.3,0.7-9.3c0.9-1.9,1.9-2.2,4.2-2.2c1.9,0,2.1,0.1,2.8,0.7c1.5,1.4,1.6,1.9,1.6,9.8c0,8.1,0.1,8.8,1.8,9.7
			c1.2,0.6,4.6,0.7,6.2,0.2l1.1-0.4v-9.6c0-10.2-0.2-11.5-1.6-13.7c-1.6-2.3-4.4-4.2-7.6-4.9c-0.9-0.2-2.8-0.2-4.6-0.2
			c-3.5,0.2-5.3,0.8-7.6,2.5l-1.6,1.2l-1-0.7c-1.4-1.2-3.8-2.3-5.7-2.8c-2.1-0.5-7.2-0.2-9,0.4c-1.2,0.5-1.3,0.5-2-0.2
			C130-2448.1,127.8-2448.6,126.1-2448.2z M222.4-2446.6c-7.5,2-11.9,8.8-10.8,16.4c1.1,7.3,5.9,11.4,13.3,11.5c3,0,4.7-0.5,6.9-1.9
			c0.8-0.5,1.4-0.9,1.5-0.9c0.3,0-0.2,2.9-0.7,4.1c-0.7,1.6-2.2,2.8-4.2,3.4c-2.8,0.9-8.6,0.2-12-1.4c-1.4-0.6-1.4-0.6-2-0.1
			c-0.9,0.8-2,3-2,4.1c0,0.5,0.2,1.2,0.5,1.6c1.6,2.2,12.2,4,17.6,2.8c5.9-1.3,10-5.3,11.3-11.2c0.5-2.7,0.5-16.1,0-18.6
			c-1.2-5-4.9-8.7-10.3-10.1C229.4-2447.2,226.1-2447.8,222.4-2446.6z M229.6-2438.3c4.8,2.1,4.9,9.2,0.2,11.4
			c-1.4,0.7-1.9,0.8-3.5,0.7c-1.6-0.1-2.1-0.3-3.2-1c-2.1-1.6-3-4.6-2.1-7.6c0.5-1.5,2.2-3.3,3.6-3.8
			C226.1-2439,228.4-2439,229.6-2438.3z M180.9-2446.2c-1.3,0.3-2.3,1.1-2.6,1.9c-0.5,1.2-0.3,16.7,0.1,18.4
			c1.5,5.5,6.4,8.6,13.7,8.6s12.3-3.2,13.7-8.6c0.3-1.2,0.4-3.7,0.4-10.6v-9.1l-1.1-0.4c-1.6-0.5-4.9-0.5-5.9,0.1
			c-1.7,0.9-1.8,1.1-1.9,9.3c-0.1,7.3-0.1,7.5-0.8,8.7c-0.9,1.7-2.1,2.2-4.6,2.2c-2.3,0-3.5-0.6-4.6-2.2c-0.7-1.2-0.7-1.3-0.8-9.2
			c0-4.3-0.1-8-0.1-8.3C186.8-2446,182.7-2446.7,180.9-2446.2z M251-2446.2c-1.4,0.3-2.1,0.9-2.5,1.8c-0.4,0.7-0.5,2.5-0.4,13.3
			l0.1,12.5l1.5,0.4c1.6,0.5,4.2,0.3,5.4-0.2c0.5-0.2,1.1-0.8,1.4-1.2c0.5-0.8,0.6-1.2,0.7-13.3l0.1-12.4l-0.9-0.4
			C254.9-2446.3,252.1-2446.5,251-2446.2z"/>
	</g>
	<rect x="92.5" y="-2513.2" class="st2" width="192" height="192"/>
</g>
<g>
	<g>
		<path class="st1" d="M244.2-2694.6H134.6c-3.5,0-6.3-2.8-6.3-6.3v-70.8c0-3.5,2.8-6.3,6.3-6.3h109.6c3.5,0,6.3,2.8,6.3,6.3v70.8
			C250.4-2697.4,247.6-2694.6,244.2-2694.6z"/>
		<g>
			<path id="path2248_10_" class="st0" d="M170.2-2723.1c0,0-1.6,0-1.8,0c0,0-0.4,0-0.6,0.3c-0.2,0.2-0.2,0.6-0.2,0.6v8.5
				c0,0,0,0.4-0.3,0.9c-0.3,0.3-0.9,0.3-0.9,0.3h-2.5c-0.3,0-0.6-0.1-0.9-0.4c-0.3-0.3-0.3-0.7-0.3-0.7v-6v-2.7c0,0,0-0.4-0.2-0.6
				c-0.2-0.2-0.6-0.2-0.6-0.2h-1.8c0,0-0.4,0-0.7,0.3c-0.2,0.2-0.2,0.6-0.2,0.6v8.5c0,2.6,2,4.7,4.7,4.7h2.9c2.6,0,4.7-2,4.7-4.7
				v-8.6c0,0,0-0.3-0.3-0.6C170.6-2723.1,170.2-2723.1,170.2-2723.1"/>
			<path id="path2250_9_" class="st0" d="M180.5-2713.9c0,0.6,0.4,1.3,1.2,1.3h9.6c0.9,0,1.3-0.5,1.3-1.3c0-0.6-0.5-1.1-1.3-1.1
				h-9.5C181-2714.9,180.5-2714.5,180.5-2713.9z M180.8-2722.1c0,1,0.4,1.8,1.1,2.5c0.6,0.6,1.5,1,2.5,1h7.2c3.5,0,5.2,2.2,5.2,4.8
				c0,2.4-1.4,5-5.2,5h-9.7c-2.8,0-5-1.5-5-5c0-2,1.2-3.3,2.2-3.6c-1.8-0.9-2.2-2.5-2.2-4.5v-4.1c0-3.1,3.9-2.9,3.9,0
				C180.8-2724.5,180.8-2722.1,180.8-2722.1z M180.5-2731.2c-4.3,0-6.9,2.6-6.9,6.9v10.9c0,4.3,3.5,7.9,7.9,7.9h10.2
				c4.3,0,7.9-3.5,7.9-7.9v-10c0-4.3-3.5-7.9-7.9-7.9L180.5-2731.2"/>
			<path id="path2252_10_" class="st0" d="M152.5-2717.6h-4.1c-0.5,0-0.9-0.4-0.9-1s0.3-0.7,0.9-0.9h0.1h6.2c0,0,0.4,0,0.7-0.3
				c0.3-0.3,0.3-0.9,0.3-0.9v-1.4c0,0,0-0.5-0.3-0.9c-0.3-0.3-0.7-0.3-0.7-0.3h-6.1c-1.3,0-2.5,0.4-3.4,1.2c-0.9,0.7-1.4,2-1.4,3.2
				c0,1.2,0.4,2.4,1.4,3.3c0.9,0.9,2,1.3,3.4,1.3h2.9h0.9c0,0,0,0,0.1,0c0.5,0,1,0.3,1,0.9c0,0.4-0.3,0.9-0.9,0.9
				c-0.1,0-0.1,0-0.1,0h-3.9c-0.4,0-3.2,0-3.2,0s-0.4,0-0.9,0.3c-0.3,0.3-0.3,0.7-0.3,0.7v1.5c0,0,0,0.5,0.3,0.9
				c0.3,0.3,0.7,0.2,0.7,0.2l0,0l0,0h0.3h6.7c2.7,0,4.7-1.8,4.7-4.3C157.2-2715.7,155.3-2717.6,152.5-2717.6"/>
			<path id="path2260_10_" class="st0" d="M153.5-2713.6L153.5-2713.6L153.5-2713.6L153.5-2713.6"/>
		</g>
		<path class="st0" d="M235.5-2765.9c-2.1,0.4-3.4,3.1-2.6,5.2c0.4,1,1.7,2,2.8,2.1c1.6,0.2,3.2-0.7,4-2.1c0.4-0.7,0.4-2.2,0.1-3.1
			C239.3-2765.4,237.4-2766.3,235.5-2765.9z M141.7-2757.8c-2.3,0.7-3.6,3.2-2.6,5.4c0.4,1,1.2,1.8,2,2.1l0.7,0.2v6.2
			c0,6.8,0.1,7.5,1.3,8.2c0.9,0.4,2.8,0.6,4.2,0.2l1.2-0.3l0.1-6.4c0.1-5.7,0.1-6.5,0.5-7.2c0.6-1,1.5-1.5,2.9-1.5
			c1.5,0,2.4,0.6,3.1,1.9c0.4,0.9,0.4,1.2,0.5,6.2c0,5.9,0.1,6.4,1.2,7.1c0.9,0.5,3.4,0.6,4.7,0.1l0.8-0.3l0.1-6.2
			c0.1-5.8,0.1-6.2,0.5-7c0.7-1.4,1.4-1.7,3.1-1.7c1.4,0,1.6,0.1,2.1,0.5c1.1,1,1.2,1.4,1.2,7.3c0,6.1,0.1,6.6,1.3,7.2
			c0.9,0.4,3.4,0.5,4.7,0.1l0.8-0.3v-7.2c0-7.6-0.1-8.6-1.2-10.3c-1.2-1.8-3.3-3.1-5.7-3.7c-0.7-0.1-2.1-0.1-3.4-0.1
			c-2.6,0.1-4,0.6-5.7,1.9l-1.2,0.9l-0.7-0.5c-1-0.9-2.9-1.8-4.2-2.1c-1.6-0.4-5.4-0.1-6.7,0.3c-0.9,0.4-1,0.4-1.5-0.1
			C144.6-2757.8,143-2758.2,141.7-2757.8z M213.9-2756.7c-5.6,1.5-8.9,6.6-8.1,12.3c0.8,5.5,4.4,8.6,10,8.6c2.3,0,3.5-0.4,5.2-1.4
			c0.6-0.4,1-0.7,1.1-0.7c0.2,0-0.1,2.2-0.5,3.1c-0.5,1.2-1.7,2.1-3.1,2.6c-2.1,0.7-6.4,0.1-9-1c-1-0.4-1-0.4-1.5-0.1
			c-0.7,0.6-1.5,2.3-1.5,3.1c0,0.4,0.1,0.9,0.4,1.2c1.2,1.7,9.2,3,13.2,2.1c4.4-1,7.5-4,8.5-8.4c0.4-2.1,0.4-12.1,0-14
			c-0.9-3.7-3.7-6.5-7.7-7.5C219.2-2757.1,216.7-2757.5,213.9-2756.7z M219.4-2750.5c3.6,1.6,3.7,6.9,0.1,8.6
			c-1,0.5-1.4,0.6-2.6,0.5c-1.2-0.1-1.6-0.2-2.4-0.7c-1.6-1.2-2.3-3.4-1.6-5.7c0.4-1.1,1.7-2.5,2.7-2.9
			C216.7-2751,218.4-2751,219.4-2750.5z M182.8-2756.4c-1,0.2-1.8,0.8-2,1.4c-0.4,0.9-0.2,12.5,0.1,13.8c1.1,4.1,4.8,6.4,10.3,6.4
			s9.2-2.4,10.3-6.4c0.2-0.9,0.3-2.8,0.3-8v-6.8l-0.8-0.3c-1.2-0.4-3.7-0.4-4.4,0.1c-1.2,0.7-1.3,0.8-1.4,7
			c-0.1,5.5-0.1,5.6-0.6,6.5c-0.7,1.2-1.6,1.7-3.4,1.7c-1.8,0-2.6-0.4-3.4-1.7c-0.5-0.9-0.5-1-0.6-6.9c0-3.2-0.1-6-0.1-6.2
			C187.2-2756.2,184.1-2756.7,182.8-2756.4z M235.4-2756.4c-1,0.2-1.6,0.7-1.9,1.3c-0.3,0.5-0.4,1.9-0.3,10l0.1,9.4l1.1,0.3
			c1.2,0.4,3.1,0.2,4-0.1c0.4-0.1,0.8-0.6,1-0.9c0.4-0.6,0.4-0.9,0.5-10l0.1-9.3l-0.7-0.3C238.3-2756.5,236.2-2756.6,235.4-2756.4z"
			/>
	</g>
	<rect x="116.5" y="-2806.6" class="st2" width="144" height="144"/>
</g>
<g>
	<g>
		<path class="st1" d="M225.5-3012.7h-68.9c-3.5,0-6.3-2.8-6.3-6.3v-43c0-3.5,2.8-6.3,6.3-6.3h68.9c3.5,0,6.3,2.8,6.3,6.3v43
			C231.8-3015.5,229-3012.7,225.5-3012.7z"/>
		<g>
			<path id="path2248_11_" class="st0" d="M178.3-3031.6c0,0-1.1,0-1.2,0c0,0-0.3,0-0.4,0.2c-0.1,0.1-0.1,0.4-0.1,0.4v5.7
				c0,0,0,0.3-0.2,0.6c-0.2,0.2-0.6,0.2-0.6,0.2h-1.7c-0.2,0-0.4-0.1-0.6-0.3c-0.2-0.2-0.2-0.5-0.2-0.5v-4v-1.8c0,0,0-0.3-0.1-0.4
				c-0.1-0.1-0.4-0.1-0.4-0.1h-1.2c0,0-0.3,0-0.5,0.2c-0.1,0.1-0.1,0.4-0.1,0.4v5.7c0,1.8,1.4,3.1,3.1,3.1h1.9
				c1.8,0,3.1-1.4,3.1-3.1v-5.7c0,0,0-0.2-0.2-0.4C178.6-3031.6,178.3-3031.6,178.3-3031.6"/>
			<path id="path2250_10_" class="st0" d="M185.2-3025.5c0,0.4,0.3,0.9,0.8,0.9h6.4c0.6,0,0.9-0.4,0.9-0.9c0-0.4-0.4-0.7-0.9-0.7
				H186C185.5-3026.2,185.2-3025.9,185.2-3025.5z M185.3-3031c0,0.7,0.3,1.2,0.7,1.7c0.4,0.4,1,0.7,1.7,0.7h4.8
				c2.3,0,3.5,1.5,3.5,3.2c0,1.6-0.9,3.3-3.5,3.3h-6.5c-1.9,0-3.3-1-3.3-3.3c0-1.4,0.8-2.2,1.5-2.4c-1.2-0.6-1.5-1.7-1.5-3v-2.7
				c0-2,2.6-1.9,2.6,0C185.3-3032.6,185.3-3031,185.3-3031z M185.2-3037.1c-2.9,0-4.6,1.8-4.6,4.6v7.2c0,2.9,2.3,5.2,5.2,5.2h6.8
				c2.9,0,5.2-2.3,5.2-5.2v-6.6c0-2.9-2.3-5.2-5.2-5.2L185.2-3037.1"/>
			<path id="path2252_11_" class="st0" d="M166.5-3028h-2.7c-0.4,0-0.6-0.3-0.6-0.7c0-0.4,0.2-0.5,0.6-0.6h0.1h4.1
				c0,0,0.3,0,0.5-0.2c0.2-0.2,0.2-0.6,0.2-0.6v-0.9c0,0,0-0.4-0.2-0.6c-0.2-0.2-0.5-0.2-0.5-0.2H164c-0.9,0-1.7,0.3-2.3,0.8
				c-0.6,0.5-0.9,1.3-0.9,2.1c0,0.8,0.3,1.6,0.9,2.2c0.6,0.6,1.4,0.9,2.3,0.9h1.9h0.6c0,0,0,0,0.1,0c0.4,0,0.7,0.2,0.7,0.6
				c0,0.3-0.2,0.6-0.6,0.6c-0.1,0-0.1,0-0.1,0H164c-0.3,0-2.1,0-2.1,0s-0.3,0-0.6,0.2c-0.2,0.2-0.2,0.5-0.2,0.5v1c0,0,0,0.4,0.2,0.6
				c0.2,0.2,0.5,0.1,0.5,0.1l0,0l0,0h0.2h4.5c1.8,0,3.1-1.2,3.1-2.9C169.7-3026.7,168.3-3028,166.5-3028"/>
			<path id="path2260_11_" class="st0" d="M167.2-3025.3L167.2-3025.3L167.2-3025.3L167.2-3025.3"/>
		</g>
		<path class="st0" d="M221.9-3060.2c-1.4,0.3-2.3,2.1-1.7,3.5c0.2,0.6,1.1,1.3,1.9,1.4c1.1,0.1,2.1-0.4,2.7-1.4
			c0.2-0.4,0.2-1.5,0-2.1C224.4-3059.8,223.1-3060.5,221.9-3060.2z M159.3-3054.8c-1.6,0.4-2.4,2.1-1.8,3.6c0.2,0.6,0.8,1.2,1.3,1.4
			l0.4,0.1v4.1c0,4.5,0.1,5,0.9,5.5c0.6,0.3,1.9,0.4,2.8,0.1l0.8-0.2l0.1-4.3c0-3.8,0.1-4.3,0.3-4.8c0.4-0.7,1-1,2-1
			c1,0,1.6,0.4,2.1,1.3c0.3,0.6,0.3,0.8,0.3,4.1c0,3.9,0.1,4.3,0.8,4.7c0.6,0.3,2.3,0.4,3.1,0.1l0.5-0.2l0-4.1c0-3.9,0-4.1,0.3-4.6
			c0.4-0.9,0.9-1.1,2.1-1.1c0.9,0,1.1,0,1.4,0.3c0.7,0.7,0.8,0.9,0.8,4.9c0,4.1,0,4.4,0.9,4.8c0.6,0.3,2.3,0.3,3.1,0.1l0.5-0.2v-4.8
			c0-5.1-0.1-5.8-0.8-6.8c-0.8-1.2-2.2-2.1-3.8-2.4c-0.4-0.1-1.4-0.1-2.3-0.1c-1.8,0.1-2.6,0.4-3.8,1.3l-0.8,0.6l-0.5-0.3
			c-0.7-0.6-1.9-1.2-2.8-1.4c-1.1-0.2-3.6-0.1-4.5,0.2c-0.6,0.2-0.6,0.2-1-0.1C161.2-3054.8,160.2-3055.1,159.3-3054.8z M207.5-3054
			c-3.8,1-6,4.4-5.4,8.2c0.5,3.7,2.9,5.7,6.6,5.8c1.5,0,2.3-0.2,3.5-0.9c0.4-0.2,0.7-0.4,0.7-0.4c0.1,0-0.1,1.5-0.3,2.1
			c-0.3,0.8-1.1,1.4-2.1,1.7c-1.4,0.4-4.3,0.1-6-0.7c-0.7-0.3-0.7-0.3-1,0c-0.4,0.4-1,1.5-1,2.1c0,0.2,0.1,0.6,0.2,0.8
			c0.8,1.1,6.1,2,8.8,1.4c2.9-0.6,5-2.6,5.7-5.6c0.2-1.4,0.2-8.1,0-9.3c-0.6-2.5-2.4-4.3-5.1-5C211-3054.3,209.3-3054.6,207.5-3054z
			 M211.1-3049.9c2.4,1.1,2.4,4.6,0.1,5.7c-0.7,0.3-0.9,0.4-1.8,0.3c-0.8,0-1.1-0.1-1.6-0.5c-1.1-0.8-1.5-2.3-1.1-3.8
			c0.2-0.7,1.1-1.7,1.8-1.9C209.3-3050.2,210.4-3050.2,211.1-3049.9z M186.7-3053.8c-0.6,0.1-1.2,0.5-1.3,0.9
			c-0.2,0.6-0.1,8.3,0,9.2c0.7,2.7,3.2,4.3,6.8,4.3s6.2-1.6,6.8-4.3c0.1-0.6,0.2-1.9,0.2-5.3v-4.5l-0.5-0.2c-0.8-0.2-2.4-0.2-2.9,0
			c-0.8,0.4-0.9,0.5-0.9,4.6c0,3.7,0,3.8-0.4,4.3c-0.4,0.8-1.1,1.1-2.3,1.1c-1.2,0-1.8-0.3-2.3-1.1c-0.3-0.6-0.3-0.6-0.4-4.6
			c0-2.1,0-4,0-4.1C189.6-3053.7,187.6-3054.1,186.7-3053.8z M221.8-3053.8c-0.7,0.1-1.1,0.4-1.3,0.9c-0.2,0.3-0.2,1.3-0.2,6.6
			l0,6.2l0.7,0.2c0.8,0.2,2.1,0.1,2.7-0.1c0.2-0.1,0.5-0.4,0.7-0.6c0.2-0.4,0.3-0.6,0.3-6.6l0-6.2l-0.4-0.2
			C223.7-3053.9,222.3-3054,221.8-3053.8z"/>
	</g>
	<rect x="142.5" y="-3087.3" class="st2" width="96" height="96"/>
</g>
<g>
	<g>
		<path class="st1" d="M213.2-3259.5h-48.5c-3.5,0-6.3-2.8-6.3-6.3v-29.1c0-3.5,2.8-6.3,6.3-6.3h48.5c3.5,0,6.3,2.8,6.3,6.3v29.1
			C219.5-3262.3,216.7-3259.5,213.2-3259.5z"/>
		<g>
			<path id="path2248_12_" class="st0" d="M179.3-3273.7c0,0-0.8,0-0.9,0c0,0-0.2,0-0.3,0.2c-0.1,0.1-0.1,0.3-0.1,0.3v4.2
				c0,0,0,0.2-0.2,0.4c-0.2,0.2-0.4,0.2-0.4,0.2h-1.3c-0.2,0-0.3-0.1-0.4-0.2c-0.2-0.2-0.2-0.4-0.2-0.4v-3v-1.4c0,0,0-0.2-0.1-0.3
				c-0.1-0.1-0.3-0.1-0.3-0.1h-0.9c0,0-0.2,0-0.4,0.2c-0.1,0.1-0.1,0.3-0.1,0.3v4.3c0,1.3,1,2.3,2.3,2.3h1.5c1.3,0,2.3-1,2.3-2.3
				v-4.3c0,0,0-0.2-0.2-0.3C179.5-3273.7,179.3-3273.7,179.3-3273.7"/>
			<path id="path2250_11_" class="st0" d="M184.5-3269.1c0,0.3,0.2,0.6,0.6,0.6h4.8c0.4,0,0.6-0.3,0.6-0.6c0-0.3-0.3-0.5-0.6-0.5
				h-4.7C184.7-3269.6,184.5-3269.4,184.5-3269.1z M184.6-3273.2c0,0.5,0.2,0.9,0.5,1.3c0.3,0.3,0.7,0.5,1.3,0.5h3.6
				c1.7,0,2.6,1.1,2.6,2.4c0,1.2-0.7,2.5-2.6,2.5h-4.9c-1.4,0-2.5-0.7-2.5-2.5c0-1,0.6-1.6,1.1-1.8c-0.9-0.4-1.1-1.3-1.1-2.3v-2
				c0-1.5,1.9-1.5,1.9,0C184.6-3274.4,184.6-3273.2,184.6-3273.2z M184.5-3277.8c-2.2,0-3.4,1.3-3.4,3.4v5.4c0,2.2,1.7,3.9,3.9,3.9
				h5.1c2.2,0,3.9-1.7,3.9-3.9v-5c0-2.2-1.7-3.9-3.9-3.9L184.5-3277.8"/>
			<path id="path2252_12_" class="st0" d="M170.5-3271h-2c-0.3,0-0.4-0.2-0.4-0.5c0-0.3,0.2-0.4,0.4-0.4h0.1h3.1c0,0,0.2,0,0.4-0.2
				c0.2-0.2,0.2-0.4,0.2-0.4v-0.7c0,0,0-0.3-0.2-0.4s-0.4-0.2-0.4-0.2h-3.1c-0.6,0-1.3,0.2-1.7,0.6c-0.4,0.4-0.7,1-0.7,1.6
				s0.2,1.2,0.7,1.6c0.4,0.4,1,0.6,1.7,0.6h1.5h0.4c0,0,0,0,0.1,0c0.3,0,0.5,0.2,0.5,0.4c0,0.2-0.2,0.4-0.4,0.4c-0.1,0-0.1,0-0.1,0
				h-1.9c-0.2,0-1.6,0-1.6,0s-0.2,0-0.4,0.2c-0.2,0.2-0.2,0.4-0.2,0.4v0.7c0,0,0,0.3,0.2,0.4c0.2,0.2,0.4,0.1,0.4,0.1l0,0l0,0h0.2
				h3.4c1.4,0,2.3-0.9,2.3-2.2C172.9-3270,171.9-3271,170.5-3271"/>
			<path id="path2260_12_" class="st0" d="M171-3269L171-3269L171-3269L171-3269"/>
		</g>
		<path class="st0" d="M212-3295.1c-1.1,0.2-1.7,1.5-1.3,2.6c0.2,0.5,0.8,1,1.4,1.1c0.8,0.1,1.6-0.3,2-1.1c0.2-0.3,0.2-1.1,0-1.5
			C213.9-3294.9,212.9-3295.3,212-3295.1z M165.1-3291.1c-1.2,0.3-1.8,1.6-1.3,2.7c0.2,0.5,0.6,0.9,1,1.1l0.3,0.1v3.1
			c0,3.4,0.1,3.8,0.7,4.1c0.4,0.2,1.4,0.3,2.1,0.1l0.6-0.1l0.1-3.2c0-2.9,0.1-3.3,0.3-3.6c0.3-0.5,0.7-0.8,1.5-0.8
			c0.7,0,1.2,0.3,1.6,1c0.2,0.4,0.2,0.6,0.3,3.1c0,2.9,0.1,3.2,0.6,3.6c0.4,0.3,1.7,0.3,2.3,0.1l0.4-0.1l0-3.1c0-2.9,0-3.1,0.3-3.5
			c0.3-0.7,0.7-0.8,1.6-0.8c0.7,0,0.8,0,1.1,0.3c0.5,0.5,0.6,0.7,0.6,3.7c0,3,0,3.3,0.7,3.6c0.4,0.2,1.7,0.3,2.3,0.1l0.4-0.1v-3.6
			c0-3.8-0.1-4.3-0.6-5.1c-0.6-0.9-1.6-1.6-2.9-1.8c-0.3-0.1-1.1-0.1-1.7-0.1c-1.3,0.1-2,0.3-2.9,1l-0.6,0.4l-0.4-0.3
			c-0.5-0.4-1.4-0.9-2.1-1.1c-0.8-0.2-2.7-0.1-3.4,0.1c-0.4,0.2-0.5,0.2-0.7-0.1C166.5-3291.1,165.7-3291.3,165.1-3291.1z
			 M201.2-3290.5c-2.8,0.7-4.5,3.3-4.1,6.2c0.4,2.7,2.2,4.3,5,4.3c1.1,0,1.8-0.2,2.6-0.7c0.3-0.2,0.5-0.3,0.5-0.3
			c0.1,0-0.1,1.1-0.3,1.5c-0.3,0.6-0.8,1.1-1.6,1.3c-1.1,0.3-3.2,0.1-4.5-0.5c-0.5-0.2-0.5-0.2-0.7,0c-0.3,0.3-0.7,1.1-0.7,1.5
			c0,0.2,0.1,0.4,0.2,0.6c0.6,0.8,4.6,1.5,6.6,1.1c2.2-0.5,3.7-2,4.2-4.2c0.2-1,0.2-6,0-7c-0.4-1.9-1.8-3.3-3.8-3.8
			C203.9-3290.7,202.6-3290.9,201.2-3290.5z M203.9-3287.4c1.8,0.8,1.8,3.4,0.1,4.3c-0.5,0.3-0.7,0.3-1.3,0.3
			c-0.6,0-0.8-0.1-1.2-0.4c-0.8-0.6-1.1-1.7-0.8-2.9c0.2-0.5,0.8-1.2,1.4-1.4C202.6-3287.7,203.5-3287.7,203.9-3287.4z
			 M185.7-3290.4c-0.5,0.1-0.9,0.4-1,0.7c-0.2,0.4-0.1,6.3,0,6.9c0.5,2.1,2.4,3.2,5.1,3.2s4.6-1.2,5.1-3.2c0.1-0.4,0.1-1.4,0.1-4
			v-3.4l-0.4-0.1c-0.6-0.2-1.8-0.2-2.2,0c-0.6,0.3-0.7,0.4-0.7,3.5c0,2.7,0,2.8-0.3,3.3c-0.3,0.6-0.8,0.8-1.7,0.8
			c-0.9,0-1.3-0.2-1.7-0.8c-0.3-0.4-0.3-0.5-0.3-3.4c0-1.6,0-3,0-3.1C187.9-3290.3,186.3-3290.6,185.7-3290.4z M211.9-3290.4
			c-0.5,0.1-0.8,0.3-1,0.7c-0.1,0.3-0.2,1-0.1,5l0,4.7l0.5,0.1c0.6,0.2,1.6,0.1,2-0.1c0.2-0.1,0.4-0.3,0.5-0.4
			c0.2-0.3,0.2-0.4,0.3-5l0-4.6l-0.3-0.1C213.4-3290.4,212.3-3290.5,211.9-3290.4z"/>
	</g>
	<rect x="152.5" y="-3315.5" class="st2" width="72" height="72"/>
</g>
<g>
	<g>
		<path class="st1" d="M203.8-3461.2H162c-3.5,0-6.3-2.8-6.3-6.3v-24.5c0-3.5,2.8-6.3,6.3-6.3h41.8c3.5,0,6.3,2.8,6.3,6.3v24.5
			C210-3464,207.2-3461.2,203.8-3461.2z"/>
		<g>
			<path id="path2248_13_" class="st0" d="M174.4-3473.9c0,0-0.7,0-0.8,0c0,0-0.2,0-0.3,0.2c-0.1,0.1-0.1,0.3-0.1,0.3v3.8
				c0,0,0,0.2-0.2,0.4c-0.2,0.2-0.4,0.2-0.4,0.2h-1.1c-0.2,0-0.3-0.1-0.4-0.2c-0.2-0.2-0.2-0.3-0.2-0.3v-2.7v-1.2c0,0,0-0.2-0.1-0.3
				c-0.1-0.1-0.3-0.1-0.3-0.1h-0.8c0,0-0.2,0-0.3,0.2c-0.1,0.1-0.1,0.3-0.1,0.3v3.8c0,1.2,0.9,2.1,2.1,2.1h1.3
				c1.2,0,2.1-0.9,2.1-2.1v-3.8c0,0,0-0.2-0.2-0.3C174.5-3473.9,174.4-3473.9,174.4-3473.9"/>
			<path id="path2250_16_" class="st0" d="M178.9-3469.8c0,0.3,0.2,0.6,0.5,0.6h4.3c0.4,0,0.6-0.2,0.6-0.6c0-0.3-0.2-0.5-0.6-0.5
				h-4.2C179.2-3470.3,178.9-3470,178.9-3469.8z M179.1-3473.4c0,0.5,0.2,0.8,0.5,1.1c0.3,0.3,0.7,0.5,1.1,0.5h3.2
				c1.5,0,2.3,1,2.3,2.1c0,1.1-0.6,2.2-2.3,2.2h-4.3c-1.3,0-2.2-0.7-2.2-2.2c0-0.9,0.5-1.4,1-1.6c-0.8-0.4-1-1.1-1-2v-1.8
				c0-1.4,1.7-1.3,1.7,0C179.1-3474.5,179.1-3473.4,179.1-3473.4z M178.9-3477.5c-1.9,0-3,1.2-3,3v4.8c0,1.9,1.5,3.5,3.5,3.5h4.5
				c1.9,0,3.5-1.5,3.5-3.5v-4.4c0-1.9-1.5-3.5-3.5-3.5L178.9-3477.5"/>
			<path id="path2252_13_" class="st0" d="M166.5-3471.4h-1.8c-0.2,0-0.4-0.2-0.4-0.5s0.2-0.3,0.4-0.4h0.1h2.7c0,0,0.2,0,0.3-0.2
				c0.2-0.2,0.2-0.4,0.2-0.4v-0.6c0,0,0-0.2-0.2-0.4c-0.2-0.2-0.3-0.2-0.3-0.2h-2.7c-0.6,0-1.1,0.2-1.5,0.5
				c-0.4,0.3-0.6,0.9-0.6,1.4c0,0.5,0.2,1.1,0.6,1.4c0.4,0.4,0.9,0.6,1.5,0.6h1.3h0.4c0,0,0,0,0.1,0c0.2,0,0.5,0.2,0.5,0.4
				c0,0.2-0.2,0.4-0.4,0.4c-0.1,0-0.1,0-0.1,0h-1.7c-0.2,0-1.4,0-1.4,0s-0.2,0-0.4,0.2c-0.2,0.2-0.2,0.3-0.2,0.3v0.7
				c0,0,0,0.2,0.2,0.4c0.2,0.2,0.3,0.1,0.3,0.1l0,0l0,0h0.2h3c1.2,0,2.1-0.8,2.1-1.9C168.6-3470.6,167.7-3471.4,166.5-3471.4"/>
			<path id="path2260_16_" class="st0" d="M166.9-3469.6L166.9-3469.6L166.9-3469.6L166.9-3469.6"/>
		</g>
		<path class="st0" d="M203.4-3492.9c-0.9,0.2-1.5,1.4-1.1,2.3c0.2,0.4,0.7,0.9,1.2,0.9c0.7,0.1,1.4-0.3,1.8-0.9
			c0.2-0.3,0.2-1,0-1.4C205.1-3492.7,204.2-3493.1,203.4-3492.9z M161.7-3489.3c-1,0.3-1.6,1.4-1.2,2.4c0.2,0.4,0.5,0.8,0.9,0.9
			l0.3,0.1v2.8c0,3,0.1,3.4,0.6,3.6c0.4,0.2,1.2,0.3,1.9,0.1l0.5-0.1l0.1-2.9c0-2.5,0.1-2.9,0.2-3.2c0.3-0.5,0.7-0.7,1.3-0.7
			c0.7,0,1.1,0.3,1.4,0.8c0.2,0.4,0.2,0.5,0.2,2.7c0,2.6,0.1,2.9,0.6,3.2c0.4,0.2,1.5,0.3,2.1,0.1l0.4-0.1l0-2.8
			c0-2.6,0-2.8,0.2-3.1c0.3-0.6,0.6-0.7,1.4-0.7c0.6,0,0.7,0,0.9,0.2c0.5,0.5,0.5,0.6,0.5,3.3c0,2.7,0,2.9,0.6,3.2
			c0.4,0.2,1.5,0.2,2.1,0.1l0.4-0.1v-3.2c0-3.4-0.1-3.8-0.5-4.6c-0.5-0.8-1.5-1.4-2.5-1.6c-0.3-0.1-0.9-0.1-1.5-0.1
			c-1.2,0.1-1.8,0.3-2.5,0.8l-0.5,0.4l-0.3-0.2c-0.5-0.4-1.3-0.8-1.9-0.9c-0.7-0.2-2.4-0.1-3,0.1c-0.4,0.2-0.4,0.2-0.7-0.1
			C163-3489.3,162.3-3489.5,161.7-3489.3z M193.8-3488.8c-2.5,0.7-4,2.9-3.6,5.5c0.4,2.4,2,3.8,4.4,3.8c1,0,1.6-0.2,2.3-0.6
			c0.3-0.2,0.5-0.3,0.5-0.3c0.1,0-0.1,1-0.2,1.4c-0.2,0.5-0.7,0.9-1.4,1.1c-0.9,0.3-2.9,0.1-4-0.5c-0.5-0.2-0.5-0.2-0.7,0
			c-0.3,0.3-0.7,1-0.7,1.4c0,0.2,0.1,0.4,0.2,0.5c0.5,0.7,4.1,1.3,5.9,0.9c2-0.4,3.3-1.8,3.8-3.7c0.2-0.9,0.2-5.4,0-6.2
			c-0.4-1.7-1.6-2.9-3.4-3.4C196.1-3489,195-3489.2,193.8-3488.8z M196.2-3486c1.6,0.7,1.6,3.1,0.1,3.8c-0.5,0.2-0.6,0.3-1.2,0.2
			c-0.5,0-0.7-0.1-1.1-0.3c-0.7-0.5-1-1.5-0.7-2.5c0.2-0.5,0.7-1.1,1.2-1.3C195-3486.3,195.8-3486.3,196.2-3486z M180-3488.7
			c-0.4,0.1-0.8,0.4-0.9,0.6c-0.2,0.4-0.1,5.6,0,6.1c0.5,1.8,2.1,2.9,4.6,2.9c2.4,0,4.1-1.1,4.6-2.9c0.1-0.4,0.1-1.2,0.1-3.5v-3
			l-0.4-0.1c-0.5-0.2-1.6-0.2-2,0c-0.6,0.3-0.6,0.4-0.6,3.1c0,2.4,0,2.5-0.3,2.9c-0.3,0.6-0.7,0.7-1.5,0.7c-0.8,0-1.2-0.2-1.5-0.7
			c-0.2-0.4-0.2-0.4-0.3-3.1c0-1.4,0-2.7,0-2.8C181.9-3488.6,180.6-3488.8,180-3488.7z M203.3-3488.7c-0.5,0.1-0.7,0.3-0.8,0.6
			c-0.1,0.2-0.2,0.8-0.1,4.4l0,4.2l0.5,0.1c0.5,0.2,1.4,0.1,1.8-0.1c0.2-0.1,0.4-0.3,0.5-0.4c0.2-0.3,0.2-0.4,0.2-4.4l0-4.1
			l-0.3-0.1C204.6-3488.7,203.7-3488.8,203.3-3488.7z"/>
	</g>
	<rect x="150.5" y="-3511" class="st2" width="64" height="64"/>
</g>
<g>
	<path class="st3" d="M186.4-4110.2h-7.8c-1.6,0-2.9-1.3-2.9-2.9v-7.8c0-1.6,1.3-2.9,2.9-2.9h7.8c1.6,0,2.9,1.3,2.9,2.9v7.8
		C189.3-4111.5,188-4110.2,186.4-4110.2z"/>
	<path id="path2250_15_" class="st0" d="M178.8-4114.2c0,0.4,0.2,0.8,0.7,0.8h5.8c0.5,0,0.8-0.3,0.8-0.8c0-0.4-0.3-0.7-0.8-0.7h-5.8
		C179.1-4114.8,178.8-4114.5,178.8-4114.2z M179-4119.2c0,0.6,0.2,1.1,0.7,1.5c0.4,0.4,0.9,0.6,1.5,0.6h4.4c2.1,0,3.2,1.4,3.2,2.9
		c0,1.5-0.9,3.1-3.2,3.1h-5.9c-1.7,0-3.1-0.9-3.1-3.1c0-1.2,0.7-2,1.4-2.2c-1.1-0.5-1.4-1.5-1.4-2.8v-2.5c0-1.9,2.4-1.8,2.4,0
		C179-4120.6,179-4119.2,179-4119.2z M178.8-4124.7c-2.6,0-4.2,1.6-4.2,4.2v6.6c0,2.6,2.1,4.8,4.8,4.8h6.2c2.6,0,4.8-2.1,4.8-4.8
		v-6.1c0-2.6-2.1-4.8-4.8-4.8L178.8-4124.7"/>
</g>
<path id="path2260_15_" class="st0" d="M178.6-4114.7L178.6-4114.7L178.6-4114.7L178.6-4114.7"/>
<g>
	<path class="st3" d="M194.6-3923.7h-24.5c-1.6,0-2.9-1.3-2.9-2.9v-24.7c0-1.6,1.3-2.9,2.9-2.9h24.5c1.6,0,2.9,1.3,2.9,2.9v24.7
		C197.6-3925,196.2-3923.7,194.6-3923.7z"/>
	<path id="path2250_14_" class="st0" d="M174.3-3932.7c0,0.8,0.5,1.8,1.6,1.8h12.9c1.2,0,1.7-0.7,1.7-1.8c0-0.8-0.7-1.5-1.7-1.5H176
		C174.9-3934.2,174.3-3933.5,174.3-3932.7z M174.6-3943.8c0,1.4,0.5,2.5,1.5,3.4c0.8,0.8,2,1.4,3.4,1.4h9.7c4.7,0,7.1,3,7.1,6.6
		c0,3.3-1.9,6.8-7.1,6.8h-13.1c-3.8,0-6.8-2-6.8-6.8c0-2.8,1.6-4.4,3-4.9c-2.4-1.2-3-3.4-3-6.2v-5.5c0-4.2,5.2-4,5.2,0
		C174.6-3947.2,174.6-3943.8,174.6-3943.8z M174.3-3956.3c-5.9,0-9.3,3.6-9.3,9.3v14.8c0,5.9,4.7,10.7,10.6,10.7h13.7
		c5.9,0,10.6-4.7,10.6-10.7v-13.6c0-5.9-4.7-10.7-10.6-10.7L174.3-3956.3"/>
</g>
<path id="path2260_14_" class="st0" d="M178.6-3936.7L178.6-3936.7L178.6-3936.7L178.6-3936.7"/>
<g>
	<path class="st3" d="M199.8-3678.7h-34.9c-1.6,0-2.9-1.3-2.9-2.9v-35.2c0-1.6,1.3-2.9,2.9-2.9h34.9c1.6,0,2.9,1.3,2.9,2.9v35.2
		C202.7-3680,201.4-3678.7,199.8-3678.7z"/>
	<path id="path2250_13_" class="st0" d="M171.4-3690.7c0,1.1,0.7,2.4,2.2,2.4H191c1.6,0,2.3-1,2.3-2.4c0-1.1-1-2-2.3-2h-17.2
		C172.3-3692.7,171.4-3691.8,171.4-3690.7z M171.9-3705.7c0,1.9,0.7,3.3,2,4.6c1.1,1.1,2.7,1.9,4.6,1.9h13c6.3,0,9.5,4.1,9.5,8.8
		c0,4.5-2.6,9.2-9.5,9.2h-17.6c-5.2,0-9.1-2.7-9.1-9.2c0-3.7,2.2-6,4.1-6.6c-3.2-1.6-4.1-4.6-4.1-8.3v-7.4c0-5.6,7-5.3,7,0
		C171.9-3710.2,171.9-3705.7,171.9-3705.7z M171.4-3722.4c-7.9,0-12.4,4.8-12.4,12.5v19.8c0,7.9,6.3,14.4,14.3,14.4h18.5
		c7.9,0,14.3-6.3,14.3-14.4v-18.2c0-7.9-6.3-14.4-14.3-14.4L171.4-3722.4"/>
</g>
<path id="path2260_13_" class="st0" d="M178.6-3696.8L178.6-3696.8L178.6-3696.8L178.6-3696.8"/>
<g>
	<g>
		<path class="st1" d="M466.4-759.9H44.9c-3.5,0-6.3-2.8-6.3-6.3v-283.5c0-3.5,2.8-6.3,6.3-6.3h421.5c3.5,0,6.3,2.8,6.3,6.3v283.5
			C472.7-762.7,469.9-759.9,466.4-759.9z"/>
		<g>
			<path id="path2248_6_" class="st0" d="M187.4-861.1c0,0-5.8,0-6.3,0c0,0-1.4,0-2.2,1.2c-0.7,0.7-0.7,2.2-0.7,2.2v30.2
				c0,0,0,1.4-1.2,3.1c-1.2,1.2-3.1,1.2-3.1,1.2H165c-1.2,0-2.2-0.5-3.1-1.4c-1.2-1.2-1.2-2.7-1.2-2.7v-21.2v-9.6c0,0,0-1.4-0.7-2.2
				c-0.7-0.7-2.2-0.7-2.2-0.7h-6.3c0,0-1.4,0-2.7,1.2c-0.7,0.7-0.7,2.2-0.7,2.2v30.4c0,9.4,7.2,16.6,16.6,16.6h10.4
				c9.4,0,16.6-7.2,16.6-16.6v-30.6c0,0,0-1.2-1.2-2.2C188.8-861.1,187.4-861.1,187.4-861.1"/>
			<path id="path2250_5_" class="st0" d="M224.1-828.3c0,2.2,1.4,4.6,4.3,4.6h34c3.1,0,4.6-1.9,4.6-4.6c0-2.2-1.9-3.9-4.6-3.9h-33.8
				C225.7-832.1,224.1-830.4,224.1-828.3z M225-857.5c0,3.6,1.4,6.5,3.9,8.9c2.2,2.2,5.3,3.6,8.9,3.6h25.6c12.3,0,18.6,8,18.6,17.1
				c0,8.7-5.1,17.9-18.6,17.9h-34.5c-10.1,0-17.9-5.3-17.9-17.9c0-7.2,4.3-11.6,8-12.8c-6.3-3.1-8-8.9-8-16.2v-14.5
				c0-10.9,13.8-10.4,13.8,0C225-866.2,225-857.5,225-857.5z M224.1-890c-15.4,0-24.4,9.4-24.4,24.4v38.6c0,15.4,12.3,28,28,28h36.2
				c15.4,0,28-12.3,28-28v-35.5c0-15.4-12.3-28-28-28L224.1-890"/>
			<path id="path2252_6_" class="st0" d="M124.7-841.5h-14.5c-1.9,0-3.1-1.4-3.1-3.6c0-2.2,1.2-2.7,3.1-3.1h0.5h22
				c0,0,1.4,0,2.7-1.2c1.2-1.2,1.2-3.1,1.2-3.1v-5.1c0,0,0-1.9-1.2-3.1s-2.7-1.2-2.7-1.2h-21.7c-4.6,0-8.9,1.4-12.1,4.3
				c-3.1,2.7-5.1,7-5.1,11.3s1.4,8.7,5.1,11.6c3.1,3.1,7.2,4.6,12.1,4.6h10.4h3.1c0,0,0,0,0.5,0c1.9,0,3.6,1.2,3.6,3.1
				c0,1.4-1.2,3.1-3.1,3.1c-0.5,0-0.5,0-0.5,0h-13.8c-1.4,0-11.3,0-11.3,0s-1.4,0-3.1,1.2c-1.2,1.2-1.2,2.7-1.2,2.7v5.3
				c0,0,0,1.9,1.2,3.1c1.2,1.2,2.7,0.7,2.7,0.7l0,0l0,0h1.2h23.9c9.6,0,16.6-6.5,16.6-15.4C141.3-834.8,134.3-841.5,124.7-841.5"/>
			<path id="path2260_5_" class="st0" d="M128-827.3L128-827.3L128-827.3L128-827.3"/>
		</g>
		<path class="st0" d="M419.7-1013.3c-7.5,1.6-12.2,10.9-9.1,18.5c1.3,3.4,6,7,9.9,7.5c5.7,0.8,11.5-2.3,14.3-7.5
			c1.3-2.3,1.3-7.8,0.3-10.9C433.3-1011.5,426.2-1014.9,419.7-1013.3z M86-984.7c-8.3,2.3-12.8,11.5-9.4,19.3c1.3,3.4,4.2,6.5,7,7.5
			l2.3,0.8v22.1c0,24.2,0.5,26.8,4.7,29.2c3.1,1.6,9.9,2.1,14.8,0.8l4.2-1l0.5-22.9c0.3-20.3,0.5-23.2,1.8-25.5
			c2.1-3.6,5.2-5.5,10.4-5.5s8.6,2.1,11.2,6.8c1.6,3.1,1.6,4.2,1.8,21.9c0,20.8,0.5,22.9,4.4,25.3c3.1,1.8,12.2,2.1,16.7,0.5l2.9-1
			l0.3-22.1c0.3-20.6,0.3-22.1,1.8-24.7c2.3-4.9,4.9-6,11.2-6c4.9,0,5.7,0.3,7.5,1.8c3.9,3.6,4.2,4.9,4.2,26
			c0,21.6,0.3,23.4,4.7,25.8c3.1,1.6,12.2,1.8,16.7,0.5l2.9-1v-25.5c0-27.1-0.5-30.7-4.2-36.4c-4.2-6.2-11.7-11.2-20.3-13
			c-2.3-0.5-7.5-0.5-12.2-0.5c-9.4,0.5-14.1,2.1-20.3,6.8l-4.2,3.1l-2.6-1.8c-3.6-3.1-10.2-6.2-15.1-7.5c-5.7-1.3-19.3-0.5-24,1
			c-3.1,1.3-3.4,1.3-5.2-0.5C96.4-984.4,90.7-986,86-984.7z M342.9-980.5c-20,5.2-31.8,23.4-28.9,43.7c2.9,19.5,15.6,30.5,35.4,30.7
			c8.1,0,12.5-1.3,18.5-4.9c2.1-1.3,3.6-2.3,3.9-2.3c0.8,0-0.5,7.8-1.8,10.9c-1.8,4.2-6,7.5-11.2,9.1c-7.5,2.3-22.9,0.5-32-3.6
			c-3.6-1.6-3.6-1.6-5.2-0.3c-2.3,2.1-5.2,8.1-5.2,10.9c0,1.3,0.5,3.1,1.3,4.2c4.2,6,32.5,10.7,46.9,7.5
			c15.6-3.4,26.6-14.1,30.2-29.9c1.3-7.3,1.3-43,0-49.7c-3.1-13.3-13-23.2-27.3-26.8C361.7-982.1,352.7-983.6,342.9-980.5z
			 M362.2-958.4c12.8,5.7,13,24.5,0.5,30.5c-3.6,1.8-4.9,2.1-9.4,1.8c-4.2-0.3-5.7-0.8-8.6-2.6c-5.7-4.2-8.1-12.2-5.7-20.3
			c1.3-3.9,6-8.9,9.6-10.2C352.8-960.2,358.8-960.2,362.2-958.4z M232.3-979.5c-3.4,0.8-6.2,2.9-7,4.9c-1.3,3.1-0.8,44.5,0.3,48.9
			c3.9,14.6,17.2,22.9,36.4,22.9c19.3,0,32.8-8.6,36.4-22.9c0.8-3.1,1-9.9,1-28.4v-24.2l-2.9-1c-4.2-1.3-13-1.3-15.6,0.3
			c-4.4,2.3-4.7,2.9-4.9,24.7c-0.3,19.5-0.3,20-2.1,23.2c-2.3,4.4-5.7,6-12.2,6c-6.2,0-9.4-1.6-12.2-6c-1.8-3.1-1.8-3.4-2.1-24.5
			c0-11.5-0.3-21.3-0.3-22.1C247.9-979,237-980.8,232.3-979.5z M419.2-979.5c-3.6,0.8-5.7,2.3-6.8,4.7c-1,1.8-1.3,6.8-1,35.4
			l0.3,33.3l3.9,1c4.2,1.3,11.2,0.8,14.3-0.5c1.3-0.5,2.9-2.1,3.6-3.1c1.3-2.1,1.6-3.1,1.8-35.4l0.3-33.1l-2.3-1
			C429.6-979.7,422.1-980.3,419.2-979.5z"/>
	</g>
	<rect x="-3.5" y="-1158" class="st2" width="512" height="512"/>
</g>
<g>
	<path class="st0" d="M1340.3,10.9c3.3,3,5.9,5.6,5.9,5.6c0,0-0.5,0.6-1,1.2c-0.6,0.6-1.4,1.8-1.9,2.5c-0.5,0.8-1,1.4-1,1.4
		c-0.1,0-1.4-1.2-2.9-2.7c-2.3-2.2-2.9-2.9-3.4-4c-0.8-1.7-0.9-3.2-0.5-5.2l0.3-1.5l-0.7-0.6c-0.4-0.3-0.7-0.6-0.8-0.6
		c-0.3,0-1,2.5-1.1,3.7c-0.1,1.6,0.3,3.6,1.1,5.1c0.6,1.1,1.7,2.2,5.8,6.1c1.3,1.2,1.3,1.3,1.1,1.8l-0.2,0.6l-1.8-1.6
		c-4.4-4-5.9-5.6-6.5-6.9c-1.1-2.3-1.3-4.9-0.5-7.2c0.3-0.9,1.8-3.4,2-3.4C1334.4,5.3,1337.1,7.8,1340.3,10.9z"/>
	<path class="st0" d="M1394.3,6.4c2,2.9,2.2,6.5,0.7,9.6c-0.6,1.3-2,2.7-6.2,6.6l-2,1.9l-0.2-0.6c-0.2-0.5-0.1-0.7,3.1-3.8
		c3.7-3.6,4.2-4.3,4.7-6.8c0.4-1.9,0-4.8-0.8-5.9c-0.3-0.4-0.3-0.3-1,0.3l-0.7,0.6l0.3,0.8c0.2,0.5,0.3,1.5,0.3,2.6
		c0,1.6,0,1.9-0.7,3.2c-0.6,1.2-1.1,1.8-3.5,4.1c-1.5,1.5-2.8,2.7-2.9,2.7c-0.1,0-0.6-0.7-1.1-1.5c-0.6-0.8-1.4-2-1.9-2.5
		c-0.5-0.6-0.9-1.1-0.9-1.2c0-0.2,11.6-11.1,11.9-11.1C1393.5,5.3,1393.9,5.8,1394.3,6.4z"/>
	<path class="st0" d="M1368.1,13.1c6.2,1.3,11.6,5.5,14.4,11.2c0.5,1,0.9,1.9,0.9,2c0,0.5-7,2.3-11.3,3c-3.4,0.5-12.8,0.5-16.2,0
		c-4.5-0.7-11.3-2.5-11.3-3c0-0.1,0.4-1,0.9-2c2.8-5.7,8.1-9.9,14.3-11.2C1361.5,12.7,1366.2,12.7,1368.1,13.1z"/>
	<path class="st0" d="M1344.8,31.5l1,0.3l0.1,3.2l0.1,3.2l-1-0.1c-0.6-0.1-1.1-0.1-1.1-0.2c-0.5-0.5-0.7-7-0.2-6.8
		C1343.6,31.1,1344.2,31.3,1344.8,31.5z"/>
	<path class="st0" d="M1384.5,33.3c0,2.1-0.2,4.3-0.5,4.5c-0.1,0.1-0.6,0.1-1.1,0.2l-1,0.1l0-3.1l0-3.1l1.1-0.4
		c0.6-0.2,1.2-0.4,1.3-0.4C1384.4,31,1384.5,32,1384.5,33.3z"/>
	<path class="st0" d="M1350.4,32.8l2.3,0.5l0.1,2.8l0.1,2.8l-1.4-0.1c-0.8-0.1-1.9-0.2-2.5-0.3l-1.1-0.1l-0.1-3c0-2.3,0-3,0.2-3
		C1348,32.4,1349.1,32.6,1350.4,32.8z"/>
	<path class="st0" d="M1380.1,35.4l-0.1,3l-1.1,0.1c-0.6,0.1-1.7,0.2-2.5,0.3l-1.4,0.1l0.1-2.8l0.1-2.8l2.1-0.4
		c1.1-0.2,2.3-0.4,2.5-0.5l0.5,0L1380.1,35.4z"/>
	<path class="st0" d="M1334.9,34.7c-0.4,0.7-0.7,1.2-0.8,1.2c-0.1,0-1.3-2.1-1.3-2.3c0-0.1,0.6-0.1,1.4-0.1h1.4L1334.9,34.7z"/>
	<path class="st0" d="M1338.9,33.6c0,0.2-1,2.1-1.2,2.2c-0.2,0.1-1.4-1.8-1.4-2.1c0-0.1,0.6-0.1,1.3-0.1
		C1338.4,33.5,1338.9,33.6,1338.9,33.6z"/>
	<path class="st0" d="M1357.9,33.9l1.7,0.1v2.5v2.5l-2.3,0c-1.3,0-2.4-0.1-2.5-0.1c-0.1-0.1-0.2-1.3-0.2-2.8v-2.7l0.8,0.1
		C1355.8,33.7,1356.9,33.8,1357.9,33.9z"/>
	<path class="st0" d="M1373.3,36.2c0,1.5-0.1,2.7-0.2,2.8c-0.1,0.1-1.2,0.1-2.5,0.1l-2.3,0l-0.1-2.5c0-1.9,0-2.5,0.2-2.6
		c0.2-0.1,1.2-0.2,4.6-0.5C1373.2,33.5,1373.3,33.8,1373.3,36.2z"/>
	<path class="st0" d="M1396.1,34.4c-0.3,1.9-2,3.8-3.8,4.3c-1.1,0.3-4.4,0.3-4.3-0.1c0.1-0.2,0.7-0.3,1.9-0.4c2.6-0.2,4-0.9,5-2.5
		c0.7-1.1,0.7-1.6,0.1-1.6c-0.4,0-0.6,0.2-0.9,0.7c-0.8,1.5-2,2.2-4.3,2.4l-1.5,0.1l0.1-1.2c0.1-0.7,0.1-1.5,0.1-1.9v-0.7h3.9h3.9
		L1396.1,34.4z"/>
	<polygon class="st0" points="1366.3,36.7 1366.3,39.3 1363.9,39.3 1361.4,39.3 1361.4,36.7 1361.4,34.1 1363.9,34.1 1366.3,34.1 	
		"/>
	<path class="st0" d="M1335.1,37.7l0.5,0.9h-1.4c-0.8,0-1.4-0.1-1.3-0.2c0-0.1,0.3-0.6,0.6-1.2C1334.1,36.2,1334.2,36.2,1335.1,37.7
		z"/>
	<path class="st0" d="M1338.3,37.4c0.3,0.6,0.6,1.1,0.6,1.2c0,0.1-0.6,0.1-1.3,0.1c-0.7,0-1.3,0-1.3-0.1c0-0.1,1.2-2.3,1.3-2.3
		C1337.7,36.3,1338,36.8,1338.3,37.4z"/>
	<path class="st0" d="M1345.8,40c0.1,0.1,0.1,3.5,0,3.5c-0.2,0-1.3-2.5-1.5-3.2c-0.1-0.5-0.1-0.5,0.7-0.4
		C1345.4,39.9,1345.7,39.9,1345.8,40z"/>
	<path class="st0" d="M1383.5,39.9c0,0.3-1.4,3.5-1.6,3.5c-0.1,0-0.1-0.8-0.1-1.7l0-1.7l0.7-0.1c0.4-0.1,0.7-0.1,0.8-0.2
		C1383.5,39.7,1383.5,39.8,1383.5,39.9z"/>
	<path class="st0" d="M1351.1,40.4l1.6,0.1V44v3.5l-1.7,0.3l-1.7,0.3l-0.8-0.9l-0.8-0.9l0-3.1V40l0.9,0.1
		C1349.1,40.2,1350.2,40.3,1351.1,40.4z"/>
	<path class="st0" d="M1380.2,43.2l0,3.1l-0.8,0.9l-0.8,0.9l-1.7-0.3l-1.7-0.3V44v-3.5l1.4-0.1c0.8-0.1,1.7-0.2,2.1-0.2
		C1380.4,40,1380.2,39.7,1380.2,43.2z"/>
	<path class="st0" d="M1359.6,43.7l0.1,3l-1.4,0.1c-0.8,0.1-2,0.2-2.6,0.3l-1.1,0.1v-3.3v-3.3l2.5,0.1l2.5,0.1L1359.6,43.7z"/>
	<path class="st0" d="M1373.3,43.9c0,2.9,0,3.3-0.3,3.3c-0.2,0-1.3-0.1-2.6-0.2l-2.2-0.2v-2.9c0-1.6,0.1-3,0.1-3
		c0.1-0.1,1.2-0.1,2.6-0.1h2.4V43.9z"/>
	<polygon class="st0" points="1366.3,43.7 1366.3,46.7 1363.9,46.7 1361.4,46.7 1361.4,43.7 1361.4,40.8 1363.9,40.8 1366.3,40.8 	
		"/>
	<path class="st0" d="M1342.9,49.4l1.5,1.6l0.5-0.4l0.5-0.5l0.8,0.8c0.8,0.8,3.4,3,3.9,3.3c0.3,0.2,0.2,0.3-0.4,0.9l-0.8,0.7
		l0.6,0.6l0.6,0.6l1-0.8c0.9-0.7,1-0.8,1.5-0.6l0.5,0.2l-1,1.1l-1,1.1l1.5,1.6c1.1,1.2,1.4,1.7,1.3,1.9c-0.1,0.1-1.1,1.1-2.2,2.1
		l-2,1.8l-1.5-1.7l-1.5-1.7l-0.6,0.5c-0.3,0.3-2.2,2-4.1,3.8l-3.6,3.3l-0.4-0.5c-0.2-0.3-1.7-1.8-3.2-3.5l-2.8-3l1.5-1.5
		c0.8-0.8,2.7-2.5,4.1-3.8c1.4-1.3,2.5-2.4,2.5-2.4c0-0.1-0.7-0.8-1.5-1.7c-0.8-0.9-1.5-1.6-1.4-1.7c0.1-0.2,4.2-4,4.3-4
		C1341.3,47.7,1342.1,48.5,1342.9,49.4z"/>
	<path class="st0" d="M1388.7,49.7c1.1,1,2.1,1.9,2.1,2c0,0.1-0.7,0.8-1.5,1.7s-1.5,1.6-1.5,1.7c0,0,1.2,1.2,2.6,2.5
		c1.4,1.3,3.3,3,4,3.8l1.4,1.4l-2.8,3c-1.5,1.7-3,3.2-3.2,3.5l-0.4,0.5l-3.4-3.2c-1.9-1.8-3.7-3.5-4.1-3.8l-0.7-0.6l-1.5,1.7
		l-1.5,1.7l-1.8-1.6c-1-0.9-2-1.8-2.2-2.1l-0.4-0.5l1.5-1.6l1.5-1.6l-1-1.1l-1-1.1l0.5-0.2c0.5-0.2,0.6-0.2,1.5,0.6l0.9,0.8l0.6-0.6
		l0.6-0.6l-0.8-0.7c-0.7-0.6-0.7-0.7-0.4-0.9c0.7-0.4,3.2-2.5,3.9-3.3l0.7-0.8l0.5,0.5l0.5,0.5l1.5-1.6c0.8-0.9,1.6-1.6,1.7-1.6
		C1386.6,47.8,1387.6,48.7,1388.7,49.7z"/>
	<path class="st0" d="M1371.1,51.3c1,0.1,2,0.3,2.2,0.4c0.3,0.2-2.6,1.4-4.7,1.9c-1.1,0.3-2.2,0.4-4.6,0.4c-3.6,0-4.8-0.2-7.9-1.4
		c-2.1-0.8-2.1-0.9,1.6-1.3C1360.5,50.9,1368.1,50.9,1371.1,51.3z"/>
	<path class="st3" d="M1339,51.3l-0.5,0.6l4.4,4.7c2.4,2.6,4.9,5.3,5.6,6l1.2,1.2l0.6-0.5c0.3-0.3,0.6-0.6,0.6-0.7
		c0-0.2-10.8-11.8-11-11.8C1339.7,50.7,1339.3,51,1339,51.3z"/>
	<path class="st3" d="M1341.3,62.6c-1.4,1.4-2.7,2.5-2.8,2.5s-0.9-0.8-1.8-1.8c-0.9-1-1.7-1.8-1.9-1.8c-0.4,0-1.1,0.9-1,1.2
		c0.4,0.7,4.5,4.9,4.7,4.8c0.1,0,1.7-1.4,3.5-3.1l3.3-3l-0.5-0.6c-0.3-0.3-0.6-0.6-0.7-0.6C1344.1,60.2,1342.8,61.3,1341.3,62.6z"/>
	<path class="st3" d="M1382.4,56.5c-3,3.2-5.4,5.9-5.4,6c0,0.1,0.3,0.4,0.6,0.7l0.6,0.5l5.6-6l5.6-6l-0.5-0.6
		c-0.3-0.3-0.6-0.6-0.7-0.6C1387.9,50.7,1385.4,53.3,1382.4,56.5z"/>
	<path class="st3" d="M1382.9,60.8l-0.5,0.6l3.3,3.1c1.8,1.7,3.4,3.1,3.5,3.1c0.2,0,4.4-4.4,4.7-4.9c0.2-0.3-0.6-1.2-1-1.2
		c-0.1,0-1,0.8-1.9,1.8c-0.9,1-1.7,1.8-1.8,1.8s-1.3-1.1-2.8-2.4c-1.4-1.3-2.7-2.4-2.8-2.4C1383.5,60.2,1383.2,60.5,1382.9,60.8z"/>
</g>
</svg>
