<?xml version="1.0" encoding="utf-8"?>
<!-- Generator: Adobe Illustrator 19.0.0, SVG Export Plug-In . SVG Version: 6.00 Build 0)  -->
<svg version="1.1" id="svg2" xmlns="http://www.w3.org/2000/svg" xmlns:xlink="http://www.w3.org/1999/xlink" x="0px" y="0px"
	 viewBox="-3.5 0 1400 70" style="enable-background:new -3.5 0 1400 70;" xml:space="preserve">
<style type="text/css">
	.st0{fill:#34394D;}
	.st1{fill:#B9BBBF;}
</style>
<g>
	<g>
		<path id="path2248_5_" class="st0" d="M193.6,37.1c0,0-2.4,0-2.6,0c0,0-0.6,0-0.9,0.5c-0.3,0.3-0.3,0.9-0.3,0.9V51
			c0,0,0,0.6-0.5,1.3c-0.5,0.5-1.3,0.5-1.3,0.5h-3.7c-0.5,0-0.9-0.2-1.3-0.6c-0.5-0.5-0.5-1.1-0.5-1.1v-8.8v-4c0,0,0-0.6-0.3-0.9
			c-0.3-0.3-0.9-0.3-0.9-0.3h-2.6c0,0-0.6,0-1.1,0.5c-0.3,0.3-0.3,0.9-0.3,0.9v12.6c0,3.9,3,6.9,6.9,6.9h4.3c3.9,0,6.9-3,6.9-6.9
			V38.4c0,0,0-0.5-0.5-0.9C194.2,37.1,193.6,37.1,193.6,37.1"/>
		<path id="path2250_12_" class="st0" d="M208.8,50.7c0,0.9,0.6,1.9,1.8,1.9h14.1c1.3,0,1.9-0.8,1.9-1.9c0-0.9-0.8-1.6-1.9-1.6h-14
			C209.5,49.1,208.8,49.8,208.8,50.7z M209.2,38.6c0,1.5,0.6,2.7,1.6,3.7c0.9,0.9,2.2,1.5,3.7,1.5h10.6c5.1,0,7.7,3.3,7.7,7.1
			c0,3.6-2.1,7.4-7.7,7.4h-14.3c-4.2,0-7.4-2.2-7.4-7.4c0-3,1.8-4.8,3.3-5.3c-2.6-1.3-3.3-3.7-3.3-6.7v-6c0-4.5,5.7-4.3,5.7,0
			C209.2,35,209.2,38.6,209.2,38.6z M208.8,25.1c-6.4,0-10.1,3.9-10.1,10.1v16c0,6.4,5.1,11.6,11.6,11.6h15
			c6.4,0,11.6-5.1,11.6-11.6V36.5c0-6.4-5.1-11.6-11.6-11.6L208.8,25.1"/>
		<path id="path2252_5_" class="st0" d="M167.6,45.2h-6c-0.8,0-1.3-0.6-1.3-1.5s0.5-1.1,1.3-1.3h0.2h9.1c0,0,0.6,0,1.1-0.5
			s0.5-1.3,0.5-1.3v-2.1c0,0,0-0.8-0.5-1.3s-1.1-0.5-1.1-0.5h-9c-1.9,0-3.7,0.6-5,1.8c-1.3,1.1-2.1,2.9-2.1,4.7s0.6,3.6,2.1,4.8
			c1.3,1.3,3,1.9,5,1.9h4.3h1.3c0,0,0,0,0.2,0c0.8,0,1.5,0.5,1.5,1.3c0,0.6-0.5,1.3-1.3,1.3c-0.2,0-0.2,0-0.2,0H162
			c-0.6,0-4.7,0-4.7,0s-0.6,0-1.3,0.5c-0.5,0.5-0.5,1.1-0.5,1.1v2.2c0,0,0,0.8,0.5,1.3s1.1,0.3,1.1,0.3l0,0l0,0h0.5h9.9
			c4,0,6.9-2.7,6.9-6.4C174.5,48,171.6,45.2,167.6,45.2"/>
		<path id="path2260_7_" class="st0" d="M169,51.1L169,51.1L169,51.1L169,51.1"/>
	</g>
	<path class="st0" d="M145.3,16.2c-2.9,0.6-4.7,4.2-3.5,7.1c0.5,1.3,2.3,2.7,3.8,2.9c2.2,0.3,4.4-0.9,5.5-2.9c0.5-0.9,0.5-3,0.1-4.2
		C150.5,16.9,147.8,15.6,145.3,16.2z M17.1,27.2c-3.2,0.9-4.9,4.4-3.6,7.4c0.5,1.3,1.6,2.5,2.7,2.9l0.9,0.3v8.5
		c0,9.3,0.2,10.3,1.8,11.2c1.2,0.6,3.8,0.8,5.7,0.3l1.6-0.4l0.2-8.8c0.1-7.8,0.2-8.9,0.7-9.8c0.8-1.4,2-2.1,4-2.1s3.3,0.8,4.3,2.6
		c0.6,1.2,0.6,1.6,0.7,8.4c0,8,0.2,8.8,1.7,9.7c1.2,0.7,4.7,0.8,6.4,0.2l1.1-0.4l0.1-8.5c0.1-7.9,0.1-8.5,0.7-9.5
		c0.9-1.9,1.9-2.3,4.3-2.3c1.9,0,2.2,0.1,2.9,0.7c1.5,1.4,1.6,1.9,1.6,10c0,8.3,0.1,9,1.8,9.9c1.2,0.6,4.7,0.7,6.4,0.2l1.1-0.4v-9.8
		c0-10.4-0.2-11.8-1.6-14c-1.6-2.4-4.5-4.3-7.8-5c-0.9-0.2-2.9-0.2-4.7-0.2c-3.6,0.2-5.4,0.8-7.8,2.6l-1.6,1.2l-1-0.7
		c-1.4-1.2-3.9-2.4-5.8-2.9c-2.2-0.5-7.4-0.2-9.2,0.4c-1.2,0.5-1.3,0.5-2-0.2C21.1,27.3,18.9,26.7,17.1,27.2z M115.8,28.8
		c-7.7,2-12.2,9-11.1,16.8c1.1,7.5,6,11.7,13.6,11.8c3.1,0,4.8-0.5,7.1-1.9c0.8-0.5,1.4-0.9,1.5-0.9c0.3,0-0.2,3-0.7,4.2
		c-0.7,1.6-2.3,2.9-4.3,3.5c-2.9,0.9-8.8,0.2-12.3-1.4c-1.4-0.6-1.4-0.6-2-0.1c-0.9,0.8-2,3.1-2,4.2c0,0.5,0.2,1.2,0.5,1.6
		c1.6,2.3,12.5,4.1,18,2.9c6-1.3,10.2-5.4,11.6-11.5c0.5-2.8,0.5-16.5,0-19.1c-1.2-5.1-5-8.9-10.5-10.3
		C123,28.2,119.6,27.6,115.8,28.8z M123.2,37.3c4.9,2.2,5,9.4,0.2,11.7c-1.4,0.7-1.9,0.8-3.6,0.7c-1.6-0.1-2.2-0.3-3.3-1
		c-2.2-1.6-3.1-4.7-2.2-7.8c0.5-1.5,2.3-3.4,3.7-3.9C119.6,36.6,121.9,36.6,123.2,37.3z M73.3,29.2c-1.3,0.3-2.4,1.1-2.7,1.9
		c-0.5,1.2-0.3,17.1,0.1,18.8c1.5,5.6,6.6,8.8,14,8.8s12.6-3.3,14-8.8c0.3-1.2,0.4-3.8,0.4-10.9v-9.3L98,29.3c-1.6-0.5-5-0.5-6,0.1
		c-1.7,0.9-1.8,1.1-1.9,9.5c-0.1,7.5-0.1,7.7-0.8,8.9c-0.9,1.7-2.2,2.3-4.7,2.3c-2.4,0-3.6-0.6-4.7-2.3c-0.7-1.2-0.7-1.3-0.8-9.4
		c0-4.4-0.1-8.2-0.1-8.5C79.3,29.4,75.1,28.7,73.3,29.2z M145.1,29.2c-1.4,0.3-2.2,0.9-2.6,1.8c-0.4,0.7-0.5,2.6-0.4,13.6l0.1,12.8
		l1.5,0.4c1.6,0.5,4.3,0.3,5.5-0.2c0.5-0.2,1.1-0.8,1.4-1.2c0.5-0.8,0.6-1.2,0.7-13.6l0.1-12.7l-0.9-0.4
		C149.1,29.1,146.2,28.9,145.1,29.2z"/>
</g>
<text transform="matrix(1 0 0 1 -162.519 49.7646)" style="fill:#FFFFFF; font-family:'MyriadPro-Regular'; font-size:27.8152px;">1400x70</text>
<g>
	<path class="st0" d="M1340.3,10.9c3.3,3,5.9,5.6,5.9,5.6c0,0-0.5,0.6-1,1.2c-0.6,0.6-1.4,1.8-1.9,2.5c-0.5,0.8-1,1.4-1,1.4
		c-0.1,0-1.4-1.2-2.9-2.7c-2.3-2.2-2.9-2.9-3.4-4c-0.8-1.7-0.9-3.2-0.5-5.2l0.3-1.5l-0.7-0.6c-0.4-0.3-0.7-0.6-0.8-0.6
		c-0.3,0-1,2.5-1.1,3.7c-0.1,1.6,0.3,3.6,1.1,5.1c0.6,1.1,1.7,2.2,5.8,6.1c1.3,1.2,1.3,1.3,1.1,1.8l-0.2,0.6l-1.8-1.6
		c-4.4-4-5.9-5.6-6.5-6.9c-1.1-2.3-1.3-4.9-0.5-7.2c0.3-0.9,1.8-3.4,2-3.4C1334.4,5.3,1337.1,7.8,1340.3,10.9z"/>
	<path class="st0" d="M1394.3,6.4c2,2.9,2.2,6.5,0.7,9.6c-0.6,1.3-2,2.7-6.2,6.6l-2,1.9l-0.2-0.6c-0.2-0.5-0.1-0.7,3.1-3.8
		c3.7-3.6,4.2-4.3,4.7-6.8c0.4-1.9,0-4.8-0.8-5.9c-0.3-0.4-0.3-0.3-1,0.3l-0.7,0.6l0.3,0.8c0.2,0.5,0.3,1.5,0.3,2.6
		c0,1.6,0,1.9-0.7,3.2c-0.6,1.2-1.1,1.8-3.5,4.1c-1.5,1.5-2.8,2.7-2.9,2.7c-0.1,0-0.6-0.7-1.1-1.5c-0.6-0.8-1.4-2-1.9-2.5
		c-0.5-0.6-0.9-1.1-0.9-1.2c0-0.2,11.6-11.1,11.9-11.1C1393.5,5.3,1393.9,5.8,1394.3,6.4z"/>
	<path class="st0" d="M1368.1,13.1c6.2,1.3,11.6,5.5,14.4,11.2c0.5,1,0.9,1.9,0.9,2c0,0.5-7,2.3-11.3,3c-3.4,0.5-12.8,0.5-16.2,0
		c-4.5-0.7-11.3-2.5-11.3-3c0-0.1,0.4-1,0.9-2c2.8-5.7,8.1-9.9,14.3-11.2C1361.5,12.7,1366.2,12.7,1368.1,13.1z"/>
	<path class="st0" d="M1344.8,31.5l1,0.3l0.1,3.2l0.1,3.2l-1-0.1c-0.6-0.1-1.1-0.1-1.1-0.2c-0.5-0.5-0.7-7-0.2-6.8
		C1343.6,31.1,1344.2,31.3,1344.8,31.5z"/>
	<path class="st0" d="M1384.5,33.3c0,2.1-0.2,4.3-0.5,4.5c-0.1,0.1-0.6,0.1-1.1,0.2l-1,0.1l0-3.1l0-3.1l1.1-0.4
		c0.6-0.2,1.2-0.4,1.3-0.4C1384.4,31,1384.5,32,1384.5,33.3z"/>
	<path class="st0" d="M1350.4,32.8l2.3,0.5l0.1,2.8l0.1,2.8l-1.4-0.1c-0.8-0.1-1.9-0.2-2.5-0.3l-1.1-0.1l-0.1-3c0-2.3,0-3,0.2-3
		C1348,32.4,1349.1,32.6,1350.4,32.8z"/>
	<path class="st0" d="M1380.1,35.4l-0.1,3l-1.1,0.1c-0.6,0.1-1.7,0.2-2.5,0.3l-1.4,0.1l0.1-2.8l0.1-2.8l2.1-0.4
		c1.1-0.2,2.3-0.4,2.5-0.5l0.5,0L1380.1,35.4z"/>
	<path class="st0" d="M1334.9,34.7c-0.4,0.7-0.7,1.2-0.8,1.2c-0.1,0-1.3-2.1-1.3-2.3c0-0.1,0.6-0.1,1.4-0.1h1.4L1334.9,34.7z"/>
	<path class="st0" d="M1338.9,33.6c0,0.2-1,2.1-1.2,2.2c-0.2,0.1-1.4-1.8-1.4-2.1c0-0.1,0.6-0.1,1.3-0.1
		C1338.4,33.5,1338.9,33.6,1338.9,33.6z"/>
	<path class="st0" d="M1357.9,33.9l1.7,0.1v2.5v2.5l-2.3,0c-1.3,0-2.4-0.1-2.5-0.1c-0.1-0.1-0.2-1.3-0.2-2.8v-2.7l0.8,0.1
		C1355.8,33.7,1356.9,33.8,1357.9,33.9z"/>
	<path class="st0" d="M1373.3,36.2c0,1.5-0.1,2.7-0.2,2.8c-0.1,0.1-1.2,0.1-2.5,0.1l-2.3,0l-0.1-2.5c0-1.9,0-2.5,0.2-2.6
		c0.2-0.1,1.2-0.2,4.6-0.5C1373.2,33.5,1373.3,33.8,1373.3,36.2z"/>
	<path class="st0" d="M1396.1,34.4c-0.3,1.9-2,3.8-3.8,4.3c-1.1,0.3-4.4,0.3-4.3-0.1c0.1-0.2,0.7-0.3,1.9-0.4c2.6-0.2,4-0.9,5-2.5
		c0.7-1.1,0.7-1.6,0.1-1.6c-0.4,0-0.6,0.2-0.9,0.7c-0.8,1.5-2,2.2-4.3,2.4l-1.5,0.1l0.1-1.2c0.1-0.7,0.1-1.5,0.1-1.9v-0.7h3.9h3.9
		L1396.1,34.4z"/>
	<polygon class="st0" points="1366.3,36.7 1366.3,39.3 1363.9,39.3 1361.4,39.3 1361.4,36.7 1361.4,34.1 1363.9,34.1 1366.3,34.1 	
		"/>
	<path class="st0" d="M1335.1,37.7l0.5,0.9h-1.4c-0.8,0-1.4-0.1-1.3-0.2c0-0.1,0.3-0.6,0.6-1.2C1334.1,36.2,1334.2,36.2,1335.1,37.7
		z"/>
	<path class="st0" d="M1338.3,37.4c0.3,0.6,0.6,1.1,0.6,1.2c0,0.1-0.6,0.1-1.3,0.1c-0.7,0-1.3,0-1.3-0.1c0-0.1,1.2-2.3,1.3-2.3
		C1337.7,36.3,1338,36.8,1338.3,37.4z"/>
	<path class="st0" d="M1345.8,40c0.1,0.1,0.1,3.5,0,3.5c-0.2,0-1.3-2.5-1.5-3.2c-0.1-0.5-0.1-0.5,0.7-0.4
		C1345.4,39.9,1345.7,39.9,1345.8,40z"/>
	<path class="st0" d="M1383.5,39.9c0,0.3-1.4,3.5-1.6,3.5c-0.1,0-0.1-0.8-0.1-1.7l0-1.7l0.7-0.1c0.4-0.1,0.7-0.1,0.8-0.2
		C1383.5,39.7,1383.5,39.8,1383.5,39.9z"/>
	<path class="st0" d="M1351.1,40.4l1.6,0.1V44v3.5l-1.7,0.3l-1.7,0.3l-0.8-0.9l-0.8-0.9l0-3.1V40l0.9,0.1
		C1349.1,40.2,1350.2,40.3,1351.1,40.4z"/>
	<path class="st0" d="M1380.2,43.2l0,3.1l-0.8,0.9l-0.8,0.9l-1.7-0.3l-1.7-0.3V44v-3.5l1.4-0.1c0.8-0.1,1.7-0.2,2.1-0.2
		C1380.4,40,1380.2,39.7,1380.2,43.2z"/>
	<path class="st0" d="M1359.6,43.7l0.1,3l-1.4,0.1c-0.8,0.1-2,0.2-2.6,0.3l-1.1,0.1v-3.3v-3.3l2.5,0.1l2.5,0.1L1359.6,43.7z"/>
	<path class="st0" d="M1373.3,43.9c0,2.9,0,3.3-0.3,3.3c-0.2,0-1.3-0.1-2.6-0.2l-2.2-0.2v-2.9c0-1.6,0.1-3,0.1-3
		c0.1-0.1,1.2-0.1,2.6-0.1h2.4V43.9z"/>
	<polygon class="st0" points="1366.3,43.7 1366.3,46.7 1363.9,46.7 1361.4,46.7 1361.4,43.7 1361.4,40.8 1363.9,40.8 1366.3,40.8 	
		"/>
	<path class="st0" d="M1342.9,49.4l1.5,1.6l0.5-0.4l0.5-0.5l0.8,0.8c0.8,0.8,3.4,3,3.9,3.3c0.3,0.2,0.2,0.3-0.4,0.9l-0.8,0.7
		l0.6,0.6l0.6,0.6l1-0.8c0.9-0.7,1-0.8,1.5-0.6l0.5,0.2l-1,1.1l-1,1.1l1.5,1.6c1.1,1.2,1.4,1.7,1.3,1.9c-0.1,0.1-1.1,1.1-2.2,2.1
		l-2,1.8l-1.5-1.7l-1.5-1.7l-0.6,0.5c-0.3,0.3-2.2,2-4.1,3.8l-3.6,3.3l-0.4-0.5c-0.2-0.3-1.7-1.8-3.2-3.5l-2.8-3l1.5-1.5
		c0.8-0.8,2.7-2.5,4.1-3.8c1.4-1.3,2.5-2.4,2.5-2.4c0-0.1-0.7-0.8-1.5-1.7c-0.8-0.9-1.5-1.6-1.4-1.7c0.1-0.2,4.2-4,4.3-4
		C1341.3,47.7,1342.1,48.5,1342.9,49.4z"/>
	<path class="st0" d="M1388.7,49.7c1.1,1,2.1,1.9,2.1,2c0,0.1-0.7,0.8-1.5,1.7s-1.5,1.6-1.5,1.7c0,0,1.2,1.2,2.6,2.5
		c1.4,1.3,3.3,3,4,3.8l1.4,1.4l-2.8,3c-1.5,1.7-3,3.2-3.2,3.5l-0.4,0.5l-3.4-3.2c-1.9-1.8-3.7-3.5-4.1-3.8l-0.7-0.6l-1.5,1.7
		l-1.5,1.7l-1.8-1.6c-1-0.9-2-1.8-2.2-2.1l-0.4-0.5l1.5-1.6l1.5-1.6l-1-1.1l-1-1.1l0.5-0.2c0.5-0.2,0.6-0.2,1.5,0.6l0.9,0.8l0.6-0.6
		l0.6-0.6l-0.8-0.7c-0.7-0.6-0.7-0.7-0.4-0.9c0.7-0.4,3.2-2.5,3.9-3.3l0.7-0.8l0.5,0.5l0.5,0.5l1.5-1.6c0.8-0.9,1.6-1.6,1.7-1.6
		C1386.6,47.8,1387.6,48.7,1388.7,49.7z"/>
	<path class="st0" d="M1371.1,51.3c1,0.1,2,0.3,2.2,0.4c0.3,0.2-2.6,1.4-4.7,1.9c-1.1,0.3-2.2,0.4-4.6,0.4c-3.6,0-4.8-0.2-7.9-1.4
		c-2.1-0.8-2.1-0.9,1.6-1.3C1360.5,50.9,1368.1,50.9,1371.1,51.3z"/>
	<path class="st1" d="M1339,51.3l-0.5,0.6l4.4,4.7c2.4,2.6,4.9,5.3,5.6,6l1.2,1.2l0.6-0.5c0.3-0.3,0.6-0.6,0.6-0.7
		c0-0.2-10.8-11.8-11-11.8C1339.7,50.7,1339.3,51,1339,51.3z"/>
	<path class="st1" d="M1341.3,62.6c-1.4,1.4-2.7,2.5-2.8,2.5s-0.9-0.8-1.8-1.8c-0.9-1-1.7-1.8-1.9-1.8c-0.4,0-1.1,0.9-1,1.2
		c0.4,0.7,4.5,4.9,4.7,4.8c0.1,0,1.7-1.4,3.5-3.1l3.3-3l-0.5-0.6c-0.3-0.3-0.6-0.6-0.7-0.6C1344.1,60.2,1342.8,61.3,1341.3,62.6z"/>
	<path class="st1" d="M1382.4,56.5c-3,3.2-5.4,5.9-5.4,6c0,0.1,0.3,0.4,0.6,0.7l0.6,0.5l5.6-6l5.6-6l-0.5-0.6
		c-0.3-0.3-0.6-0.6-0.7-0.6C1387.9,50.7,1385.4,53.3,1382.4,56.5z"/>
	<path class="st1" d="M1382.9,60.8l-0.5,0.6l3.3,3.1c1.8,1.7,3.4,3.1,3.5,3.1c0.2,0,4.4-4.4,4.7-4.9c0.2-0.3-0.6-1.2-1-1.2
		c-0.1,0-1,0.8-1.9,1.8c-0.9,1-1.7,1.8-1.8,1.8s-1.3-1.1-2.8-2.4c-1.4-1.3-2.7-2.4-2.8-2.4C1383.5,60.2,1383.2,60.5,1382.9,60.8z"/>
</g>
</svg>
