<?xml version="1.0" encoding="utf-8"?>
<!-- Generator: Adobe Illustrator 19.0.0, SVG Export Plug-In . SVG Version: 6.00 Build 0)  -->
<svg version="1.1" id="svg2" xmlns="http://www.w3.org/2000/svg" xmlns:xlink="http://www.w3.org/1999/xlink" x="0px" y="0px"
	 viewBox="0 0 1400 70" style="enable-background:new 0 0 1400 70;" xml:space="preserve">
<style type="text/css">
	.st0{fill:none;}
	.st1{fill:#FFB15A;}
	.st2{fill:#C07820;}
	.st3{fill:url(#SVGID_1_);}
	.st4{fill:url(#SVGID_2_);}
	.st5{fill:url(#SVGID_3_);}
	.st6{fill:#353A4D;}
	.st7{fill:#FAAF5C;}
	.st8{fill:#34394D;}
</style>
<pattern  y="70" width="4" height="4" patternUnits="userSpaceOnUse" id="subStripe" viewBox="0 -4 4 4" style="overflow:visible;">
	<g>
		<polygon class="st0" points="0,0 4,0 4,-4 0,-4 		"/>
		<polygon class="st1" points="0,0 4,0 4,-4 0,-4 		"/>
		<polygon class="st2" points="0,0 1,0 1,-4 0,-4 		"/>
	</g>
</pattern>
<g id="layer1_1_" transform="translate(-131.083, -771.256)">
	
		<pattern  id="SVGID_1_" xlink:href="#subStripe" patternTransform="matrix(0.7071 -0.7071 -0.7071 -0.7071 -8097.1602 -18694.6113)">
	</pattern>
	<path class="st3" d="M377.8,798.8c0,0-3.1,0-3.3,0c0,0-0.8,0-1.2,0.6c-0.4,0.4-0.4,1.2-0.4,1.2v16.1c0,0,0,0.8-0.6,1.7
		c-0.6,0.6-1.7,0.6-1.7,0.6h-4.8c-0.6,0-1.2-0.2-1.7-0.8c-0.6-0.6-0.6-1.4-0.6-1.4v-11.4v-5c0,0,0-0.8-0.4-1.2s-1.2-0.4-1.2-0.4
		h-3.3c0,0-0.8,0-1.4,0.6c-0.4,0.4-0.4,1.2-0.4,1.2V817c0,5,3.9,8.9,8.9,8.9h5.6c5,0,8.9-3.9,8.9-8.9v-16.6c0,0,0-0.6-0.6-1.2
		C378.6,798.8,377.8,798.8,377.8,798.8"/>
	
		<pattern  id="SVGID_2_" xlink:href="#subStripe" patternTransform="matrix(0.7071 -0.7071 -0.7071 -0.7071 -8097.1602 -18694.6113)">
	</pattern>
	<path class="st4" d="M397.4,816.4c0,1.2,0.8,2.5,2.3,2.5h18.2c1.7,0,2.5-1,2.5-2.5c0-1.2-1-2.1-2.5-2.1h-18
		C398.3,814.3,397.4,815.1,397.4,816.4z M397.8,800.6c0,1.9,0.8,3.5,2.1,4.8c1.2,1.2,2.9,1.9,4.8,1.9h13.7c6.6,0,9.9,4.3,9.9,9.1
		c0,4.6-2.7,9.5-9.9,9.5H400c-5.4,0-9.5-2.9-9.5-9.5c0-3.9,2.3-6.2,4.3-6.8c-3.3-1.7-4.3-4.8-4.3-8.7v-7.7c0-5.8,7.4-5.6,7.4,0
		C397.8,796.1,397.8,800.6,397.8,800.6z M397.4,783.3c-8.3,0-13,5-13,13V817c0,8.3,6.6,14.9,14.9,14.9h19.4
		c8.3,0,14.9-6.6,14.9-14.9v-19c0-8.3-6.6-14.9-14.9-14.9L397.4,783.3"/>
	
		<pattern  id="SVGID_3_" xlink:href="#subStripe" patternTransform="matrix(0.7071 -0.7071 -0.7071 -0.7071 -8097.1602 -18694.6113)">
	</pattern>
	<path class="st5" d="M344.3,809.1h-7.7c-1,0-1.7-0.8-1.7-1.9c0-1,0.6-1.4,1.7-1.7h0.2h11.8c0,0,0.8,0,1.4-0.6s0.6-1.7,0.6-1.7v-2.7
		c0,0,0-1-0.6-1.7c-0.6-0.6-1.4-0.6-1.4-0.6H337c-2.5,0-4.8,0.8-6.4,2.3c-1.7,1.4-2.7,3.7-2.7,6s0.8,4.6,2.7,6.2
		c1.7,1.7,3.9,2.5,6.4,2.5h5.6h1.7c0,0,0,0,0.2,0c1,0,1.9,0.6,1.9,1.7c0,0.8-0.6,1.7-1.7,1.7c-0.2,0-0.2,0-0.2,0H337c-0.8,0-6,0-6,0
		s-0.8,0-1.7,0.6c-0.6,0.6-0.6,1.4-0.6,1.4v2.9c0,0,0,1,0.6,1.7c0.6,0.6,1.4,0.4,1.4,0.4l0,0l0,0h0.6h12.8c5.2,0,8.9-3.5,8.9-8.3
		C353.1,812.8,349.4,809.1,344.3,809.1"/>
</g>
<g id="mugi_logo_1_" transform="translate(0,242) scale(0.1,-0.1)">
	<path class="st6" d="M1845.2,2414.8c-38-8.2-60.4-53.7-44.8-91c7.1-17.2,30.2-35.1,49.2-38c28-4.1,57.4,11.2,70.9,36.6
		c6.3,11.9,6.7,39.2,1.1,54.1C1910.8,2404.7,1877.3,2421.9,1845.2,2414.8z M191.4,2272.7c-40.7-11.9-62.7-57.1-46.3-95.9
		c7.1-17.2,21.3-32.4,35.4-38l10.8-4.5v-107.8c0-120.5,1.9-132.8,23.5-143.6c15.7-8.2,48.9-10.1,73.5-4.5l20.5,4.8l1.9,113.8
		c1.5,100.3,2.6,115.3,8.6,126.1c9.7,17.9,26.5,26.9,51.5,26.9c26.1,0,42.9-10.1,54.8-33.6c7.8-15.7,8.2-20.9,8.6-108.2
		c0-102.9,1.9-113,22-125c15.3-9,60.4-10.4,82.8-2.6l13.8,4.8l1.1,108.9c1.1,101.8,1.5,110,9,123.5c12.3,24.2,23.9,30.2,55.6,30.2
		c23.9,0,28.7-1.1,37.3-9.3c19.4-17.5,20.5-25.4,20.5-128.7c0-106.7,1.5-116,23.1-127.6c14.9-7.8,61.2-9,82.4-1.9l13.8,5.2v123.8
		c0,133.5-2.2,152.2-19.8,180.5c-20.1,31.3-57.8,55.9-99.6,64.5c-11.6,2.6-36.9,3.4-59.7,2.6c-46.3-2.2-69.7-10.1-101.1-34.3
		l-20.5-16l-13.1,10.8c-17.9,15.3-50,31-74.6,36.6c-27.6,6-96.2,3-118.6-5.2c-16.4-6-16.8-6-26.1,3
		C242.1,2271.2,214.1,2279,191.4,2272.7z M1463.6,2252.2c-98.8-26.5-157.8-116-143.2-217.1c14.2-97.3,76.8-151.4,176.4-151.8
		c39.5,0,61.9,6,91,24.2c9.7,6.3,18.3,11.2,19.4,11.2c4.1,0-3-39.2-9.3-54.1c-9-20.9-29.8-37.7-55.2-45.1
		c-38.4-11.2-113.8-2.6-158.5,17.9c-17.5,7.8-17.9,7.8-25.7,0.7c-11.6-10.4-25.7-40.3-25.7-54.5c0-7.1,2.6-16,5.6-20.1
		c20.9-30.2,161.1-52.6,232-37.7c78.3,16.8,132.4,70.5,148.8,147.7c7.5,35.8,7.1,213.3-0.4,246.2c-15.7,65.6-65.3,114.5-134.6,132.8
		C1556.5,2259.6,1490.9,2259.6,1463.6,2252.2z M1558.7,2142.9c63-28.7,65.3-121.2,3.4-151.4c-18.3-9-23.9-10.1-47-8.6
		c-21.3,1.5-29.5,4.1-41.8,12.7c-28.7,20.1-39.9,59.7-28,100c5.6,18.6,29.8,44,47.7,49.6C1513.2,2151.5,1541.6,2150.7,1558.7,2142.9
		z M916.1,2247.3c-17.2-4.5-30.6-14.2-34.7-25c-6-15.7-4.5-219.7,1.5-243.2c19.4-72,85-113.4,181.3-113.8
		c94.7-0.4,161.9,42.1,181.3,113.8c3.7,14.9,5.2,48.9,5.2,139.9v119.7l-13.8,4.8c-20.9,7.1-63.8,6-78.3-1.5
		c-22.4-11.9-22.8-13.8-24.2-122c-1.1-97.3-1.5-99.2-10.4-115.3c-12.3-22-28.7-30.2-59.7-30.2s-47,8.2-59.7,30.2
		c-9.3,16.4-9.3,17.2-10.4,120.8c-0.4,57.4-0.7,106.3-0.7,108.9C993.3,2244.3,939.2,2253.3,916.1,2247.3z M1841.8,2247.3
		c-17.9-4.5-27.6-11.2-33.6-22.8c-4.8-9.3-5.6-34.3-4.8-176l1.1-164.9l18.6-4.8c21.3-6,55.9-4.1,71.2,3c5.6,3,13.8,10.1,17.9,15.7
		c7.5,10.4,7.8,14.9,9,174.6l1.1,164.1l-12.3,5.2C1894.1,2247.7,1856.4,2251.1,1841.8,2247.3z"/>
</g>
<path id="path2248_4_" class="st7" d="M246.7,142.5c0,0-3.1,0-3.3,0c0,0-0.8,0-1.2,0.6c-0.4,0.4-0.4,1.2-0.4,1.2v16.1
	c0,0,0,0.8-0.6,1.7c-0.6,0.6-1.7,0.6-1.7,0.6h-4.8c-0.6,0-1.2-0.2-1.7-0.8c-0.6-0.6-0.6-1.4-0.6-1.4v-11.4v-5c0,0,0-0.8-0.4-1.2
	c-0.4-0.4-1.2-0.4-1.2-0.4h-3.3c0,0-0.8,0-1.4,0.6c-0.4,0.4-0.4,1.2-0.4,1.2v16.3c0,5,3.9,8.9,8.9,8.9h5.6c5,0,8.9-3.9,8.9-8.9
	v-16.6c0,0,0-0.6-0.6-1.2C247.5,142.5,246.7,142.5,246.7,142.5"/>
<path id="path2250_11_" class="st7" d="M266.3,160.1c0,1.2,0.8,2.5,2.3,2.5h18.2c1.7,0,2.5-1,2.5-2.5c0-1.2-1-2.1-2.5-2.1h-18
	C267.2,158,266.3,158.8,266.3,160.1z M266.8,144.3c0,1.9,0.8,3.5,2.1,4.8c1.2,1.2,2.9,1.9,4.8,1.9h13.7c6.6,0,9.9,4.3,9.9,9.1
	c0,4.6-2.7,9.5-9.9,9.5h-18.4c-5.4,0-9.5-2.9-9.5-9.5c0-3.9,2.3-6.2,4.3-6.8c-3.3-1.7-4.3-4.8-4.3-8.7v-7.7c0-5.8,7.4-5.6,7.4,0
	C266.8,139.8,266.8,144.3,266.8,144.3z M266.3,127c-8.3,0-13,5-13,13v20.7c0,8.3,6.6,14.9,14.9,14.9h19.4c8.3,0,14.9-6.6,14.9-14.9
	v-19c0-8.3-6.6-14.9-14.9-14.9L266.3,127"/>
<path id="path2252_4_" class="st7" d="M213.2,152.8h-7.7c-1,0-1.7-0.8-1.7-1.9s0.6-1.4,1.7-1.7h0.2h11.8c0,0,0.8,0,1.4-0.6
	c0.6-0.6,0.6-1.7,0.6-1.7v-2.7c0,0,0-1-0.6-1.7c-0.6-0.6-1.4-0.6-1.4-0.6h-11.6c-2.5,0-4.8,0.8-6.4,2.3c-1.7,1.4-2.7,3.7-2.7,6
	c0,2.3,0.8,4.6,2.7,6.2c1.7,1.7,3.9,2.5,6.4,2.5h5.6h1.7c0,0,0,0,0.2,0c1,0,1.9,0.6,1.9,1.7c0,0.8-0.6,1.7-1.7,1.7
	c-0.2,0-0.2,0-0.2,0h-7.4c-0.8,0-6,0-6,0s-0.8,0-1.7,0.6c-0.6,0.6-0.6,1.4-0.6,1.4v2.9c0,0,0,1,0.6,1.7c0.6,0.6,1.4,0.4,1.4,0.4l0,0
	l0,0h0.6h12.8c5.2,0,8.9-3.5,8.9-8.3C222.1,156.5,218.3,152.8,213.2,152.8"/>
<path id="path2260_5_" class="st7" d="M215,160.5L215,160.5L215,160.5L215,160.5"/>
<path class="st8" d="M184.5,115.5c-3.8,0.8-6,5.4-4.5,9.1c0.7,1.7,3,3.5,4.9,3.8c2.8,0.4,5.7-1.1,7.1-3.7c0.6-1.2,0.7-3.9,0.1-5.4
	C191.1,116.5,187.7,114.8,184.5,115.5z M19.1,129.7c-4.1,1.2-6.3,5.7-4.6,9.6c0.7,1.7,2.1,3.2,3.5,3.8l1.1,0.4v10.8
	c0,12,0.2,13.3,2.3,14.4c1.6,0.8,4.9,1,7.3,0.4l2.1-0.5l0.2-11.4c0.1-10,0.3-11.5,0.9-12.6c1-1.8,2.6-2.7,5.1-2.7
	c2.6,0,4.3,1,5.5,3.4c0.8,1.6,0.8,2.1,0.9,10.8c0,10.3,0.2,11.3,2.2,12.5c1.5,0.9,6,1,8.3,0.3l1.4-0.5l0.1-10.9
	c0.1-10.2,0.1-11,0.9-12.3c1.2-2.4,2.4-3,5.6-3c2.4,0,2.9,0.1,3.7,0.9c1.9,1.8,2.1,2.5,2.1,12.9c0,10.7,0.1,11.6,2.3,12.8
	c1.5,0.8,6.1,0.9,8.2,0.2l1.4-0.5V156c0-13.4-0.2-15.2-2-18.1c-2-3.1-5.8-5.6-10-6.5c-1.2-0.3-3.7-0.3-6-0.3c-4.6,0.2-7,1-10.1,3.4
	l-2.1,1.6l-1.3-1.1c-1.8-1.5-5-3.1-7.5-3.7c-2.8-0.6-9.6-0.3-11.9,0.5c-1.6,0.6-1.7,0.6-2.6-0.3C24.2,129.8,21.4,129,19.1,129.7z
	 M146.4,131.7c-9.9,2.6-15.8,11.6-14.3,21.7c1.4,9.7,7.7,15.1,17.6,15.2c4,0,6.2-0.6,9.1-2.4c1-0.6,1.8-1.1,1.9-1.1
	c0.4,0-0.3,3.9-0.9,5.4c-0.9,2.1-3,3.8-5.5,4.5c-3.8,1.1-11.4,0.3-15.9-1.8c-1.8-0.8-1.8-0.8-2.6-0.1c-1.2,1-2.6,4-2.6,5.4
	c0,0.7,0.3,1.6,0.6,2c2.1,3,16.1,5.3,23.2,3.8c7.8-1.7,13.2-7,14.9-14.8c0.7-3.6,0.7-21.3,0-24.6c-1.6-6.6-6.5-11.5-13.5-13.3
	C155.6,131,149.1,131,146.4,131.7z M155.9,142.7c6.3,2.9,6.5,12.1,0.3,15.1c-1.8,0.9-2.4,1-4.7,0.9c-2.1-0.1-2.9-0.4-4.2-1.3
	c-2.9-2-4-6-2.8-10c0.6-1.9,3-4.4,4.8-5C151.3,141.8,154.2,141.9,155.9,142.7z M91.6,132.2c-1.7,0.4-3.1,1.4-3.5,2.5
	c-0.6,1.6-0.4,22,0.1,24.3c1.9,7.2,8.5,11.3,18.1,11.4c9.5,0,16.2-4.2,18.1-11.4c0.4-1.5,0.5-4.9,0.5-14v-12l-1.4-0.5
	c-2.1-0.7-6.4-0.6-7.8,0.1c-2.2,1.2-2.3,1.4-2.4,12.2c-0.1,9.7-0.1,9.9-1,11.5c-1.2,2.2-2.9,3-6,3s-4.7-0.8-6-3
	c-0.9-1.6-0.9-1.7-1-12.1c0-5.7-0.1-10.6-0.1-10.9C99.3,132.5,93.9,131.6,91.6,132.2z M184.2,132.2c-1.8,0.4-2.8,1.1-3.4,2.3
	c-0.5,0.9-0.6,3.4-0.5,17.6l0.1,16.5l1.9,0.5c2.1,0.6,5.6,0.4,7.1-0.3c0.6-0.3,1.4-1,1.8-1.6c0.7-1,0.8-1.5,0.9-17.5l0.1-16.4
	l-1.2-0.5C189.4,132.2,185.6,131.8,184.2,132.2z"/>
</svg>
