<?xml version="1.0" encoding="utf-8"?>
<!-- Generator: Adobe Illustrator 19.0.0, SVG Export Plug-In . SVG Version: 6.00 Build 0)  -->
<svg version="1.1" id="svg2" xmlns="http://www.w3.org/2000/svg" xmlns:xlink="http://www.w3.org/1999/xlink" x="0px" y="0px"
	 viewBox="0 0 1400 70" style="enable-background:new 0 0 1400 70;" xml:space="preserve">
<style type="text/css">
	.st0{fill:#34394D;}
</style>
<g>
	<path id="path2248_5_" class="st0" d="M166.1,42.4c0,0-2,0-2.1,0c0,0-0.5,0-0.8,0.4c-0.3,0.3-0.3,0.8-0.3,0.8v10.3
		c0,0,0,0.5-0.4,1.1c-0.4,0.4-1.1,0.4-1.1,0.4h-3.1c-0.4,0-0.8-0.1-1.1-0.5C157,54.5,157,54,157,54v-7.3v-3.2c0,0,0-0.5-0.3-0.8
		c-0.3-0.3-0.8-0.3-0.8-0.3h-2.1c0,0-0.5,0-0.9,0.4c-0.3,0.3-0.3,0.8-0.3,0.8v10.5c0,3.2,2.5,5.7,5.7,5.7h3.6c3.2,0,5.7-2.5,5.7-5.7
		V43.5c0,0,0-0.4-0.4-0.8C166.7,42.4,166.1,42.4,166.1,42.4"/>
	<path id="path2250_12_" class="st0" d="M178.7,53.7c0,0.8,0.5,1.6,1.5,1.6h11.7c1.1,0,1.6-0.6,1.6-1.6c0-0.8-0.6-1.3-1.6-1.3h-11.6
		C179.3,52.4,178.7,53,178.7,53.7z M179.1,43.7c0,1.2,0.5,2.2,1.3,3.1c0.8,0.8,1.9,1.2,3.1,1.2h8.8c4.2,0,6.4,2.8,6.4,5.8
		c0,3-1.7,6.1-6.4,6.1h-11.8c-3.5,0-6.1-1.9-6.1-6.1c0-2.5,1.5-4,2.8-4.4c-2.1-1.1-2.8-3.1-2.8-5.6v-4.9c0-3.7,4.8-3.6,4.8,0
		C179.1,40.7,179.1,43.7,179.1,43.7z M178.7,32.5c-5.3,0-8.4,3.2-8.4,8.4v13.3c0,5.3,4.2,9.6,9.6,9.6h12.5c5.3,0,9.6-4.2,9.6-9.6
		V41.9c0-5.3-4.2-9.6-9.6-9.6L178.7,32.5"/>
	<path id="path2252_5_" class="st0" d="M144.6,49.1h-4.9c-0.6,0-1.1-0.5-1.1-1.2c0-0.7,0.4-0.9,1.1-1.1h0.1h7.6c0,0,0.5,0,0.9-0.4
		c0.4-0.4,0.4-1.1,0.4-1.1v-1.7c0,0,0-0.6-0.4-1.1c-0.4-0.4-0.9-0.4-0.9-0.4h-7.5c-1.6,0-3.1,0.5-4.1,1.5c-1.1,0.9-1.7,2.4-1.7,3.9
		s0.5,3,1.7,4c1.1,1.1,2.5,1.6,4.1,1.6h3.6h1.1c0,0,0,0,0.1,0c0.6,0,1.2,0.4,1.2,1.1c0,0.5-0.4,1.1-1.1,1.1c-0.1,0-0.1,0-0.1,0H140
		c-0.5,0-3.9,0-3.9,0s-0.5,0-1.1,0.4c-0.4,0.4-0.4,0.9-0.4,0.9v1.9c0,0,0,0.6,0.4,1.1c0.4,0.4,0.9,0.3,0.9,0.3l0,0l0,0h0.4h8.2
		c3.3,0,5.7-2.2,5.7-5.3C150.3,51.5,147.9,49.1,144.6,49.1"/>
	<path id="path2260_7_" class="st0" d="M145.8,54L145.8,54L145.8,54L145.8,54"/>
</g>
<path class="st0" d="M126.2,25.1c-2.4,0.5-3.9,3.5-2.9,5.8c0.4,1.1,1.9,2.2,3.1,2.4c1.8,0.3,3.7-0.7,4.6-2.4
	c0.4-0.8,0.4-2.5,0.1-3.5C130.4,25.7,128.2,24.6,126.2,25.1z M19.9,34.2c-2.6,0.8-4,3.7-3,6.2c0.4,1.1,1.3,2.1,2.2,2.4l0.7,0.3V50
	c0,7.7,0.1,8.5,1.5,9.3c1,0.5,3.1,0.6,4.7,0.3l1.3-0.3l0.2-7.3c0.1-6.4,0.2-7.4,0.6-8.1c0.6-1.2,1.7-1.7,3.3-1.7
	c1.7,0,2.8,0.6,3.5,2.2c0.5,1,0.5,1.3,0.6,6.9c0,6.6,0.1,7.3,1.4,8c1,0.6,3.9,0.6,5.3,0.2l0.9-0.3l0.1-7c0.1-6.6,0.1-7.1,0.6-7.9
	c0.8-1.5,1.5-1.9,3.6-1.9c1.5,0,1.9,0.1,2.4,0.6c1.2,1.2,1.3,1.6,1.3,8.3c0,6.9,0.1,7.5,1.5,8.2c1,0.5,3.9,0.6,5.3,0.1l0.9-0.3v-8.1
	c0-8.6-0.1-9.8-1.3-11.6c-1.3-2-3.7-3.6-6.4-4.2c-0.8-0.2-2.4-0.2-3.9-0.2c-3,0.1-4.5,0.6-6.5,2.2l-1.3,1l-0.8-0.6
	c-1.2-1-3.2-2-4.8-2.4c-1.8-0.4-6.2-0.2-7.6,0.3c-1,0.4-1.1,0.4-1.7-0.2C23.2,34.3,21.4,33.8,19.9,34.2z M101.7,35.6
	c-6.4,1.7-10.2,7.5-9.2,13.9c0.9,6.2,4.9,9.7,11.3,9.8c2.6,0,4-0.4,5.8-1.5c0.6-0.4,1.2-0.7,1.2-0.7c0.3,0-0.2,2.5-0.6,3.5
	c-0.6,1.3-1.9,2.4-3.5,2.9c-2.4,0.7-7.3,0.2-10.2-1.2c-1.2-0.5-1.2-0.5-1.7-0.1c-0.8,0.6-1.7,2.6-1.7,3.5c0,0.4,0.2,1,0.4,1.3
	c1.3,1.9,10.3,3.4,14.9,2.4c5-1.1,8.5-4.5,9.6-9.5c0.4-2.3,0.4-13.7,0-15.8c-1-4.2-4.2-7.4-8.7-8.5C107.7,35,103.4,35,101.7,35.6z
	 M107.8,42.6c4,1.9,4.2,7.8,0.2,9.7c-1.2,0.6-1.5,0.6-3,0.6c-1.3-0.1-1.9-0.3-2.7-0.8c-1.9-1.3-2.6-3.9-1.8-6.4
	c0.4-1.2,1.9-2.8,3.1-3.2C104.9,42,106.7,42,107.8,42.6z M66.5,35.9c-1.1,0.3-2,0.9-2.2,1.6c-0.4,1-0.3,14.1,0.1,15.6
	c1.2,4.6,5.5,7.3,11.6,7.3c6.1,0,10.4-2.7,11.6-7.3c0.3-1,0.3-3.1,0.3-9v-7.7L87,36.1c-1.3-0.4-4.1-0.4-5,0.1
	c-1.4,0.8-1.5,0.9-1.5,7.8c-0.1,6.2-0.1,6.4-0.6,7.4c-0.8,1.4-1.9,1.9-3.9,1.9s-3-0.5-3.9-1.9c-0.6-1-0.6-1.1-0.6-7.8
	c0-3.7-0.1-6.8-0.1-7C71.5,36.1,68,35.5,66.5,35.9z M126,35.9c-1.2,0.3-1.8,0.7-2.2,1.5c-0.3,0.6-0.4,2.2-0.3,11.3l0.1,10.6l1.2,0.3
	c1.3,0.4,3.6,0.3,4.6-0.2c0.4-0.2,0.9-0.6,1.2-1c0.4-0.6,0.5-1,0.6-11.2l0.1-10.5l-0.8-0.3C129.3,35.8,126.9,35.6,126,35.9z"/>
</svg>
