<?xml version="1.0" encoding="utf-8"?>
<!-- Generator: Adobe Illustrator 19.0.0, SVG Export Plug-In . SVG Version: 6.00 Build 0)  -->
<svg version="1.1" id="svg2" xmlns="http://www.w3.org/2000/svg" xmlns:xlink="http://www.w3.org/1999/xlink" x="0px" y="0px"
	 viewBox="0 0 1400 70" style="enable-background:new 0 0 1400 70;" xml:space="preserve">
<style type="text/css">
	.st0{fill:#34394D;}
</style>
<g>
	<path id="path2248_5_" class="st0" d="M183.1,39.3c0,0-2.2,0-2.4,0c0,0-0.6,0-0.9,0.4c-0.3,0.3-0.3,0.9-0.3,0.9v11.5
		c0,0,0,0.6-0.4,1.2c-0.4,0.4-1.2,0.4-1.2,0.4h-3.4c-0.4,0-0.9-0.1-1.2-0.6c-0.4-0.4-0.4-1-0.4-1v-8.2v-3.6c0,0,0-0.6-0.3-0.9
		c-0.3-0.3-0.9-0.3-0.9-0.3h-2.4c0,0-0.6,0-1,0.4c-0.3,0.3-0.3,0.9-0.3,0.9v11.7c0,3.6,2.8,6.4,6.4,6.4h4c3.6,0,6.4-2.8,6.4-6.4
		V40.6c0,0,0-0.4-0.4-0.9C183.7,39.3,183.1,39.3,183.1,39.3"/>
	<path id="path2250_12_" class="st0" d="M197.1,51.9c0,0.9,0.6,1.8,1.6,1.8h13c1.2,0,1.8-0.7,1.8-1.8c0-0.9-0.7-1.5-1.8-1.5h-12.9
		C197.8,50.4,197.1,51.1,197.1,51.9z M197.5,40.7c0,1.4,0.6,2.5,1.5,3.4c0.9,0.9,2.1,1.4,3.4,1.4h9.8c4.7,0,7.1,3.1,7.1,6.5
		c0,3.3-1.9,6.8-7.1,6.8H199c-3.9,0-6.8-2.1-6.8-6.8c0-2.8,1.6-4.4,3.1-4.9c-2.4-1.2-3.1-3.4-3.1-6.2v-5.5c0-4.1,5.3-4,5.3,0
		C197.5,37.4,197.5,40.7,197.5,40.7z M197.1,28.3c-5.9,0-9.3,3.6-9.3,9.3v14.8c0,5.9,4.7,10.7,10.7,10.7h13.9
		c5.9,0,10.7-4.7,10.7-10.7V38.8c0-5.9-4.7-10.7-10.7-10.7L197.1,28.3"/>
	<path id="path2252_5_" class="st0" d="M159.1,46.8h-5.5c-0.7,0-1.2-0.6-1.2-1.4c0-0.8,0.4-1,1.2-1.2h0.1h8.4c0,0,0.6,0,1-0.4
		c0.4-0.4,0.4-1.2,0.4-1.2v-1.9c0,0,0-0.7-0.4-1.2c-0.4-0.4-1-0.4-1-0.4h-8.3c-1.8,0-3.4,0.6-4.6,1.6c-1.2,1-1.9,2.6-1.9,4.3
		s0.6,3.3,1.9,4.4c1.2,1.2,2.8,1.8,4.6,1.8h4h1.2c0,0,0,0,0.1,0c0.7,0,1.4,0.4,1.4,1.2c0,0.6-0.4,1.2-1.2,1.2c-0.1,0-0.1,0-0.1,0
		H154c-0.6,0-4.3,0-4.3,0s-0.6,0-1.2,0.4c-0.4,0.4-0.4,1-0.4,1v2.1c0,0,0,0.7,0.4,1.2c0.4,0.4,1,0.3,1,0.3l0,0l0,0h0.4h9.2
		c3.7,0,6.4-2.5,6.4-5.9C165.5,49.4,162.8,46.8,159.1,46.8"/>
	<path id="path2260_7_" class="st0" d="M160.4,52.2L160.4,52.2L160.4,52.2L160.4,52.2"/>
</g>
<path class="st0" d="M138.6,20c-2.7,0.6-4.3,3.9-3.2,6.5c0.5,1.2,2.1,2.5,3.5,2.7c2,0.3,4.1-0.8,5.1-2.6c0.4-0.9,0.5-2.8,0.1-3.9
	C143.3,20.8,140.9,19.5,138.6,20z M20.3,30.2c-2.9,0.9-4.5,4.1-3.3,6.9c0.5,1.2,1.5,2.3,2.5,2.7l0.8,0.3v7.7c0,8.6,0.1,9.5,1.6,10.3
	c1.1,0.6,3.5,0.7,5.2,0.3l1.5-0.4l0.2-8.1c0.1-7.2,0.2-8.2,0.6-9c0.7-1.3,1.9-1.9,3.6-1.9c1.9,0,3.1,0.7,3.9,2.4
	c0.6,1.1,0.6,1.5,0.6,7.7c0,7.4,0.1,8.1,1.6,8.9c1.1,0.6,4.3,0.7,5.9,0.2l1-0.4l0.1-7.8c0.1-7.3,0.1-7.9,0.6-8.8
	c0.9-1.7,1.7-2.1,4-2.1c1.7,0,2.1,0.1,2.6,0.6c1.4,1.3,1.5,1.8,1.5,9.2c0,7.7,0.1,8.3,1.6,9.2c1.1,0.6,4.4,0.6,5.9,0.1l1-0.4v-9
	c0-9.6-0.1-10.9-1.4-12.9c-1.4-2.2-4.1-4-7.2-4.6c-0.9-0.2-2.6-0.2-4.3-0.2c-3.3,0.1-5,0.7-7.2,2.4L42,34.8l-0.9-0.6
	c-1.3-1.1-3.6-2.2-5.4-2.6c-2-0.4-6.9-0.2-8.5,0.4c-1.1,0.4-1.2,0.4-1.9-0.2C24,30.3,22,29.8,20.3,30.2z M111.4,31.7
	c-7.1,1.9-11.3,8.3-10.2,15.5c1,6.9,5.5,10.8,12.6,10.9c2.9,0,4.4-0.4,6.5-1.7c0.7-0.4,1.3-0.8,1.4-0.8c0.3,0-0.2,2.8-0.6,3.9
	c-0.6,1.5-2.1,2.7-3.9,3.2c-2.7,0.8-8.2,0.2-11.4-1.3c-1.3-0.6-1.3-0.6-1.9-0.1c-0.9,0.7-1.9,2.9-1.9,3.9c0,0.5,0.2,1.1,0.4,1.4
	c1.5,2.1,11.5,3.8,16.6,2.7c5.6-1.2,9.4-5,10.7-10.6c0.5-2.6,0.5-15.2,0-17.6c-1.1-4.7-4.6-8.2-9.7-9.5
	C118,31.1,113.3,31.1,111.4,31.7z M118.1,39.5c4.5,2.1,4.6,8.7,0.2,10.8c-1.3,0.6-1.7,0.7-3.4,0.6c-1.5-0.1-2.1-0.3-3-0.9
	c-2.1-1.4-2.9-4.3-2-7.2c0.4-1.4,2.1-3.1,3.4-3.6C114.9,38.9,116.9,38.9,118.1,39.5z M72.2,32.1c-1.2,0.3-2.2,1-2.5,1.8
	c-0.4,1.1-0.3,15.7,0.1,17.4c1.4,5.1,6.1,8.1,12.9,8.2c6.8,0,11.6-3,12.9-8.2c0.3-1.1,0.4-3.5,0.4-10v-8.6l-1-0.4
	c-1.5-0.5-4.6-0.4-5.6,0.1c-1.6,0.9-1.6,1-1.7,8.7c-0.1,6.9-0.1,7.1-0.7,8.2c-0.9,1.6-2.1,2.1-4.3,2.1c-2.2,0-3.4-0.6-4.3-2.1
	c-0.6-1.1-0.6-1.2-0.7-8.7c0-4.1-0.1-7.6-0.1-7.8C77.7,32.3,73.8,31.6,72.2,32.1z M138.4,32.1c-1.3,0.3-2,0.8-2.4,1.6
	c-0.4,0.6-0.4,2.4-0.4,12.6l0.1,11.8l1.4,0.4c1.5,0.4,4,0.3,5.1-0.2c0.4-0.2,1-0.7,1.3-1.1c0.5-0.7,0.6-1.1,0.6-12.5l0.1-11.7
	l-0.9-0.4C142.1,32,139.4,31.8,138.4,32.1z"/>
</svg>
