<?xml version="1.0" encoding="utf-8"?>
<!-- Generator: Adobe Illustrator 19.0.0, SVG Export Plug-In . SVG Version: 6.00 Build 0)  -->
<svg version="1.1" id="svg2" xmlns="http://www.w3.org/2000/svg" xmlns:xlink="http://www.w3.org/1999/xlink" x="0px" y="0px"
	 viewBox="0 0 1400 70" style="enable-background:new 0 0 1400 70;" xml:space="preserve">
<style type="text/css">
	.st0{fill:#34394D;}
	.st1{fill:#E0924B;}
</style>
<g>
	<g>
		<path id="path2248_5_" class="st0" d="M279.3,27.4c0,0-3.1,0-3.3,0c0,0-0.8,0-1.2,0.6c-0.4,0.4-0.4,1.2-0.4,1.2v16.1
			c0,0,0,0.8-0.6,1.7c-0.6,0.6-1.7,0.6-1.7,0.6h-4.8c-0.6,0-1.2-0.2-1.7-0.8c-0.6-0.6-0.6-1.4-0.6-1.4V34v-5c0,0,0-0.8-0.4-1.2
			c-0.4-0.4-1.2-0.4-1.2-0.4H260c0,0-0.8,0-1.4,0.6c-0.4,0.4-0.4,1.2-0.4,1.2v16.3c0,5,3.9,8.9,8.9,8.9h5.6c5,0,8.9-3.9,8.9-8.9
			V29.1c0,0,0-0.6-0.6-1.2C280.1,27.4,279.3,27.4,279.3,27.4"/>
		<path id="path2250_12_" class="st0" d="M298.9,45c0,1.2,0.8,2.5,2.3,2.5h18.2c1.7,0,2.5-1,2.5-2.5c0-1.2-1-2.1-2.5-2.1h-18
			C299.8,42.9,298.9,43.7,298.9,45z M299.4,29.3c0,1.9,0.8,3.5,2.1,4.8c1.2,1.2,2.9,1.9,4.8,1.9h13.7c6.6,0,9.9,4.3,9.9,9.1
			c0,4.6-2.7,9.5-9.9,9.5h-18.4c-5.4,0-9.5-2.9-9.5-9.5c0-3.9,2.3-6.2,4.3-6.8c-3.3-1.7-4.3-4.8-4.3-8.7v-7.7c0-5.8,7.4-5.6,7.4,0
			C299.4,24.7,299.4,29.3,299.4,29.3z M298.9,11.9c-8.3,0-13,5-13,13v20.7c0,8.3,6.6,14.9,14.9,14.9h19.4c8.3,0,14.9-6.6,14.9-14.9
			v-19c0-8.3-6.6-14.9-14.9-14.9L298.9,11.9"/>
		<path id="path2252_5_" class="st0" d="M245.8,37.7h-7.7c-1,0-1.7-0.8-1.7-1.9c0-1,0.6-1.4,1.7-1.7h0.2h11.8c0,0,0.8,0,1.4-0.6
			c0.6-0.6,0.6-1.7,0.6-1.7v-2.7c0,0,0-1-0.6-1.7s-1.4-0.6-1.4-0.6h-11.6c-2.5,0-4.8,0.8-6.4,2.3s-2.7,3.7-2.7,6s0.8,4.6,2.7,6.2
			c1.7,1.7,3.9,2.5,6.4,2.5h5.6h1.7c0,0,0,0,0.2,0c1,0,1.9,0.6,1.9,1.7c0,0.8-0.6,1.7-1.7,1.7c-0.2,0-0.2,0-0.2,0h-7.4
			c-0.8,0-6,0-6,0s-0.8,0-1.7,0.6c-0.6,0.6-0.6,1.4-0.6,1.4v2.9c0,0,0,1,0.6,1.7s1.4,0.4,1.4,0.4l0,0l0,0h0.6h12.8
			c5.2,0,8.9-3.5,8.9-8.3C254.7,41.5,250.9,37.7,245.8,37.7"/>
		<path id="path2260_7_" class="st0" d="M247.6,45.4L247.6,45.4L247.6,45.4L247.6,45.4"/>
	</g>
	<path class="st1" d="M217.1,0.4c-3.8,0.8-6,5.4-4.5,9.1c0.7,1.7,3,3.5,4.9,3.8c2.8,0.4,5.7-1.1,7.1-3.7c0.6-1.2,0.7-3.9,0.1-5.4
		C223.7,1.4,220.3-0.3,217.1,0.4z M51.7,14.6c-4.1,1.2-6.3,5.7-4.6,9.6c0.7,1.7,2.1,3.2,3.5,3.8l1.1,0.4v10.8
		c0,12,0.2,13.3,2.3,14.4c1.6,0.8,4.9,1,7.3,0.4l2.1-0.5l0.2-11.4c0.1-10,0.3-11.5,0.9-12.6c1-1.8,2.6-2.7,5.1-2.7
		c2.6,0,4.3,1,5.5,3.4c0.8,1.6,0.8,2.1,0.9,10.8c0,10.3,0.2,11.3,2.2,12.5c1.5,0.9,6,1,8.3,0.3l1.4-0.5L88,42.4
		c0.1-10.2,0.1-11,0.9-12.3c1.2-2.4,2.4-3,5.6-3c2.4,0,2.9,0.1,3.7,0.9c1.9,1.8,2.1,2.5,2.1,12.9c0,10.7,0.1,11.6,2.3,12.8
		c1.5,0.8,6.1,0.9,8.2,0.2l1.4-0.5V40.9c0-13.4-0.2-15.2-2-18.1c-2-3.1-5.8-5.6-10-6.5c-1.2-0.3-3.7-0.3-6-0.3
		c-4.6,0.2-7,1-10.1,3.4l-2.1,1.6l-1.3-1.1c-1.8-1.5-5-3.1-7.5-3.7c-2.8-0.6-9.6-0.3-11.9,0.5c-1.6,0.6-1.7,0.6-2.6-0.3
		C56.8,14.8,54,14,51.7,14.6z M179,16.7c-9.9,2.6-15.8,11.6-14.3,21.7c1.4,9.7,7.7,15.1,17.6,15.2c4,0,6.2-0.6,9.1-2.4
		c1-0.6,1.8-1.1,1.9-1.1c0.4,0-0.3,3.9-0.9,5.4c-0.9,2.1-3,3.8-5.5,4.5c-3.8,1.1-11.4,0.3-15.9-1.8c-1.8-0.8-1.8-0.8-2.6-0.1
		c-1.2,1-2.6,4-2.6,5.4c0,0.7,0.3,1.6,0.6,2c2.1,3,16.1,5.3,23.2,3.8c7.8-1.7,13.2-7,14.9-14.8c0.7-3.6,0.7-21.3,0-24.6
		c-1.6-6.6-6.5-11.5-13.5-13.3C188.3,15.9,181.7,15.9,179,16.7z M188.5,27.6c6.3,2.9,6.5,12.1,0.3,15.1c-1.8,0.9-2.4,1-4.7,0.9
		c-2.1-0.1-2.9-0.4-4.2-1.3c-2.9-2-4-6-2.8-10c0.6-1.9,3-4.4,4.8-5C183.9,26.7,186.8,26.8,188.5,27.6z M124.2,17.1
		c-1.7,0.4-3.1,1.4-3.5,2.5c-0.6,1.6-0.4,22,0.1,24.3c1.9,7.2,8.5,11.3,18.1,11.4c9.5,0,16.2-4.2,18.1-11.4c0.4-1.5,0.5-4.9,0.5-14
		V18l-1.4-0.5c-2.1-0.7-6.4-0.6-7.8,0.1c-2.2,1.2-2.3,1.4-2.4,12.2c-0.1,9.7-0.1,9.9-1,11.5c-1.2,2.2-2.9,3-6,3s-4.7-0.8-6-3
		c-0.9-1.6-0.9-1.7-1-12.1c0-5.7-0.1-10.6-0.1-10.9C131.9,17.4,126.5,16.5,124.2,17.1z M216.8,17.1c-1.8,0.4-2.8,1.1-3.4,2.3
		c-0.5,0.9-0.6,3.4-0.5,17.6l0.1,16.5l1.9,0.5c2.1,0.6,5.6,0.4,7.1-0.3c0.6-0.3,1.4-1,1.8-1.6c0.7-1,0.8-1.5,0.9-17.5l0.1-16.4
		l-1.2-0.5C222,17.1,218.2,16.8,216.8,17.1z"/>
</g>
</svg>
