<?xml version="1.0" encoding="utf-8"?>
<!-- Generator: Adobe Illustrator 19.0.0, SVG Export Plug-In . SVG Version: 6.00 Build 0)  -->
<svg version="1.1" id="svg2" xmlns="http://www.w3.org/2000/svg" xmlns:xlink="http://www.w3.org/1999/xlink" x="0px" y="0px"
	 viewBox="0 0 1400 70" style="enable-background:new 0 0 1400 70;" xml:space="preserve">
<style type="text/css">
	.st0{fill:#34394D;}
</style>
<g>
	<path id="path2248_5_" class="st0" d="M163.3,41.3c0,0-2,0-2.1,0c0,0-0.5,0-0.8,0.4c-0.3,0.3-0.3,0.8-0.3,0.8v10.4
		c0,0,0,0.5-0.4,1.1c-0.4,0.4-1.1,0.4-1.1,0.4h-3.1c-0.4,0-0.8-0.1-1.1-0.5c-0.4-0.4-0.4-0.9-0.4-0.9v-7.4v-3.2c0,0,0-0.5-0.3-0.8
		c-0.3-0.3-0.8-0.3-0.8-0.3h-2.1c0,0-0.5,0-0.9,0.4c-0.3,0.3-0.3,0.8-0.3,0.8V53c0,3.2,2.5,5.7,5.7,5.7h3.6c3.2,0,5.7-2.5,5.7-5.7
		V42.4c0,0,0-0.4-0.4-0.8C163.8,41.3,163.3,41.3,163.3,41.3"/>
	<path id="path2250_12_" class="st0" d="M175.9,52.6c0,0.8,0.5,1.6,1.5,1.6h11.8c1.1,0,1.6-0.6,1.6-1.6c0-0.8-0.6-1.4-1.6-1.4h-11.6
		C176.5,51.3,175.9,51.9,175.9,52.6z M176.3,42.5c0,1.2,0.5,2.3,1.4,3.1c0.8,0.8,1.9,1.2,3.1,1.2h8.8c4.3,0,6.4,2.8,6.4,5.9
		c0,3-1.7,6.1-6.4,6.1h-11.9c-3.5,0-6.1-1.9-6.1-6.1c0-2.5,1.5-4,2.8-4.4c-2.1-1.1-2.8-3.1-2.8-5.6v-5c0-3.7,4.8-3.6,4.8,0
		C176.3,39.5,176.3,42.5,176.3,42.5z M175.9,31.3c-5.4,0-8.4,3.2-8.4,8.4V53c0,5.4,4.3,9.6,9.6,9.6h12.5c5.4,0,9.6-4.3,9.6-9.6V40.8
		c0-5.4-4.3-9.6-9.6-9.6L175.9,31.3"/>
	<path id="path2252_5_" class="st0" d="M141.7,48h-5c-0.6,0-1.1-0.5-1.1-1.2s0.4-0.9,1.1-1.1h0.1h7.6c0,0,0.5,0,0.9-0.4
		c0.4-0.4,0.4-1.1,0.4-1.1v-1.7c0,0,0-0.6-0.4-1.1c-0.4-0.4-0.9-0.4-0.9-0.4H137c-1.6,0-3.1,0.5-4.1,1.5c-1.1,0.9-1.7,2.4-1.7,3.9
		s0.5,3,1.7,4c1.1,1.1,2.5,1.6,4.1,1.6h3.6h1.1c0,0,0,0,0.1,0c0.6,0,1.2,0.4,1.2,1.1c0,0.5-0.4,1.1-1.1,1.1c-0.1,0-0.1,0-0.1,0H137
		c-0.5,0-3.9,0-3.9,0s-0.5,0-1.1,0.4c-0.4,0.4-0.4,0.9-0.4,0.9v1.9c0,0,0,0.6,0.4,1.1c0.4,0.4,0.9,0.3,0.9,0.3l0,0l0,0h0.4h8.3
		c3.4,0,5.7-2.3,5.7-5.4C147.4,50.4,145,48,141.7,48"/>
	<path id="path2260_7_" class="st0" d="M142.8,52.9L142.8,52.9L142.8,52.9L142.8,52.9"/>
</g>
<path class="st0" d="M120.1,24.8c-2.5,0.5-3.9,3.5-2.9,5.9c0.5,1.1,1.9,2.3,3.2,2.5c1.8,0.3,3.7-0.7,4.6-2.4
	c0.4-0.8,0.5-2.5,0.1-3.5C124.4,25.5,122.2,24.4,120.1,24.8z M13.3,34c-2.6,0.8-4.1,3.7-3,6.2c0.5,1.1,1.4,2.1,2.3,2.5l0.7,0.3v7
	c0,7.7,0.1,8.6,1.5,9.3c1,0.5,3.2,0.6,4.7,0.3l1.4-0.3l0.2-7.3c0.1-6.5,0.2-7.4,0.6-8.1c0.6-1.2,1.7-1.7,3.3-1.7
	c1.7,0,2.8,0.6,3.6,2.2c0.5,1,0.5,1.4,0.6,7c0,6.7,0.1,7.3,1.4,8.1c1,0.6,3.9,0.6,5.4,0.2l0.9-0.3l0.1-7c0.1-6.6,0.1-7.1,0.6-7.9
	c0.8-1.5,1.5-1.9,3.6-1.9c1.5,0,1.9,0.1,2.4,0.6c1.2,1.2,1.4,1.6,1.4,8.3c0,6.9,0.1,7.5,1.5,8.3c1,0.5,3.9,0.6,5.3,0.1l0.9-0.3V51
	c0-8.7-0.1-9.8-1.3-11.7c-1.3-2-3.7-3.6-6.5-4.2c-0.8-0.2-2.4-0.2-3.9-0.2c-3,0.1-4.5,0.6-6.5,2.2l-1.4,1l-0.8-0.6
	c-1.2-1-3.2-2-4.8-2.4c-1.8-0.4-6.2-0.2-7.7,0.3c-1,0.4-1.1,0.4-1.7-0.2C16.6,34.1,14.8,33.6,13.3,34z M95.5,35.4
	c-6.4,1.7-10.2,7.5-9.2,14c0.9,6.3,5,9.7,11.4,9.8c2.6,0,4-0.4,5.9-1.5c0.6-0.4,1.2-0.7,1.2-0.7c0.3,0-0.2,2.5-0.6,3.5
	c-0.6,1.4-1.9,2.5-3.6,2.9c-2.5,0.7-7.4,0.2-10.3-1.2c-1.2-0.5-1.2-0.5-1.7-0.1c-0.8,0.6-1.7,2.6-1.7,3.5c0,0.5,0.2,1,0.4,1.3
	c1.4,1.9,10.4,3.4,15,2.5c5-1.1,8.5-4.5,9.6-9.6c0.5-2.3,0.5-13.8,0-15.9c-1-4.3-4.2-7.4-8.7-8.6C101.5,34.9,97.3,34.9,95.5,35.4z
	 M101.7,42.4c4.1,1.9,4.2,7.8,0.2,9.7c-1.2,0.6-1.5,0.6-3,0.6c-1.4-0.1-1.9-0.3-2.7-0.8c-1.9-1.3-2.6-3.9-1.8-6.5
	c0.4-1.2,1.9-2.8,3.1-3.2C98.7,41.9,100.6,41.9,101.7,42.4z M60.2,35.7c-1.1,0.3-2,0.9-2.3,1.6c-0.4,1-0.3,14.2,0.1,15.7
	c1.2,4.6,5.5,7.3,11.7,7.4c6.1,0,10.5-2.7,11.7-7.4c0.3-1,0.3-3.2,0.3-9v-7.7l-0.9-0.3c-1.4-0.5-4.1-0.4-5,0.1
	c-1.4,0.8-1.5,0.9-1.5,7.9c-0.1,6.3-0.1,6.4-0.6,7.4c-0.8,1.4-1.9,1.9-3.9,1.9s-3-0.5-3.9-1.9c-0.6-1-0.6-1.1-0.6-7.8
	c0-3.7-0.1-6.8-0.1-7C65.1,35.9,61.6,35.3,60.2,35.7z M119.9,35.7c-1.2,0.3-1.8,0.7-2.2,1.5c-0.3,0.6-0.4,2.2-0.3,11.4l0.1,10.7
	l1.2,0.3c1.4,0.4,3.6,0.3,4.6-0.2c0.4-0.2,0.9-0.6,1.2-1c0.5-0.6,0.5-1,0.6-11.3l0.1-10.6l-0.8-0.3
	C123.3,35.6,120.8,35.4,119.9,35.7z"/>
</svg>
