<?xml version="1.0" encoding="utf-8"?>
<!-- Generator: Adobe Illustrator 19.0.0, SVG Export Plug-In . SVG Version: 6.00 Build 0)  -->
<svg version="1.1" id="Layer_1" xmlns="http://www.w3.org/2000/svg" xmlns:xlink="http://www.w3.org/1999/xlink" x="0px" y="0px"
	 viewBox="435.5 0 315 70" style="enable-background:new 435.5 0 315 70;" xml:space="preserve">
<style type="text/css">
	.st0{fill:#CCCCCC;}
	.st1{fill:#34394D;}
	.st2{fill:#34394D;stroke:#34394D;stroke-miterlimit:10;}
</style>
<g>
	<g>
		<path class="st0" d="M708,63.9h-38.8c-5,0-9.1-4.1-9.1-9.1V15.6c0-5,4.1-9.1,9.1-9.1H708c5,0,9.1,4.1,9.1,9.1v39.2
			C717.2,59.8,713.1,63.9,708,63.9z"/>
		<path id="path2250_1_" class="st1" d="M674.1,47.6c0,1.8,1.1,3.4,3,3.4h23c2,0,3.3-1.5,3.3-3.4c0-1.9-1.3-3.1-3.3-3.1h-23
			C675.2,44.5,674.1,45.7,674.1,47.6z M674.5,25.1c0,2.5,1.2,5.1,2.7,6.8c1.6,1.8,3.8,2.7,6,2.7h17.4c8.4,0,12.5,6.2,12.5,13
			c0,6.5-3.5,13.4-12.5,13.4h-23.4c-6.9,0-12.1-4.2-12.1-13.4c0-5.5,3-8.9,5.4-9.8c-4.1-2.3-5.4-6.8-5.4-12.2V14.8
			c0-8.1,9.4-8,9.4,0C674.5,18.6,674.5,25.1,674.5,25.1z M674.1,0.5c-10.4,0-16.6,6.9-16.6,18.6v29.4c0,11.6,8.5,21.1,18.9,21.1H701
			c10.4,0,18.9-9.4,18.9-21.1V21.6c0-11.6-8.5-21.1-18.9-21.1H674.1"/>
	</g>
	<path class="st2" d="M492,58.3V41.8c0-0.7-0.8-0.9-1.1-0.3l-4,10c-0.4,1.1-1.4,1.8-2.4,1.8H483c-1.1,0-2-0.7-2.4-1.8l-4-10
		c-0.2-0.6-1.1-0.4-1.1,0.3v16.5c0,0.6-0.4,1.1-1,1.1h-7.5c-0.5,0-1-0.5-1-1.1V21.6c0-0.6,0.4-1.1,1-1.1h8.7c0.4,0,0.7,0.2,0.9,0.6
		l6.3,15.5c0.3,0.8,1.4,0.8,1.7,0l6.3-15.5c0.2-0.4,0.5-0.6,0.9-0.6h8.7c0.5,0,1,0.5,1,1.1v36.6c0,0.6-0.4,1.1-1,1.1H493
		C492.5,59.3,492,58.9,492,58.3z"/>
	<path class="st2" d="M522.1,50.1c1.1,0,2-0.3,2.8-0.8c0.8-0.5,1.4-1.3,1.9-2.2s0.8-1.9,1.1-3.1c0.2-1.2,0.3-2.4,0.3-3.7V21.5
		c0-0.6,0.4-1.1,1-1.1h7.5c0.5,0,1,0.5,1,1.1v18.9c0,2.7-0.3,5.2-0.9,7.6s-1.6,4.4-2.8,6.1c-1.3,1.7-2.9,3.1-4.9,4
		c-1.9,1-4.2,1.5-6.9,1.5c-2.7,0-5.1-0.5-7-1.6s-3.5-2.4-4.8-4.2s-2.2-3.8-2.8-6.1c-0.6-2.3-0.9-4.8-0.9-7.4V21.5
		c0-0.6,0.4-1.1,1-1.1h7.5c0.5,0,1,0.5,1,1.1v18.9c0,1.3,0.1,2.5,0.3,3.7c0.2,1.2,0.6,2.2,1.1,3.1c0.5,0.9,1.1,1.6,1.9,2.1
		C520.1,49.8,521,50.1,522.1,50.1z"/>
	<path class="st2" d="M566.1,56.9c0-0.3-0.3-0.5-0.5-0.3c-2.3,2-5,3-7.9,3c-2.2,0-4.3-0.4-6.4-1.3c-2-0.9-3.8-2.2-5.3-3.9
		c-1.5-1.7-2.7-3.8-3.6-6.3c-0.9-2.5-1.4-5.3-1.4-8.5c0-2.7,0.5-5.3,1.4-7.6c0.9-2.4,2.1-4.4,3.7-6.1s3.4-3.1,5.6-4.1
		s4.5-1.5,6.9-1.5c1.5,0,3,0.2,4.4,0.6s2.7,0.9,3.9,1.7c1.2,0.7,2.3,1.6,3.3,2.7c0.7,0.8,1.4,1.7,1.9,2.7c0.3,0.5,0.2,1.1-0.2,1.4
		l-5.5,4.7c-0.4,0.4-1.1,0.2-1.4-0.3c-0.6-1.1-1.5-2-2.5-2.7c-1.4-0.9-2.8-1.4-4.3-1.4c-1.1,0-2.2,0.3-3.1,0.8
		c-0.9,0.5-1.7,1.2-2.4,2.1c-0.7,0.9-1.2,2-1.6,3.3s-0.6,2.6-0.6,4.1c0,1.5,0.2,2.9,0.6,4.2c0.4,1.2,0.9,2.3,1.6,3.2
		c0.7,0.9,1.5,1.6,2.5,2.1c1,0.5,2,0.7,3.2,0.7c2.3,0,4.3-0.9,6.1-2.6c0.4-0.4,0.2-1.2-0.4-1.2l-3.4,0c-0.5,0-1-0.5-1-1.1v-5.5
		c0-0.6,0.4-1.1,1-1.1h12.2c0.5,0,1,0.5,1,1.1v18.5c0,0.6-0.4,1.1-1,1.1H567c-0.5,0-1-0.5-1-1.1V56.9z"/>
	<path class="st2" d="M578.3,58.3V21.6c0-0.6,0.4-1.1,1-1.1h7.5c0.5,0,1,0.5,1,1.1v36.6c0,0.6-0.4,1.1-1,1.1h-7.5
		C578.7,59.3,578.3,58.9,578.3,58.3z"/>
	<path class="st2" d="M614.1,32.1c-0.2,0.5-0.8,0.7-1.3,0.5c-0.7-0.4-1.4-0.8-2.2-1.2c-0.9-0.4-1.8-0.8-2.9-1.2
		c-1.1-0.4-2.1-0.6-3.2-0.6c-0.8,0-1.5,0.1-2,0.4s-0.7,0.8-0.7,1.5c0,0.5,0.1,0.9,0.4,1.3c0.3,0.3,0.7,0.6,1.3,0.9
		c0.5,0.3,1.2,0.5,2,0.8s1.7,0.6,2.7,0.9c1.6,0.5,3,1.1,4.3,1.8s2.4,1.4,3.3,2.3c0.9,0.9,1.6,2,2.1,3.3c0.5,1.3,0.7,2.8,0.7,4.6
		c0,2.3-0.4,4.3-1.1,5.9s-1.8,2.9-3,3.8c-1.2,0.9-2.6,1.6-4.2,2.1c-1.6,0.4-3.1,0.6-4.7,0.6c-1.3,0-2.5-0.1-3.9-0.3
		c-1.3-0.2-2.6-0.5-3.9-0.9c-1.3-0.4-2.6-0.9-3.8-1.4c-0.9-0.4-1.7-0.9-2.5-1.3c-0.5-0.3-0.6-0.9-0.4-1.4l3.2-7.4
		c0.2-0.6,0.9-0.8,1.3-0.5c0.9,0.6,1.7,1.1,2.7,1.5c1,0.5,2.2,1,3.5,1.5c1.3,0.4,2.6,0.7,4,0.7c1,0,1.7-0.2,2.1-0.5
		c0.4-0.3,0.6-0.7,0.6-1.2c0-0.5-0.2-1-0.6-1.4c-0.4-0.4-1-0.7-1.7-1s-1.5-0.6-2.4-0.9c-0.9-0.3-1.9-0.6-2.9-1
		c-1.5-0.6-2.8-1.2-3.9-1.9c-1.1-0.7-2-1.4-2.7-2.3s-1.2-1.8-1.6-2.9c-0.3-1.1-0.5-2.4-0.5-3.8c0-2.2,0.3-4,1-5.7
		c0.7-1.6,1.6-3,2.8-4.1s2.6-1.9,4.1-2.5c1.5-0.6,3.1-0.8,4.9-0.8c1.3,0,2.5,0.1,3.7,0.4s2.3,0.6,3.5,1c1.1,0.4,2.1,0.9,3.1,1.4
		c0.6,0.3,1.2,0.6,1.7,0.9c0.5,0.3,0.7,0.9,0.4,1.5L614.1,32.1z"/>
	<path class="st2" d="M637.5,50.1c1.1,0,2-0.3,2.8-0.8c0.8-0.5,1.4-1.3,1.9-2.2s0.8-1.9,1.1-3.1c0.2-1.2,0.3-2.4,0.3-3.7V21.5
		c0-0.6,0.4-1.1,1-1.1h7.5c0.5,0,1,0.5,1,1.1v18.9c0,2.7-0.3,5.2-0.9,7.6s-1.6,4.4-2.8,6.1c-1.3,1.7-2.9,3.1-4.9,4
		c-1.9,1-4.2,1.5-6.9,1.5c-2.7,0-5.1-0.5-7-1.6c-1.9-1-3.5-2.4-4.8-4.2s-2.2-3.8-2.8-6.1c-0.6-2.3-0.9-4.8-0.9-7.4V21.5
		c0-0.6,0.4-1.1,1-1.1h7.5c0.5,0,1,0.5,1,1.1v18.9c0,1.3,0.1,2.5,0.3,3.7c0.2,1.2,0.6,2.2,1.1,3.1c0.5,0.9,1.1,1.6,1.9,2.1
		C635.4,49.8,636.4,50.1,637.5,50.1z"/>
</g>
</svg>
