<?xml version="1.0" encoding="utf-8"?>
<!-- Generator: Adobe Illustrator 19.0.0, SVG Export Plug-In . SVG Version: 6.00 Build 0)  -->
<svg version="1.1" id="svg2" xmlns="http://www.w3.org/2000/svg" xmlns:xlink="http://www.w3.org/1999/xlink" x="0px" y="0px"
	 viewBox="0 0 1400 70" style="enable-background:new 0 0 1400 70;" xml:space="preserve">
<style type="text/css">
	.st0{fill:#F68932;}
	.st1{fill:#34394D;}
</style>
<g>
	<path id="path2248_5_" class="st0" d="M185.9,38c0,0-2.3,0-2.5,0c0,0-0.6,0-0.9,0.4c-0.3,0.3-0.3,0.9-0.3,0.9v12c0,0,0,0.6-0.4,1.3
		c-0.4,0.4-1.3,0.4-1.3,0.4h-3.6c-0.4,0-0.9-0.1-1.3-0.6c-0.4-0.4-0.4-1-0.4-1v-8.5v-3.7c0,0,0-0.6-0.3-0.9C174.6,38,174,38,174,38
		h-2.5c0,0-0.6,0-1,0.4c-0.3,0.3-0.3,0.9-0.3,0.9v12.2c0,3.7,2.9,6.7,6.7,6.7h4.2c3.7,0,6.7-2.9,6.7-6.7V39.3c0,0,0-0.4-0.4-0.9
		C186.5,38,185.9,38,185.9,38"/>
	<path id="path2250_12_" class="st0" d="M200.6,51.1c0,0.9,0.6,1.9,1.7,1.9h13.6c1.3,0,1.9-0.7,1.9-1.9c0-0.9-0.7-1.6-1.9-1.6h-13.5
		C201.2,49.6,200.6,50.2,200.6,51.1z M200.9,39.4c0,1.4,0.6,2.6,1.6,3.6c0.9,0.9,2.2,1.4,3.6,1.4h10.2c4.9,0,7.4,3.2,7.4,6.8
		c0,3.4-2,7.1-7.4,7.1h-13.8c-4,0-7.1-2.2-7.1-7.1c0-2.9,1.7-4.6,3.2-5.1c-2.5-1.3-3.2-3.6-3.2-6.5v-5.8c0-4.3,5.5-4.2,5.5,0
		C200.9,36,200.9,39.4,200.9,39.4z M200.6,26.4c-6.2,0-9.7,3.7-9.7,9.7v15.5c0,6.2,4.9,11.1,11.1,11.1h14.5
		c6.2,0,11.1-4.9,11.1-11.1V37.4c0-6.2-4.9-11.1-11.1-11.1L200.6,26.4"/>
	<path id="path2252_5_" class="st0" d="M160.9,45.8h-5.8c-0.7,0-1.3-0.6-1.3-1.4s0.4-1,1.3-1.3h0.1h8.8c0,0,0.6,0,1-0.4
		c0.4-0.4,0.4-1.3,0.4-1.3v-2c0,0,0-0.7-0.4-1.3c-0.4-0.4-1-0.4-1-0.4h-8.7c-1.9,0-3.6,0.6-4.8,1.7c-1.3,1-2,2.8-2,4.5
		c0,1.7,0.6,3.4,2,4.6c1.3,1.3,2.9,1.9,4.8,1.9h4.2h1.3c0,0,0,0,0.1,0c0.7,0,1.4,0.4,1.4,1.3c0,0.6-0.4,1.3-1.3,1.3
		c-0.1,0-0.1,0-0.1,0h-5.5c-0.6,0-4.5,0-4.5,0s-0.6,0-1.3,0.4c-0.4,0.4-0.4,1-0.4,1v2.2c0,0,0,0.7,0.4,1.3c0.4,0.4,1,0.3,1,0.3l0,0
		l0,0h0.4h9.6c3.9,0,6.7-2.6,6.7-6.2C167.5,48.5,164.7,45.8,160.9,45.8"/>
	<path id="path2260_7_" class="st0" d="M162.2,51.4L162.2,51.4L162.2,51.4L162.2,51.4"/>
</g>
<path class="st1" d="M139.4,17.8c-2.8,0.6-4.5,4-3.4,6.8c0.5,1.3,2.2,2.6,3.7,2.8c2.1,0.3,4.3-0.8,5.3-2.8c0.4-0.9,0.5-2.9,0.1-4
	C144.3,18.5,141.8,17.3,139.4,17.8z M15.7,28.4c-3.1,0.9-4.7,4.3-3.4,7.2c0.5,1.3,1.6,2.4,2.6,2.8l0.8,0.3v8.1c0,9,0.1,9.9,1.7,10.8
	c1.2,0.6,3.7,0.7,5.5,0.3l1.6-0.4l0.2-8.5c0.1-7.5,0.2-8.6,0.7-9.4c0.7-1.3,1.9-2,3.8-2c1.9,0,3.2,0.7,4.1,2.5
	c0.6,1.2,0.6,1.6,0.7,8.1c0,7.7,0.1,8.5,1.6,9.3c1.1,0.7,4.5,0.7,6.2,0.2l1-0.4l0.1-8.2c0.1-7.6,0.1-8.2,0.7-9.2
	c0.9-1.8,1.8-2.2,4.2-2.2c1.8,0,2.2,0.1,2.8,0.7c1.4,1.3,1.6,1.9,1.6,9.6c0,8,0.1,8.7,1.7,9.6c1.1,0.6,4.6,0.7,6.1,0.1l1-0.4v-9.4
	c0-10-0.1-11.4-1.5-13.5c-1.5-2.3-4.3-4.2-7.5-4.9c-0.9-0.2-2.8-0.2-4.5-0.2c-3.4,0.1-5.2,0.7-7.6,2.5l-1.6,1.2l-1-0.7
	c-1.3-1.1-3.7-2.3-5.6-2.8c-2.1-0.4-7.2-0.2-8.9,0.4c-1.2,0.4-1.3,0.4-1.9-0.2C19.5,28.6,17.4,28,15.7,28.4z M110.9,30
	c-7.4,1.9-11.8,8.7-10.7,16.2c1,7.3,5.8,11.3,13.2,11.4c3,0,4.6-0.4,6.8-1.8c0.7-0.4,1.3-0.8,1.4-0.8c0.3,0-0.2,2.9-0.7,4
	c-0.7,1.6-2.2,2.8-4.1,3.4c-2.8,0.8-8.5,0.2-11.9-1.3c-1.3-0.6-1.3-0.6-1.9-0.1c-0.9,0.7-1.9,3-1.9,4c0,0.5,0.2,1.2,0.4,1.5
	c1.6,2.2,12,4,17.4,2.8c5.8-1.3,9.9-5.2,11.1-11.1c0.5-2.7,0.5-15.9,0-18.4c-1.2-4.9-4.9-8.6-10.1-9.9
	C117.9,29.4,112.9,29.4,110.9,30z M118,38.1c4.7,2.2,4.9,9,0.2,11.3c-1.3,0.7-1.8,0.7-3.5,0.7c-1.6-0.1-2.2-0.3-3.1-1
	c-2.2-1.5-3-4.5-2.1-7.5c0.4-1.4,2.2-3.3,3.6-3.7C114.6,37.5,116.7,37.5,118,38.1z M69.9,30.4c-1.3,0.3-2.3,1-2.6,1.9
	c-0.4,1.2-0.3,16.5,0.1,18.2c1.4,5.4,6.4,8.5,13.5,8.5c7.1,0,12.1-3.1,13.5-8.5c0.3-1.1,0.4-3.7,0.4-10.5v-9l-1-0.4
	c-1.6-0.5-4.8-0.4-5.8,0.1c-1.6,0.9-1.7,1-1.8,9.1c-0.1,7.3-0.1,7.4-0.7,8.6c-0.9,1.6-2.2,2.2-4.5,2.2c-2.3,0-3.5-0.6-4.5-2.2
	c-0.7-1.2-0.7-1.3-0.7-9c0-4.3-0.1-7.9-0.1-8.2C75.7,30.6,71.6,29.9,69.9,30.4z M139.2,30.4c-1.3,0.3-2.1,0.8-2.5,1.7
	c-0.4,0.7-0.4,2.5-0.4,13.2l0.1,12.3l1.4,0.4c1.6,0.4,4.2,0.3,5.3-0.2c0.4-0.2,1-0.7,1.3-1.2c0.5-0.7,0.6-1.1,0.7-13.1l0.1-12.3
	l-0.9-0.4C143.1,30.3,140.2,30.1,139.2,30.4z"/>
</svg>
