<?xml version="1.0" encoding="utf-8"?>
<!-- Generator: Adobe Illustrator 19.0.0, SVG Export Plug-In . SVG Version: 6.00 Build 0)  -->
<svg version="1.1" id="svg2" xmlns="http://www.w3.org/2000/svg" xmlns:xlink="http://www.w3.org/1999/xlink" x="0px" y="0px"
	 viewBox="0 0 1400 70" style="enable-background:new 0 0 1400 70;" xml:space="preserve">
<style type="text/css">
	.st0{fill:#34394D;}
	.st1{fill:#E0924B;}
</style>
<g>
	<g>
		<path id="path2248_5_" class="st0" d="M244.6,27.3c0,0-3.1,0-3.3,0c0,0-0.8,0-1.2,0.6c-0.4,0.4-0.4,1.2-0.4,1.2v16.1
			c0,0,0,0.8-0.6,1.7c-0.6,0.6-1.7,0.6-1.7,0.6h-4.8c-0.6,0-1.2-0.2-1.7-0.8c-0.6-0.6-0.6-1.4-0.6-1.4V33.9v-5c0,0,0-0.8-0.4-1.2
			c-0.4-0.4-1.2-0.4-1.2-0.4h-3.3c0,0-0.8,0-1.4,0.6c-0.4,0.4-0.4,1.2-0.4,1.2v16.3c0,5,3.9,8.9,8.9,8.9h5.6c5,0,8.9-3.9,8.9-8.9V29
			c0,0,0-0.6-0.6-1.2C245.4,27.3,244.6,27.3,244.6,27.3"/>
		<path id="path2250_12_" class="st0" d="M264.2,44.9c0,1.2,0.8,2.5,2.3,2.5h18.2c1.7,0,2.5-1,2.5-2.5c0-1.2-1-2.1-2.5-2.1h-18
			C265.1,42.8,264.2,43.7,264.2,44.9z M264.7,29.2c0,1.9,0.8,3.5,2.1,4.8c1.2,1.2,2.9,1.9,4.8,1.9h13.7c6.6,0,9.9,4.3,9.9,9.1
			c0,4.6-2.7,9.5-9.9,9.5h-18.4c-5.4,0-9.5-2.9-9.5-9.5c0-3.9,2.3-6.2,4.3-6.8c-3.3-1.7-4.3-4.8-4.3-8.7v-7.7c0-5.8,7.4-5.6,7.4,0
			C264.7,24.6,264.7,29.2,264.7,29.2z M264.2,11.8c-8.3,0-13,5-13,13v20.7c0,8.3,6.6,14.9,14.9,14.9h19.4c8.3,0,14.9-6.6,14.9-14.9
			v-19c0-8.3-6.6-14.9-14.9-14.9L264.2,11.8"/>
		<path id="path2252_5_" class="st0" d="M211.1,37.7h-7.7c-1,0-1.7-0.8-1.7-1.9s0.6-1.4,1.7-1.7h0.2h11.8c0,0,0.8,0,1.4-0.6
			s0.6-1.7,0.6-1.7v-2.7c0,0,0-1-0.6-1.7c-0.6-0.6-1.4-0.6-1.4-0.6h-11.6c-2.5,0-4.8,0.8-6.4,2.3c-1.7,1.4-2.7,3.7-2.7,6
			c0,2.3,0.8,4.6,2.7,6.2c1.7,1.7,3.9,2.5,6.4,2.5h5.6h1.7c0,0,0,0,0.2,0c1,0,1.9,0.6,1.9,1.7c0,0.8-0.6,1.7-1.7,1.7
			c-0.2,0-0.2,0-0.2,0h-7.4c-0.8,0-6,0-6,0s-0.8,0-1.7,0.6c-0.6,0.6-0.6,1.4-0.6,1.4v2.9c0,0,0,1,0.6,1.7c0.6,0.6,1.4,0.4,1.4,0.4
			l0,0l0,0h0.6h12.8c5.2,0,8.9-3.5,8.9-8.3C220,41.4,216.2,37.7,211.1,37.7"/>
		<path id="path2260_7_" class="st0" d="M212.9,45.3L212.9,45.3L212.9,45.3L212.9,45.3"/>
	</g>
	<path class="st1" d="M182.4,0.3c-3.8,0.8-6,5.4-4.5,9.1c0.7,1.7,3,3.5,4.9,3.8c2.8,0.4,5.7-1.1,7.1-3.7c0.6-1.2,0.7-3.9,0.1-5.4
		C189,1.3,185.6-0.4,182.4,0.3z M17,14.5c-4.1,1.2-6.3,5.7-4.6,9.6c0.7,1.7,2.1,3.2,3.5,3.8l1.1,0.4v10.8c0,12,0.2,13.3,2.3,14.4
		c1.6,0.8,4.9,1,7.3,0.4l2.1-0.5L29,42.1c0.1-10,0.3-11.5,0.9-12.6c1-1.8,2.6-2.7,5.1-2.7c2.6,0,4.3,1,5.5,3.4
		c0.8,1.6,0.8,2.1,0.9,10.8c0,10.3,0.2,11.3,2.2,12.5c1.5,0.9,6,1,8.3,0.3l1.4-0.5l0.1-10.9c0.1-10.2,0.1-11,0.9-12.3
		c1.2-2.4,2.4-3,5.6-3c2.4,0,2.9,0.1,3.7,0.9c1.9,1.8,2.1,2.5,2.1,12.9c0,10.7,0.1,11.6,2.3,12.8c1.5,0.8,6.1,0.9,8.2,0.2l1.4-0.5
		V40.8c0-13.4-0.2-15.2-2-18.1c-2-3.1-5.8-5.6-10-6.5c-1.2-0.3-3.7-0.3-6-0.3c-4.6,0.2-7,1-10.1,3.4l-2.1,1.6L46.1,20
		c-1.8-1.5-5-3.1-7.5-3.7c-2.8-0.6-9.6-0.3-11.9,0.5c-1.6,0.6-1.7,0.6-2.6-0.3C22.1,14.7,19.3,13.9,17,14.5z M144.3,16.6
		c-9.9,2.6-15.8,11.6-14.3,21.7c1.4,9.7,7.7,15.1,17.6,15.2c4,0,6.2-0.6,9.1-2.4c1-0.6,1.8-1.1,1.9-1.1c0.4,0-0.3,3.9-0.9,5.4
		c-0.9,2.1-3,3.8-5.5,4.5c-3.8,1.1-11.4,0.3-15.9-1.8c-1.8-0.8-1.8-0.8-2.6-0.1c-1.2,1-2.6,4-2.6,5.4c0,0.7,0.3,1.6,0.6,2
		c2.1,3,16.1,5.3,23.2,3.8c7.8-1.7,13.2-7,14.9-14.8c0.7-3.6,0.7-21.3,0-24.6c-1.6-6.6-6.5-11.5-13.5-13.3
		C153.6,15.8,147,15.8,144.3,16.6z M153.8,27.5c6.3,2.9,6.5,12.1,0.3,15.1c-1.8,0.9-2.4,1-4.7,0.9c-2.1-0.1-2.9-0.4-4.2-1.3
		c-2.9-2-4-6-2.8-10c0.6-1.9,3-4.4,4.8-5C149.2,26.7,152.1,26.7,153.8,27.5z M89.5,17.1c-1.7,0.4-3.1,1.4-3.5,2.5
		c-0.6,1.6-0.4,22,0.1,24.3c1.9,7.2,8.5,11.3,18.1,11.4c9.5,0,16.2-4.2,18.1-11.4c0.4-1.5,0.5-4.9,0.5-14v-12l-1.4-0.5
		c-2.1-0.7-6.4-0.6-7.8,0.1c-2.2,1.2-2.3,1.4-2.4,12.2c-0.1,9.7-0.1,9.9-1,11.5c-1.2,2.2-2.9,3-6,3s-4.7-0.8-6-3
		c-0.9-1.6-0.9-1.7-1-12.1c0-5.7-0.1-10.6-0.1-10.9C97.2,17.4,91.8,16.5,89.5,17.1z M182.1,17.1c-1.8,0.4-2.8,1.1-3.4,2.3
		c-0.5,0.9-0.6,3.4-0.5,17.6l0.1,16.5l1.9,0.5c2.1,0.6,5.6,0.4,7.1-0.3c0.6-0.3,1.4-1,1.8-1.6c0.7-1,0.8-1.5,0.9-17.5l0.1-16.4
		l-1.2-0.5C187.3,17,183.5,16.7,182.1,17.1z"/>
</g>
</svg>
